<svg width="40" height="40" viewBox="0 0 40 40" fill="none" xmlns="http://www.w3.org/2000/svg">
<path d="M35.285 10.9012C35.0731 10.0012 34.3969 9.27937 33.4937 8.99312C31.1006 8.23375 25.9088 7.5 20 7.5C14.0912 7.5 8.89937 8.23375 6.50563 8.99312C5.6025 9.27937 4.92625 10.0012 4.71438 10.9012C4.31438 12.6006 3.75 15.7519 3.75 20C3.75 24.2481 4.31438 27.3994 4.715 29.0987C4.92688 29.9987 5.60312 30.7206 6.50625 31.0069C8.89937 31.7663 14.0912 32.5 20 32.5C25.9088 32.5 31.1006 31.7663 33.4944 31.0069C34.3975 30.7206 35.0737 29.9987 35.2856 29.0987C35.6856 27.3994 36.25 24.2481 36.25 20C36.25 15.7519 35.6856 12.6006 35.285 10.9012ZM16.875 25V15L26.1606 20L16.875 25Z" fill="white"/>
</svg>
