<?xml version="1.0" encoding="UTF-8"?>
<svg id="Layer_1" data-name="Layer 1" xmlns="http://www.w3.org/2000/svg" viewBox="0 0 146.63 146.64">
  <defs>
    <style>
      .cls-1 {
        fill: #e4484f;
      }

      .cls-1, .cls-2, .cls-3, .cls-4, .cls-5, .cls-6, .cls-7 {
        stroke-width: 0px;
      }

      .cls-2, .cls-3 {
        fill-rule: evenodd;
      }

      .cls-2, .cls-7 {
        fill: #242122;
      }

      .cls-3 {
        fill: #235a97;
      }

      .cls-4 {
        fill: #8e9197;
      }

      .cls-5 {
        fill: #b4bfd9;
      }

      .cls-6 {
        fill: #fff;
      }
    </style>
  </defs>
  <path class="cls-6" d="M1.75,73.32C1.75,33.79,33.79,1.75,73.32,1.75s71.56,32.04,71.56,71.57-32.04,71.56-71.56,71.56S1.75,112.86,1.75,73.32"/>
  <path class="cls-1" d="M1.75,73.32H0C0,32.83,32.82,0,73.32,0c40.49,0,73.31,32.83,73.31,73.32,0,40.51-32.82,73.31-73.31,73.31S0,113.83,0,73.32h3.5c0,19.29,7.81,36.73,20.45,49.37,12.64,12.64,30.08,20.44,49.37,20.44s36.72-7.8,49.36-20.44c12.64-12.63,20.44-30.07,20.45-49.37,0-19.29-7.81-36.73-20.45-49.37-12.64-12.64-30.08-20.45-49.36-20.45s-36.73,7.81-49.37,20.45C11.31,36.6,3.5,54.04,3.5,73.32h-1.75Z"/>
  <path class="cls-5" d="M74.62,122.26c26.59,0,48.16-21.7,48.16-48.46s-21.56-48.45-48.16-48.45-48.15,21.69-48.15,48.45,21.56,48.46,48.15,48.46"/>
  <path class="cls-5" d="M74.62,122.26v-.32c13.21,0,25.16-5.39,33.82-14.1,8.65-8.71,14.01-20.74,14.01-34.04s-5.36-25.32-14.01-34.03c-8.66-8.71-20.62-14.1-33.82-14.1s-25.17,5.39-33.82,14.1c-8.66,8.71-14.01,20.74-14.01,34.03s5.35,25.32,14.01,34.04c8.66,8.71,20.62,14.1,33.82,14.1v.64c-26.77,0-48.47-21.84-48.47-48.78s21.7-48.77,48.47-48.77,48.48,21.84,48.48,48.77-21.71,48.78-48.48,48.78v-.32Z"/>
  <path class="cls-6" d="M74.59,30.6c2.28-.99,5.78-1.53,9.73-1.53,6.69,0,14.61,1.57,19.67,5.47l-.52.67c-4.79-3.72-12.59-5.3-19.14-5.29-3.86,0-7.3.54-9.39,1.46l-.34-.78Z"/>
  <path class="cls-6" d="M92.92,29.09c-1.39-.45-3.68-.77-6.23-.77-4.03,0-8.72.81-11.67,3.02l-.51-.68c3.22-2.39,8.04-3.18,12.18-3.18,2.63,0,4.97.32,6.49.81l-.26.81Z"/>
  <path class="cls-6" d="M74.92,31.34c-3.03-.5-5.88-.73-8.56-.73-12.83,0-21.79,5.24-27.95,11.52l-.61-.6c6.27-6.41,15.49-11.78,28.55-11.78,2.73,0,5.62.23,8.7.74l-.14.84Z"/>
  <path class="cls-6" d="M92.08,118.12c9.28-6.23,13.82-17.28,13.82-29.91,0-19.51-10.88-42.67-31.71-57.02l.48-.7c21.06,14.53,32.07,37.91,32.07,57.72,0,12.82-4.62,24.19-14.2,30.62l-.47-.71Z"/>
  <path class="cls-6" d="M56.62,118.87c-7.46-5.39-10.7-15.55-10.7-27.2.02-21.84,11.36-49.12,28.6-61.03l.49.7c-16.92,11.63-28.25,38.76-28.23,60.33,0,11.51,3.21,21.37,10.35,26.51l-.5.69Z"/>
  <path class="cls-6" d="M56.02,29.17c-3.65,2.03-5.42,4.72-5.42,7.39,0,2.78,1.92,5.7,6.07,7.95,4.14,2.25,10.46,3.79,19.04,3.79,7.03,0,13.05-1.82,17.29-4.35,4.25-2.53,6.66-5.79,6.64-8.51,0-2.02-1.24-3.88-4.26-5.23l.35-.78c3.21,1.41,4.78,3.6,4.77,6.01-.02,3.23-2.68,6.62-7.06,9.24-4.39,2.62-10.54,4.47-17.72,4.47-8.68,0-15.13-1.55-19.45-3.89-4.31-2.33-6.52-5.5-6.52-8.7,0-3.07,2.04-6.02,5.85-8.14l.42.74Z"/>
  <path class="cls-6" d="M42.18,38.17c-1.08,1.74-1.59,3.47-1.59,5.17,0,4.36,3.38,8.63,9.52,11.83,6.13,3.19,14.96,5.27,25.6,5.27,8.57,0,17-1.99,23.26-5.18,3.12-1.59,5.7-3.48,7.49-5.54,1.79-2.07,2.77-4.29,2.77-6.6,0-1.18-.26-2.39-.82-3.63l.78-.35c.6,1.33.89,2.67.89,3.97,0,2.56-1.1,4.98-2.98,7.16-5.65,6.51-18.33,11.01-31.39,11.02-10.76,0-19.7-2.1-25.99-5.37-6.28-3.27-9.97-7.76-9.98-12.59,0-1.87.56-3.77,1.72-5.62l.72.45Z"/>
  <path class="cls-6" d="M32.95,49.9c-.14.77-.21,1.53-.21,2.27,0,6.1,4.66,11.39,12.43,15.18,7.76,3.78,18.56,6.02,30.55,6.02,9.06,0,19.31-1.98,27.25-5.6,3.97-1.81,7.36-4.03,9.74-6.6,2.38-2.57,3.75-5.45,3.76-8.66,0-.88-.11-1.79-.32-2.72l.83-.2c.23.99.34,1.96.34,2.91,0,3.46-1.5,6.57-3.98,9.24-7.47,8.01-23.84,12.46-37.61,12.47-12.1,0-23-2.24-30.92-6.1-7.91-3.85-12.9-9.37-12.91-15.95,0-.8.07-1.61.22-2.43l.84.15Z"/>
  <path class="cls-6" d="M27.63,64.53c1.63,6.37,7.25,11.85,15.69,15.75,8.43,3.89,19.65,6.17,32.37,6.17,9.65,0,21.07-2.21,30.03-6.31,4.48-2.05,8.35-4.56,11.07-7.48,2.73-2.93,4.32-6.23,4.32-9.91v-.13h.85s0,.13,0,.13c0,3.94-1.72,7.46-4.55,10.49-8.51,9.08-27.07,14.04-41.73,14.06-12.82,0-24.15-2.29-32.73-6.25-8.57-3.95-14.42-9.58-16.15-16.31l.82-.21Z"/>
  <path class="cls-6" d="M123.1,75.47c-1.29,7.82-8.1,13.69-16.94,17.61-8.85,3.92-19.79,5.92-29.53,5.93-.58,0-1.15,0-1.72-.02-13.36-.32-24.12-2.13-32.28-5.86-8.16-3.72-13.71-9.39-16.54-17.32l.8-.29c2.76,7.71,8.1,13.18,16.1,16.84,8,3.65,18.65,5.47,31.95,5.78.56.01,1.13.02,1.7.02,9.63,0,20.48-1.99,29.18-5.85,8.72-3.87,15.25-9.59,16.45-16.97l.84.14Z"/>
  <path class="cls-6" d="M76.43,25.43s-.21.13-.36.41c-.5.82-.95,2.65-.95,4.16,0,.33.02.64.06.93l-.42.06-.38-.19s.64-1.26,1.72-2.61c1.09-1.34,2.62-2.82,4.55-3.22l.17.83c-1.58.32-3.03,1.64-4.05,2.93-.51.63-.92,1.25-1.2,1.71-.14.23-.25.42-.32.55l-.1.2-.61,1.21-.19-1.34c-.05-.33-.07-.69-.07-1.05,0-1.12.2-2.33.51-3.32.16-.49.34-.94.55-1.29.22-.35.45-.64.83-.77l.26.81Z"/>
  <path class="cls-6" d="M74.66,30.58c1.11-.25,2.57-.38,4.28-.38,4.8,0,11.6.99,18.05,3.12,6.45,2.13,12.55,5.4,15.9,10.06l-.69.49c-3.16-4.42-9.11-7.65-15.47-9.75-6.35-2.1-13.1-3.08-17.79-3.08-1.67,0-3.08.12-4.09.35l-.19-.83Z"/>
  <path class="cls-6" d="M74.54,30.54c2.03-2.59,6.48-4.82,9.79-4.84.3,0,.58.02.86.06l-.12.84c-.23-.03-.48-.05-.74-.05-2.93-.02-7.34,2.18-9.12,4.51l-.67-.52Z"/>
  <path class="cls-6" d="M74.44,31.13c-.62-1.81-1.82-4.6-3.64-5.67l.44-.73c2.19,1.33,3.35,4.27,4.01,6.12l-.8.28Z"/>
  <path class="cls-6" d="M65.16,25.47h.13c1.9,0,4.14.94,6.06,2.04.95.55,1.82,1.15,2.52,1.7.7.56,1.21,1.05,1.49,1.5l-.73.44c-.16-.27-.64-.76-1.29-1.28-1.96-1.58-5.6-3.57-8.05-3.55h-.11s-.02-.85-.02-.85Z"/>
  <path class="cls-6" d="M59.51,26.99c.68-.11,1.45-.17,2.26-.17,4.47.01,10.56,1.57,13.48,3.77l-.51.68c-2.62-2.01-8.69-3.6-12.96-3.59-.78,0-1.5.05-2.12.16l-.14-.84Z"/>
  <path class="cls-6" d="M49.28,31.73c1.17-.92,3.18-1.68,5.68-2.24,2.5-.55,5.49-.89,8.59-.89,3.96,0,8.1.55,11.59,1.92l-.31.79c-3.35-1.32-7.4-1.86-11.28-1.86-3.04,0-5.98.33-8.41.87-2.43.53-4.36,1.3-5.33,2.07l-.53-.67Z"/>
  <path class="cls-6" d="M29.23,55.9c6.16-14.55,23.68-25.55,42.04-25.56,1.25,0,2.5.05,3.76.15l-.07.85c-1.23-.1-2.46-.15-3.69-.15-18.02,0-35.28,10.87-41.26,25.04l-.78-.33Z"/>
  <path class="cls-6" d="M26.09,76.76v-.42c0-8.67,4.74-19.87,13.21-29.06,8.47-9.18,20.69-16.34,35.68-16.78l.02.85c-14.72.43-26.73,7.46-35.08,16.51-8.35,9.04-12.99,20.11-12.99,28.49v.41s-.85.01-.85.01Z"/>
  <path class="cls-6" d="M31.3,95.54c-.92-3.83-1.37-7.72-1.37-11.6,0-23.09,16.07-45.73,44.72-53.36l.22.82c-28.32,7.55-44.09,29.85-44.09,52.54,0,3.81.44,7.63,1.35,11.4l-.83.2Z"/>
  <path class="cls-6" d="M45.51,112.54c-6.19-7.9-8.78-16.77-8.78-25.68,0-12.38,4.98-24.84,12.19-35,7.21-10.17,16.65-18.05,25.69-21.27l.29.8c-8.8,3.13-18.16,10.91-25.28,20.96-7.13,10.05-12.03,22.36-12.03,34.51,0,8.75,2.53,17.42,8.6,25.16l-.67.52Z"/>
  <path class="cls-6" d="M75.06,31.29c-4.66,4.75-8.95,14.88-12.03,26.68-3.08,11.8-4.97,25.28-4.97,36.75,0,6.62.63,12.57,2.01,17.14,1.38,4.58,3.5,7.72,6.38,8.86l-.32.79c-3.25-1.31-5.46-4.72-6.88-9.41-1.41-4.69-2.04-10.71-2.04-17.39,0-11.57,1.9-25.1,5-36.97,3.11-11.87,7.37-22.08,12.24-27.06l.61.59Z"/>
  <path class="cls-6" d="M73.13,122.25c-.44-.03-.8-.3-1.07-.66-.48-.64-.81-1.64-1.11-2.99-.87-4.03-1.2-11.21-1.2-19.83,0-13.24.8-29.85,1.78-43.33.49-6.74,1.02-12.69,1.51-17.05.24-2.18.49-3.96.71-5.25.11-.65.21-1.17.32-1.56.05-.2.1-.36.16-.5l.23-.38.6.6-.09-.09.1.07h-.01s-.09-.07-.09-.07l.1.07s-.12.27-.21.65c-.73,2.94-1.81,13.56-2.68,26.44-.88,12.9-1.57,28.12-1.57,40.4,0,6.55.2,12.27.67,16.34.23,2.04.54,3.67.9,4.76.18.54.38.95.57,1.2.19.26.34.32.45.33l-.05.85Z"/>
  <path class="cls-6" d="M122.19,76.57c0-.19,0-.39,0-.59,0-9.24-4.03-20.23-12.05-28.99-8.02-8.77-20-15.34-35.96-15.81l.02-.85c16.18.47,28.41,7.16,36.57,16.09,8.16,8.93,12.27,20.09,12.27,29.57,0,.2,0,.4,0,.6l-.85-.02Z"/>
  <path class="cls-6" d="M117.08,95.24c1.55-5.23,2.33-10.41,2.33-15.44-.01-21.51-14.28-40.33-45.08-48.55l.22-.82c31.04,8.25,45.72,27.45,45.71,49.38,0,5.12-.8,10.38-2.37,15.69l-.81-.24Z"/>
  <path class="cls-6" d="M103.04,111.97c8.37-8.14,11.81-17.49,11.81-26.97.03-22.96-20.41-46.63-40.55-53.77l.28-.8c20.49,7.3,41.09,31.1,41.12,54.57,0,9.68-3.54,19.3-12.07,27.58l-.59-.61Z"/>
  <path class="cls-6" d="M74.75,30.53c11.33,11.61,21.77,40.33,21.8,62.71,0,6.69-.94,12.82-3.1,17.76-2.16,4.94-5.56,8.71-10.46,10.56l-.3-.8c4.65-1.77,7.88-5.32,9.98-10.11,2.1-4.78,3.03-10.81,3.03-17.42.02-22.12-10.46-50.81-21.55-62.12l.61-.6Z"/>
  <path class="cls-6" d="M75.95,121.42c1.32-.09,2.4-.72,3.35-1.88,2.87-3.48,4.04-11.8,4.03-21.93,0-13.14-1.88-29.37-3.98-42.53-1.05-6.58-2.16-12.4-3.11-16.67-.48-2.14-.92-3.89-1.29-5.15-.19-.63-.36-1.14-.51-1.51-.14-.37-.28-.61-.3-.61l.6-.6c.2.22.32.49.49.9.6,1.51,1.44,4.82,2.38,9.37,2.84,13.63,6.56,38.23,6.56,56.82,0,6.8-.5,12.79-1.73,17.17-.62,2.19-1.43,3.99-2.48,5.29-1.05,1.3-2.38,2.09-3.96,2.19l-.05-.85Z"/>
  <path class="cls-6" d="M30.04,90.84c2.61,4.89,8.92,9.25,17.15,12.35,8.24,3.11,18.38,4.96,28.62,4.96,17,0,34.22-5.12,43.56-17.98l.69.5c-9.59,13.18-27.09,18.32-44.24,18.33-10.34,0-20.58-1.87-28.92-5.02-8.34-3.15-14.82-7.55-17.61-12.74l.75-.4Z"/>
  <path class="cls-6" d="M36.52,102.55c6.89,8.15,23.23,12.66,39.29,12.65,14.56.01,28.86-3.69,35.7-11.39l.64.57c-7.16,8-21.64,11.66-36.34,11.67-16.21-.01-32.7-4.46-39.94-12.95l.65-.55Z"/>
  <path class="cls-6" d="M56.99,118.07c3.87,1.72,10.75,2.64,17.64,2.64,6.72,0,13.49-.87,17.52-2.63l.34.78c-4.23,1.84-11.05,2.7-17.86,2.7-6.97,0-13.89-.91-17.99-2.71l.35-.78Z"/>
  <path class="cls-3" d="M58.98,96.92h-4.68l-1.25-2.34c-1.06.91-1.91,1.55-2.58,1.89-1.23.64-2.62.95-4.16.95-2.38,0-4.38-.57-5.92-1.71-1.86-1.34-2.79-3.3-2.79-5.86v-28.82c0-2.81.76-4.9,2.26-6.24,1.77-1.56,4.68-2.34,8.71-2.34,3.53,0,6.21.77,8,2.34,1.6,1.39,2.41,3.22,2.41,5.48v8.19h-8.77v-8.95c0-.37-.12-.65-.37-.81-.21-.18-.58-.25-1.07-.25s-.8.07-1.07.25c-.26.16-.38.44-.38.81v30.65c0,.34.12.61.38.82.3.16.67.25,1.07.25.38,0,.72-.09.99-.25.3-.18.45-.45.45-.82v-8.26h-2.02v-6.74h10.79v21.76Z"/>
  <path class="cls-3" d="M83,88.58c0,2.91-.76,5.05-2.28,6.43-1.76,1.61-4.74,2.4-8.95,2.4-3.99,0-6.91-.95-8.77-2.84-1.39-1.39-2.08-3.12-2.08-5.18v-10.08h8.84v10.16c0,.45.16.83.49,1.13.39.25.82.38,1.33.38.59,0,1.03-.13,1.33-.38.3-.26.44-.63.44-1.13v-5.24c0-1.23-.27-2.19-.82-2.91-1.49-1.51-3.05-3.16-4.74-4.98-2.77-2.94-4.32-4.62-4.65-5.03-1.47-1.9-2.22-3.66-2.22-5.3v-4.99c0-2.81.8-4.89,2.41-6.24,1.84-1.56,4.77-2.34,8.81-2.34,3.49,0,6.1.77,7.82,2.34,1.48,1.34,2.22,3.17,2.22,5.48v7.63h-8.83v-8.14c0-.4-.14-.73-.44-.94-.26-.25-.6-.37-1.02-.37-.5,0-.88.1-1.14.31-.24.22-.37.55-.37,1v4.1c0,1.43.62,2.83,1.88,4.17,1.77,1.81,3.43,3.5,4.98,5.11,2.02,2.1,3.32,3.57,3.92,4.42,1.23,1.73,1.83,3.53,1.83,5.43v5.6Z"/>
  <polygon class="cls-3" points="109.86 52.78 103.93 96.92 90.19 96.92 84.26 52.78 93.73 52.78 97.06 83.61 100.41 52.78 109.86 52.78"/>
  <path class="cls-4" d="M23.62,73.32h-.88c0-27.93,22.65-50.58,50.58-50.58s50.56,22.65,50.56,50.58-22.65,50.57-50.56,50.57c-27.93,0-50.58-22.63-50.58-50.57h1.75c0,13.49,5.47,25.69,14.3,34.53,8.84,8.84,21.04,14.3,34.53,14.3,13.47,0,25.67-5.46,34.51-14.3,8.84-8.84,14.3-21.04,14.3-34.53s-5.46-25.69-14.3-34.53c-8.84-8.84-21.04-14.3-34.51-14.3s-25.69,5.46-34.53,14.3c-8.84,8.84-14.3,21.04-14.3,34.53h-.87Z"/>
  <path class="cls-2" d="M37.83,125.85l6.13,3.68,3.41-5.67-6.12-3.66-1.39,2.27,3.19,1.9-.61,1.01-4.47-2.69,1.53-2.54c.42-.72.84-1.12,1.27-1.24.4-.1.96.07,1.67.5l5.05,3.04c.7.43,1.12.84,1.23,1.25.1.41-.07.98-.49,1.7l-2.48,4.12c-.43.72-.85,1.13-1.25,1.23-.44.11-.99-.05-1.7-.47l-5.08-3.04c-.68-.42-1.09-.82-1.19-1.24-.13-.4,0-.94.41-1.62l.11-.19,1.47.52-.7,1.15Z"/>
  <path class="cls-7" d="M37.83,125.85l.11-.19,5.95,3.56,3.18-5.29-5.74-3.44-1.16,1.89,3.19,1.9-.73,1.2-.11.19-4.85-2.92,1.64-2.72.19.11-.19-.11c.43-.74.88-1.2,1.4-1.34h0s0,0,0,0l.3-.04c.44,0,.95.2,1.54.56l5.05,3.04c.72.44,1.19.87,1.33,1.39l.04.3c0,.45-.2.97-.56,1.57l-2.48,4.12c-.45.74-.89,1.2-1.39,1.33l-.05-.21.06.21-.35.05c-.45,0-.94-.2-1.52-.54l-5.08-3.04h0c-.7-.43-1.15-.86-1.29-1.37l.22-.05-.21.07-.06-.39c0-.42.17-.88.5-1.42l.19.11-.19-.11.11-.19.09-.16,1.64.59.26.09-.85,1.38-.19-.12.11-.19-.11.19-.19-.12.56-.91-1.04-.37-.02.03h0c-.3.5-.43.9-.43,1.19l.04.25h0s0,.02,0,.02c.07.31.43.7,1.09,1.1l-.12.19.11-.19,5.08,3.04c.54.33.98.48,1.29.48l.23-.03h0s0,0,0,0c.29-.07.7-.42,1.11-1.13l2.48-4.12c.33-.56.49-1.02.49-1.34l-.02-.19c-.07-.31-.44-.7-1.13-1.12l-5.05-3.04c-.56-.34-1.02-.5-1.32-.49l-.19.02h0s.01,0,.01,0c-.34.09-.73.44-1.14,1.14h0s-1.41,2.35-1.41,2.35l4.09,2.46.38-.63-3.19-1.91,1.62-2.65,6.5,3.89-3.64,6.05-6.51-3.9.12-.19.19.12Z"/>
  <polygon class="cls-2" points="37.75 115.95 31.51 122.64 30.4 121.59 35.77 115.85 30.7 111.13 31.56 110.21 37.75 115.95"/>
  <polygon class="cls-7" points="37.75 115.95 37.91 116.1 31.52 122.95 30.25 121.75 30.09 121.6 35.46 115.87 30.38 111.14 31.4 110.06 31.55 109.9 38.06 115.94 37.91 116.1 37.75 115.95 37.6 116.11 31.57 110.52 31.01 111.12 36.08 115.85 30.71 121.58 31.5 122.33 37.58 115.8 37.75 115.95 37.6 116.11 37.75 115.95"/>
  <path class="cls-2" d="M24.21,112.23c-.7.46-1.26.65-1.66.56-.43-.09-.86-.48-1.31-1.17l-3.46-5.3c-.44-.7-.62-1.26-.53-1.66.09-.4.5-.85,1.19-1.29l4.03-2.62c.71-.46,1.28-.66,1.7-.57.4.08.83.47,1.28,1.16l3.43,5.3c.45.69.61,1.25.56,1.67-.09.42-.49.84-1.2,1.3l-4.04,2.62ZM28.16,107.85l-4.11-6.33-5.54,3.61,4.11,6.34,5.54-3.61Z"/>
  <path class="cls-7" d="M24.21,112.23l.12.19c-.61.39-1.13.61-1.58.61l-.25-.03.05-.21-.04.22c-.54-.12-.99-.56-1.45-1.27l-3.46-5.3c-.37-.6-.58-1.11-.58-1.56l.02-.27c.12-.51.58-.97,1.28-1.43l4.03-2.62c.62-.4,1.14-.62,1.61-.62l.26.03-.05.21.04-.22c.51.11.96.55,1.42,1.26l3.43,5.3c.41.63.61,1.16.61,1.63v.19s-.02,0-.02,0h0c-.12.53-.57.98-1.29,1.45l-4.04,2.62-.12-.19-.12-.18,4.04-2.62c.69-.45,1.04-.85,1.1-1.17l.22.05-.22-.03v-.13c.01-.33-.14-.8-.52-1.39l-3.43-5.3c-.43-.68-.85-1.01-1.14-1.07h0l-.16-.02c-.32,0-.79.18-1.37.55l-4.03,2.61c-.67.43-1.03.86-1.09,1.15l-.02.17c0,.31.16.77.52,1.32l-.19.12.18-.12,3.46,5.3c.43.68.83,1.01,1.17,1.08h0s.15.02.15.02c.3,0,.77-.17,1.34-.55l.12.18ZM28.16,107.85l-.19.12-3.99-6.15-5.17,3.37,3.87,5.97,5.35-3.49.12.18-.19.12.19-.12.12.19-5.72,3.74-4.35-6.71,5.91-3.85,4.35,6.71-.19.12-.12-.19Z"/>
  <path class="cls-2" d="M22.53,96.03l-8.62,2.96-2.41-6.96c-.22-.63-.23-1.15-.07-1.52.15-.38.53-.68,1.13-.88l1-.35c.85-.3,1.52.02,1.98.92-.24-1.03.17-1.72,1.17-2.06l1.09-.38c1.14-.39,1.98.22,2.53,1.81l2.22,6.45ZM14.18,90.72l-.87.32c-.31.08-.49.24-.53.42-.06.15-.02.41.08.72l1.72,4.99,2.39-.83-1.73-4.98c-.21-.6-.56-.81-1.07-.63M17.79,89.4l-.7.25c-.4.13-.67.31-.77.5-.09.18-.08.46.04.82l1.74,4.97,2.77-.95-1.73-4.97c-.12-.37-.28-.6-.46-.69-.21-.09-.5-.08-.89.07"/>
  <path class="cls-7" d="M22.53,96.03l.07.21-8.83,3.03-2.48-7.16c-.12-.37-.19-.71-.19-1.02,0-.24.04-.47.12-.67.19-.46.63-.79,1.26-1h0s1-.35,1-.35c.23-.08.45-.12.66-.12.67,0,1.22.42,1.58,1.15l-.2.1-.22.05c-.05-.2-.07-.4-.07-.58,0-.83.52-1.45,1.39-1.74l1.09-.38h0c.24-.08.48-.12.7-.12.96,0,1.66.76,2.1,2.08l2.29,6.65-.21.07-.07-.21-.21.07-2.22-6.45c-.44-1.26-.99-1.78-1.68-1.78-.17,0-.36.03-.56.1l-1.09.38c-.76.28-1.08.68-1.09,1.32l.06.48-.41.15c-.33-.64-.71-.91-1.19-.91-.15,0-.33.03-.52.1l-1,.35h0c-.56.19-.88.46-1,.76-.05.13-.09.3-.09.49,0,.25.05.54.17.87l2.33,6.75,8.42-2.89.07.21-.21.07.21-.07ZM14.18,90.72l.08.21-.87.31h-.01s0,0,0,0c-.27.07-.36.19-.38.26h0s0,.02,0,.02v.1c-.01.1.02.27.08.47l1.65,4.78,1.98-.68-1.65-4.78c-.16-.43-.32-.54-.53-.54l-.25.05h0s0,0,0,0l-.08-.21-.07-.21.4-.07c.45,0,.78.34.95.83l1.8,5.19-2.81.97-1.8-5.2c-.08-.23-.12-.43-.12-.61l.05-.26.2.08-.21-.06c.07-.28.33-.48.69-.57l.06.21-.07-.21.87-.31h0s0,0,0,0l.07.21ZM17.79,89.4l.07.21-.7.25h0s0,0,0,0c-.38.12-.61.29-.64.39h0s0,0,0,0l-.04.2c0,.11.02.26.09.44l1.66,4.77,2.35-.81-1.65-4.76h0c-.11-.35-.26-.52-.35-.56l.1-.2-.08.2-.21-.04c-.13,0-.3.03-.51.11h0s-.07-.21-.07-.21l-.08-.21c.25-.09.47-.14.67-.14l.39.07h0s0,0,0,0c.27.14.45.42.58.82l-.21.07.21-.07,1.8,5.18-3.18,1.1-1.82-5.18c-.07-.22-.11-.41-.11-.59l.09-.4.2.1-.2-.1c.15-.3.47-.47.9-.62l.07.21-.07-.21.7-.24.07.21-.08-.21.08.21Z"/>
  <path class="cls-2" d="M18.92,85.53l-9.66-3.86-.18-1.6,8.44-6.16.19,1.68-2.07,1.43.73,6.13,2.38.9.17,1.49ZM15.14,82.65l-.59-4.88-4.35,3.01,4.94,1.87Z"/>
  <path class="cls-7" d="M18.92,85.53l-.08.21-9.79-3.9-.2-1.73-.02-.13,8.85-6.46.24,2.06v.13s-2.05,1.43-2.05,1.43l.7,5.86,2.38.9.19,1.62.04.37-.34-.14.08-.21-.22.02-.16-1.35-2.38-.9-.76-6.39,2.07-1.43-.14-1.17-8.03,5.86.15,1.34,9.54,3.81-.08.2-.22.02.22-.02ZM15.14,82.65l-.22.03-.55-4.52-3.7,2.56,4.55,1.72-.08.21-.22.03.22-.03-.08.21-5.33-2.02,4.99-3.46.68,5.61-.34-.13.08-.21Z"/>
  <polygon class="cls-2" points="17.85 71.64 8.75 70.83 8.89 69.32 16.7 70.01 17.3 63.11 18.59 63.23 17.85 71.64"/>
  <polygon class="cls-7" points="17.85 71.64 17.83 71.86 8.52 71.03 8.67 69.3 8.69 69.08 16.5 69.77 17.1 62.87 18.61 63 18.83 63.02 18.05 71.88 17.83 71.86 17.85 71.64 17.63 71.62 18.36 63.43 17.51 63.35 16.9 70.25 9.09 69.56 8.99 70.63 17.87 71.42 17.85 71.64 17.63 71.62 17.85 71.64"/>
  <path class="cls-2" d="M16.8,44.84l-2.62,5.9,2.31,1.03,2.33-5.25c.34-.76.73-1.22,1.12-1.35.4-.14.97-.05,1.73.29l.93.42c.77.33,1.23.71,1.39,1.1.15.4.05.96-.28,1.71l-2.18,4.86c-.32.76-.7,1.21-1.08,1.38-.39.14-.98.05-1.75-.29l-.23-.11.27-1.43,1.35.6,2.76-6.21-2.5-1.12-2.34,5.24c-.33.75-.7,1.2-1.09,1.36-.39.15-.97.05-1.74-.28l-.71-.32c-.8-.34-1.26-.73-1.41-1.1-.13-.41-.05-.98.29-1.73l1.98-4.42c.31-.73.67-1.17,1.05-1.35.39-.18.93-.11,1.65.2l.17.08-.2,1.35-1.2-.55Z"/>
  <path class="cls-7" d="M16.8,44.84l.2.09-2.53,5.7,1.91.85,2.24-5.05c.35-.78.75-1.29,1.25-1.46l.07.21-.07-.21.48-.08c.4,0,.87.13,1.42.37l.92.42-.09.2.08-.2c.8.35,1.3.73,1.51,1.22h0s.09.5.09.5c0,.4-.13.85-.36,1.39l-2.18,4.86-.2-.09.2.09c-.34.79-.73,1.29-1.2,1.5h0s0,0,0,0l-.47.07c-.41,0-.88-.12-1.44-.37h0s-.24-.11-.24-.11l-.15-.08.3-1.6.05-.27,1.4.62,2.58-5.8-2.1-.94-2.25,5.04c-.34.77-.72,1.27-1.21,1.48h0s0,0,0,0l-.49.08c-.4,0-.86-.13-1.42-.37l-.71-.32.09-.2-.09.2c-.83-.36-1.33-.75-1.52-1.22h0s0-.02,0-.02l-.07-.48c0-.4.12-.86.37-1.41l1.98-4.43.2.09-.2-.09c.33-.75.7-1.25,1.16-1.46.18-.08.37-.11.58-.11.36,0,.77.11,1.25.31h0s.17.09.17.09l.14.07-.22,1.5-.04.29-1.47-.67.09-.2.2.09-.2-.09.09-.2.93.43.13-.9h-.03s.1-.21.1-.21l-.08.2c-.45-.19-.81-.27-1.08-.27l-.4.08c-.29.13-.64.53-.93,1.23h0s-1.98,4.43-1.98,4.43c-.23.51-.33.92-.33,1.23l.05.35-.21.07.21-.08c.11.29.51.66,1.29.98l.71.33-.09.2.09-.2c.52.23.94.33,1.24.33l.34-.05.08.21-.08-.21c.3-.12.66-.51.97-1.24l2.43-5.44,2.9,1.3-2.94,6.61-1.29-.58-.19.99.08.04-.1.2.09-.2c.52.23.95.33,1.26.33l.33-.05.07.21-.08-.2c.3-.13.65-.53.97-1.27l2.18-4.87c.22-.5.33-.91.33-1.21l-.06-.33.2-.08-.2.09c-.12-.3-.53-.66-1.28-.98h0s-.92-.42-.92-.42c-.51-.23-.93-.34-1.23-.34l-.33.05h0c-.29.09-.67.49-.99,1.23l-2.42,5.45-2.72-1.21,2.8-6.3.21.1-.09.2Z"/>
  <polygon class="cls-2" points="26.54 43.35 19.26 37.85 24.54 30.83 25.53 31.56 21.15 37.37 23.19 38.91 25.85 35.37 26.81 36.08 24.15 39.63 26.46 41.37 30.88 35.5 31.88 36.27 26.54 43.35"/>
  <polygon class="cls-7" points="26.54 43.35 26.4 43.52 18.95 37.89 24.5 30.52 25.66 31.39 25.84 31.52 21.46 37.32 23.15 38.6 25.8 35.06 26.94 35.9 27.11 36.03 24.45 39.59 26.42 41.06 30.83 35.2 32.02 36.1 32.19 36.23 26.58 43.66 26.4 43.52 26.54 43.35 26.36 43.21 31.58 36.31 30.92 35.81 26.5 41.68 23.84 39.67 26.5 36.13 25.89 35.67 23.24 39.22 20.84 37.41 25.22 31.61 24.58 31.13 19.57 37.81 26.67 43.17 26.54 43.35 26.36 43.21 26.54 43.35"/>
  <path class="cls-2" d="M34.82,23.15l-4.87,4.08,4.28,5.06,4.84-4.06-1.47-1.76,1.37-.73.71.82c.53.66.8,1.19.76,1.61-.04.42-.38.87-1.01,1.4l-3.92,3.29c-.61.54-1.14.79-1.58.77-.42-.06-.9-.4-1.43-1.05l-3.11-3.68c-.52-.64-.78-1.18-.75-1.59.05-.43.37-.9,1.02-1.44l3.91-3.29c.63-.52,1.16-.78,1.56-.75.41.03.9.4,1.45,1.04l.56.67-.99,1.19-1.32-1.59Z"/>
  <path class="cls-7" d="M34.82,23.15l.14.17-4.7,3.93,3.99,4.73,4.5-3.78-1.5-1.79,1.61-.86.15-.08.82.96h0s0,0,0,0c.51.63.81,1.16.81,1.67v.11c-.05.52-.45,1.01-1.09,1.55l-3.92,3.29-.14-.17.15.17c-.61.53-1.16.82-1.67.82h-.06s-.01,0-.01,0h0c-.52-.08-1.02-.46-1.57-1.13l.17-.14-.17.14-3.12-3.68c-.5-.62-.8-1.16-.8-1.66v-.08s0,0,0,0h0c.07-.53.43-1.04,1.1-1.59l.14.17-.14-.17,3.91-3.29h0c.62-.51,1.15-.8,1.65-.81h.07s0,0,0,0h0c.52.06,1.03.46,1.6,1.11l.56.67.12.14-1.11,1.33-.17.2-1.49-1.8.17-.14.14.17-.14-.17.17-.14,1.15,1.39.7-.85-.44-.53.17-.14-.17.14c-.53-.63-1.01-.94-1.3-.96l.02-.22v.22s-.06,0-.06,0c-.3,0-.78.22-1.37.7l-3.91,3.29c-.63.51-.9.95-.94,1.29l-.22-.03h.22s0,.06,0,.06c0,.31.22.8.7,1.38l-.17.14.17-.14,3.12,3.68h0c.51.64.96.94,1.29.97l-.03.22v-.22s.05,0,.05,0c.34,0,.82-.22,1.38-.71l3.92-3.3c.62-.51.92-.95.94-1.25v-.07c0-.31-.22-.79-.71-1.39l.17-.14-.17.14-.59-.69-.97.52,1.44,1.71-5.18,4.35-4.56-5.4,5.21-4.36.14.17-.17.14Z"/>
  <path class="cls-2" d="M41.14,17.41l3.44,7.06,5.97-2.92-3.44-7.05,1.36-.66,3.05,6.26c.36.76.49,1.33.36,1.74-.14.39-.58.77-1.33,1.14l-4.87,2.36c-.72.36-1.29.48-1.71.34-.39-.13-.77-.59-1.15-1.34l-3.05-6.26,1.38-.67Z"/>
  <path class="cls-7" d="M41.14,17.41l.2-.1,3.34,6.86,5.57-2.72-3.44-7.06,1.56-.75.2-.1,3.14,6.45c.28.58.43,1.07.43,1.49l-.06.42h0c-.18.49-.67.89-1.44,1.27l-4.87,2.36h0c-.55.27-1.02.42-1.44.42l-.44-.07c-.5-.18-.89-.68-1.28-1.45h0s-3.15-6.47-3.15-6.47l1.58-.76.2-.1.1.2-.2.1.1.2-1.18.57,2.95,6.06-.2.1.2-.1c.37.73.74,1.14,1.03,1.23l.3.04c.31,0,.73-.12,1.24-.38l4.87-2.36c.72-.35,1.12-.73,1.22-1.01l.21.08-.21-.07.04-.29c0-.32-.12-.76-.38-1.3l-2.95-6.06-.96.47,3.44,7.05-6.37,3.11-3.54-7.26.2-.1.1.2-.1-.2Z"/>
  <path class="cls-2" d="M56.27,20.57l-2.2-8.85,7.14-1.78c.65-.16,1.16-.14,1.53.06.37.19.61.57.75,1.2l.51,1.97c.16.6.12,1.08-.12,1.41-.23.36-.67.6-1.32.77l-1.3.33,4.91,2.43-2.21.55-4.46-2.55-2.61.65.87,3.44-1.48.37ZM60.9,11.22l-5.08,1.28.76,3.12,5.09-1.27c.35-.1.59-.22.7-.38.11-.17.12-.41.03-.78l-.31-1.27c-.1-.36-.23-.57-.4-.66-.17-.09-.43-.09-.79-.03"/>
  <path class="cls-7" d="M56.27,20.57l-.22.05-2.26-9.06,7.36-1.84c.3-.08.58-.12.83-.12.32,0,.61.06.85.19l-.1.19.1-.2c.46.23.72.69.87,1.35l.51,1.97c.07.26.1.5.1.72,0,.33-.08.64-.25.88l-.18-.13.19.12c-.28.44-.78.69-1.46.86l-.72.18,4.91,2.43-2.88.72-4.46-2.55-2.31.58.87,3.44-1.7.42-.21.05-.06-.21.22-.05-.05-.21,1.26-.31-.87-3.44,2.91-.73,4.46,2.55,1.54-.39-4.91-2.43,1.88-.47c.63-.16,1.02-.38,1.19-.67h0s0-.01,0-.01c.11-.15.17-.35.17-.62,0-.18-.03-.38-.09-.61l-.5-1.97c-.15-.6-.35-.91-.64-1.06h0c-.17-.09-.38-.14-.64-.14-.21,0-.45.03-.73.1l-6.93,1.73,2.15,8.64-.21.05-.05-.21.05.21ZM60.9,11.22l.05.22-4.87,1.22.66,2.68,4.88-1.21.05.21-.06-.21c.32-.09.52-.21.57-.29l.18.13-.19-.12.05-.23-.06-.38-.31-1.27c-.09-.33-.2-.48-.29-.52h0s-.26-.05-.26-.05l-.39.04-.04-.22.05.22-.05-.22-.04-.22.46-.05.47.1-.11.19.1-.19c.26.14.41.42.51.8l.31,1.28c.04.18.07.34.07.48l-.13.47h0s0,0,0,0c-.17.23-.45.35-.82.46h0l-5.31,1.32-.87-3.54,5.29-1.33h0l.04.22Z"/>
  <polygon class="cls-2" points="68.81 18.24 68.18 9.13 69.69 9.03 70.32 18.12 68.81 18.24"/>
  <polygon class="cls-7" points="68.81 18.24 68.59 18.26 67.95 8.92 69.68 8.81 69.9 8.8 70.56 18.32 68.83 18.46 68.61 18.48 68.59 18.26 68.81 18.24 68.79 18.02 70.09 17.91 69.49 9.27 68.41 9.34 69.03 18.23 68.81 18.24 68.79 18.02 68.81 18.24"/>
  <polygon class="cls-2" points="78.45 10.43 77.89 18.31 76.37 18.19 76.93 10.32 72.75 10.03 72.84 8.8 82.71 9.49 82.62 10.72 78.45 10.43"/>
  <polygon class="cls-7" points="78.45 10.43 78.67 10.45 78.1 18.54 76.35 18.41 76.14 18.39 76.69 10.53 72.52 10.24 72.62 8.78 72.63 8.56 82.94 9.28 82.84 10.73 82.83 10.95 78.44 10.65 78.45 10.43 78.67 10.45 78.45 10.43 78.47 10.21 82.42 10.48 82.47 9.69 73.05 9.04 72.99 9.83 77.17 10.11 76.61 17.98 77.69 18.07 78.25 10.2 78.47 10.21 78.45 10.43"/>
  <polygon class="cls-2" points="86.65 19.68 87.69 15.84 84.53 9.67 86.37 10.17 88.76 15.03 93.12 11.98 94.92 12.45 89.16 16.21 88.11 20.08 86.65 19.68"/>
  <polygon class="cls-7" points="86.65 19.68 86.44 19.62 87.45 15.87 84.11 9.33 86.52 9.98 88.84 14.7 93.07 11.74 94.97 12.24 95.45 12.36 89.36 16.35 88.26 20.35 86.6 19.89 86.38 19.84 86.44 19.62 86.65 19.68 86.72 19.47 87.95 19.81 88.97 16.07 94.38 12.54 93.16 12.22 88.67 15.36 86.22 10.35 84.96 10.01 87.93 15.82 86.87 19.74 86.65 19.68 86.72 19.47 86.65 19.68"/>
  <polygon class="cls-2" points="102.65 26.48 103.44 16.11 104.83 17.01 104.05 25.58 111.45 21.29 112.72 22.12 103.72 27.17 102.65 26.48"/>
  <polygon class="cls-7" points="102.65 26.48 102.43 26.46 103.24 15.72 105.06 16.9 104.31 25.18 111.46 21.03 112.83 21.93 113.14 22.13 103.72 27.43 102.53 26.67 102.42 26.59 102.43 26.46 102.65 26.48 102.77 26.29 103.73 26.91 112.29 22.1 111.44 21.55 103.79 25.99 104.59 17.12 103.63 16.5 102.87 26.5 102.65 26.48 102.77 26.29 102.65 26.48"/>
  <polygon class="cls-2" points="109.38 31.34 115.73 24.78 122.06 30.89 121.2 31.77 115.98 26.71 114.22 28.55 117.41 31.63 116.56 32.49 113.36 29.42 111.35 31.51 116.64 36.61 115.76 37.5 109.38 31.34"/>
  <polygon class="cls-7" points="109.38 31.34 109.22 31.19 115.73 24.47 122.37 30.89 121.36 31.92 121.2 32.08 115.99 27.02 114.53 28.55 117.73 31.63 116.72 32.65 116.56 32.8 113.36 29.73 111.66 31.5 116.96 36.61 115.91 37.65 115.76 37.81 109.07 31.35 109.22 31.19 109.38 31.34 109.53 31.18 115.75 37.19 116.33 36.61 111.04 31.52 113.35 29.11 116.55 32.19 117.1 31.63 113.91 28.56 115.98 26.39 121.2 31.46 121.75 30.9 115.74 25.09 109.54 31.49 109.38 31.34 109.53 31.18 109.38 31.34"/>
  <path class="cls-2" d="M117.45,39.94l7.66-4.96,4.01,6.17c.37.56.5,1.05.43,1.46-.05.4-.35.78-.88,1.11l-1.7,1.11c-.5.34-.98.46-1.39.36-.39-.12-.76-.45-1.13-1.01l-.74-1.13-.7,5.44-1.23-1.9.96-5.06-1.47-2.25-2.97,1.93-.84-1.28ZM127.8,41.29l-2.85-4.4-2.68,1.75,2.85,4.39c.19.3.4.49.59.54.18.04.44-.02.74-.22l1.12-.72c.28-.19.46-.39.48-.59.04-.19-.04-.45-.23-.75"/>
  <path class="cls-7" d="M117.45,39.94l-.12-.19,7.84-5.08,4.13,6.36c.32.49.49.95.49,1.37l-.02.25-.22-.04.22.02c-.06.5-.42.93-.99,1.28l-.11-.19.12.19-1.7,1.11-.12-.18.12.18c-.42.28-.83.43-1.23.43l-.34-.04h0s0,0,0,0c-.47-.14-.87-.52-1.25-1.1l-.41-.63-.7,5.45-1.61-2.48.96-5.05-1.31-2-2.97,1.94-.95-1.47-.12-.18.18-.12.12.19.19-.12.72,1.09,2.97-1.93,1.64,2.51-.96,5.05.86,1.32.7-5.44,1.06,1.64c.36.54.7.83,1.01.92l-.06.21.05-.22.23.03c.28,0,.62-.11.99-.36l1.7-1.12h0c.51-.32.75-.64.79-.95h0s0-.01,0-.01v-.18c.01-.31-.11-.69-.4-1.13l-3.9-5.99-7.47,4.84-.12-.18.19-.12-.19.12ZM127.8,41.29l-.19.12-2.73-4.21-2.31,1.51,2.72,4.21c.18.28.36.42.46.45l-.06.21.05-.21h.07c.11,0,.29-.04.5-.19h0s1.12-.72,1.12-.72l.12.18-.12-.18c.26-.17.38-.36.38-.43h0s0-.02,0-.02v-.06c0-.11-.05-.3-.2-.52l.19-.12.18-.12c.18.27.28.52.28.76l-.02.15-.21-.05.22.03c-.05.31-.27.54-.58.75h0s-1.12.72-1.12.72l-.12-.18.12.18c-.27.18-.52.27-.75.27l-.16-.02h-.01c-.28-.08-.5-.31-.71-.63l-2.97-4.58,3.06-1.99,2.97,4.58-.18.12Z"/>
  <polygon class="cls-2" points="123.86 50.97 132.19 47.26 132.81 48.64 124.48 52.37 123.86 50.97"/>
  <polygon class="cls-7" points="123.86 50.97 123.76 50.77 132.31 46.97 133.01 48.55 133.1 48.75 124.36 52.66 123.65 51.06 123.56 50.86 123.76 50.77 123.86 50.97 124.05 50.88 124.59 52.07 132.52 48.53 132.08 47.55 123.95 51.17 123.86 50.97 124.05 50.88 123.86 50.97"/>
  <polygon class="cls-2" points="125.91 56.14 134.73 53.78 136.97 62.17 135.77 62.49 133.93 55.57 131.03 56.34 132.09 60.29 130.92 60.6 129.86 56.66 126.31 57.6 125.91 56.14"/>
  <polygon class="cls-7" points="125.91 56.14 125.85 55.93 134.89 53.51 137.24 62.33 135.83 62.7 135.62 62.76 133.77 55.84 131.3 56.49 132.36 60.44 130.98 60.81 130.76 60.87 129.7 56.93 126.15 57.87 125.69 56.2 125.63 55.99 125.85 55.93 125.91 56.14 126.12 56.08 126.46 57.33 130.01 56.39 131.08 60.33 131.82 60.13 130.76 56.18 134.08 55.3 135.93 62.22 136.7 62.01 134.58 54.05 125.96 56.35 125.91 56.14 126.12 56.08 125.91 56.14"/>
  <polygon class="cls-2" points="128.17 66.44 137.24 65.32 137.42 66.84 128.37 67.96 128.17 66.44"/>
  <polygon class="cls-7" points="128.17 66.44 128.15 66.22 137.43 65.08 137.64 66.81 137.66 67.03 128.18 68.2 127.95 66.47 127.92 66.25 128.15 66.22 128.17 66.44 128.39 66.42 128.56 67.71 137.17 66.65 137.05 65.57 128.2 66.66 128.17 66.44 128.39 66.42 128.17 66.44"/>
  <path class="cls-2" d="M136.31,79.99l.22-6.33-6.62-.24-.22,6.35,2.26.07-.35,1.5-1.08-.04c-.84-.03-1.4-.19-1.7-.5-.27-.3-.41-.86-.38-1.69l.18-5.11c.03-.82.18-1.38.49-1.67.32-.29.89-.41,1.73-.39l4.79.16c.83.03,1.41.21,1.7.51.29.32.42.88.4,1.72l-.18,5.1c-.04.84-.2,1.39-.51,1.66-.31.3-.88.42-1.75.4l-.85-.05-.23-1.52,2.07.06Z"/>
  <path class="cls-7" d="M136.31,79.99h-.22s.21-6.11.21-6.11l-6.18-.22-.2,5.91,2.04.07h.27s-.41,1.77-.41,1.77l-.04.17-1.27-.04c-.86-.03-1.48-.19-1.85-.56h0s0,0,0,0c-.3-.34-.44-.88-.44-1.6v-.25s.19-5.11.19-5.11c.03-.84.18-1.45.56-1.83h0c.37-.33.92-.45,1.67-.45h.21s4.8.16,4.8.16c.86.03,1.49.21,1.85.58h0s0,0,0,0c.33.37.46.92.46,1.68v.2s-.18,5.1-.18,5.1c-.04.86-.2,1.46-.58,1.82l-.15-.16.15.16c-.38.36-.97.46-1.8.46h-.11l-.85-.05h-.18s-.25-1.7-.25-1.7l-.04-.26,2.33.07v.22s-.23,0-.23,0h.22s0,.23,0,.23l-1.81-.05.16,1.08.67.04v.22s0-.22,0-.22h.09c.79,0,1.28-.12,1.5-.34h0c.23-.2.4-.7.44-1.51l.18-5.1v-.18c0-.71-.13-1.15-.34-1.38l.16-.15-.16.15c-.22-.23-.75-.42-1.55-.44l-4.79-.16h-.2c-.71,0-1.16.13-1.38.33l-.14-.17.15.16c-.24.22-.4.72-.42,1.52l-.18,5.11v.24c0,.67.14,1.11.32,1.3l-.16.15.16-.15c.21.23.73.41,1.55.43l.9.03.24-1.06-1.99-.07h-.22s.23-6.8.23-6.8l7.06.26-.24,6.77h-.22s0-.23,0-.23Z"/>
  <path class="cls-2" d="M128.06,82.78l7.53,7.18-.41,1.57-10.15,2.55.45-1.62,2.47-.54,1.58-5.96-1.87-1.72.4-1.45ZM130.51,86.85l-1.28,4.75,5.16-1.17-3.88-3.59Z"/>
  <path class="cls-7" d="M128.06,82.78l.15-.16,7.62,7.27-.44,1.69-.03.13-10.64,2.67.55-1.99.04-.13,2.47-.54,1.52-5.7-1.87-1.72.43-1.58.1-.36.26.26-.15.16.21.06-.36,1.32,1.87,1.71-1.65,6.22-2.48.54-.31,1.13,9.65-2.42.35-1.32-7.43-7.09.15-.16.21.06-.21-.06ZM130.51,86.85l.21.06-1.19,4.4,4.4-.99-3.57-3.3.15-.16.21.06-.21-.06.15-.16,4.19,3.87-5.93,1.34,1.47-5.46.27.25-.15.16Z"/>
  <polygon class="cls-2" points="129.36 102.69 122.26 99.23 122.93 97.86 130.03 101.32 131.85 97.57 132.97 98.11 128.64 107 127.52 106.46 129.36 102.69"/>
  <polygon class="cls-7" points="129.36 102.69 129.26 102.89 121.97 99.34 122.74 97.76 122.83 97.56 129.93 101.02 131.75 97.27 133.07 97.92 133.27 98.01 128.74 107.29 127.43 106.66 127.23 106.56 129.16 102.6 129.36 102.69 129.26 102.89 129.36 102.69 129.56 102.79 127.82 106.36 128.54 106.7 132.67 98.22 131.95 97.86 130.14 101.61 123.04 98.16 122.56 99.13 129.66 102.59 129.56 102.79 129.36 102.69"/>
  <polygon class="cls-2" points="119.1 104.38 126.58 109.63 125.7 110.86 118.23 105.62 119.1 104.38"/>
  <polygon class="cls-7" points="119.1 104.38 119.23 104.2 126.89 109.57 125.88 110.99 125.75 111.17 117.92 105.68 118.92 104.26 119.05 104.08 119.23 104.2 119.1 104.38 119.28 104.51 118.54 105.57 125.65 110.56 126.27 109.68 118.98 104.57 119.1 104.38 119.28 104.51 119.1 104.38"/>
  <path class="cls-2" d="M120.91,113.94c.58.62.86,1.12.86,1.55-.01.41-.31.92-.89,1.5l-4.56,4.4c-.58.57-1.09.84-1.52.83-.42-.02-.92-.31-1.51-.92l-3.34-3.46c-.59-.61-.88-1.12-.88-1.55.01-.42.3-.91.9-1.49l4.56-4.39c.6-.58,1.1-.85,1.52-.85.42,0,.93.31,1.49.93l3.36,3.44ZM115.84,110.9l-5.42,5.25,4.59,4.75,5.44-5.24-4.61-4.76Z"/>
  <path class="cls-7" d="M120.91,113.94l.16-.15c.59.63.92,1.17.92,1.7h0c-.02.52-.36,1.06-.96,1.66l-4.56,4.4c-.6.57-1.13.89-1.65.9h-.03,0c-.52-.03-1.05-.37-1.65-.99l-3.34-3.46c-.6-.62-.93-1.17-.94-1.7h0c.02-.53.35-1.05.96-1.65l4.56-4.39c.62-.59,1.15-.91,1.68-.91h0c.53.02,1.06.37,1.65,1l-.17.15.16-.15,3.36,3.45h0l-.16.15-.16.15-3.37-3.45h0c-.54-.6-1.01-.86-1.33-.86v-.22s0,.22,0,.22c-.33,0-.79.23-1.37.79l-4.55,4.39c-.59.56-.83,1.01-.83,1.33h-.22s.22,0,.22,0c0,.33.24.81.81,1.39l3.34,3.46c.57.59,1.03.84,1.36.85v.22s0-.22,0-.22h0c.32,0,.79-.23,1.35-.77l4.56-4.39c.57-.55.82-1.03.83-1.35h.22s-.22,0-.22,0c0-.32-.24-.8-.8-1.4l.16-.15-.16.15.16-.15ZM115.84,110.9l.15.16-5.26,5.1,4.29,4.43,5.12-4.94-4.46-4.6.16-.15.15.16-.15-.16.16-.15,4.77,4.92-5.76,5.55-4.9-5.07,5.73-5.55.15.16-.16.15Z"/>
  <path class="cls-2" d="M105.35,118.75l4.7,7.83-.79.49-9.01-1.72c-.45-.08-.94-.23-1.5-.44.38.44.82,1.05,1.29,1.85l2.57,4.3-1.2.71-4.7-7.82.72-.43,9.29,1.82c.35.07.55.11.58.12.26.07.51.16.73.3-.33-.43-.7-.99-1.12-1.66l-2.76-4.61,1.19-.73Z"/>
  <path class="cls-7" d="M105.35,118.75l.19-.11,4.82,8.02-.98.61-.07.04-9.09-1.74.04-.22-.04.22c-.47-.08-.97-.24-1.53-.45l.08-.21.16-.14c.39.45.83,1.07,1.32,1.88l2.68,4.49-1.39.82-.19.11-4.93-8.2.91-.54.07-.04,9.37,1.84h0c.35.07.52.1.6.12l-.07.21.06-.21c.27.08.53.17.79.32l-.11.19-.17.14c-.35-.44-.71-1-1.13-1.68h0s-2.88-4.8-2.88-4.8l1.37-.85.19-.12.12.19-.19.11.11.19-1,.62,2.65,4.42-.19.11.19-.12c.42.67.78,1.22,1.11,1.64l-.29.32c-.2-.12-.43-.2-.68-.27h0s0,0,0,0c-.05-.01-.25-.05-.56-.11l.05-.22-.04.22-9.2-1.81-.46.27,4.47,7.45.82-.48-2.46-4.11c-.47-.79-.91-1.39-1.27-1.82l.24-.35c.55.2,1.03.36,1.46.43l8.93,1.71.54-.33-4.59-7.64.19-.11.11.19-.11-.19Z"/>
</svg>