<svg xmlns="http://www.w3.org/2000/svg" xmlns:xlink="http://www.w3.org/1999/xlink" viewBox="0 0 139.22 152.28"><defs><clipPath id="a" transform="translate(-442.03 -447.72)"><path d="M513.79,572.67a388.49,388.49,0,0,0-44.26,14,11.85,11.85,0,0,1-.06,2.61,1.07,1.07,0,0,0,1.41.75s16.4-8.29,45.77-17.85l2.67-.86q-2.7.67-5.52,1.39M573.09,561l1.8-.39a1.29,1.29,0,0,0,.82-1.52S569,545,562.5,519.61c4,22.17,8.84,36.58,10.59,41.39m-18.56-97.67A386,386,0,0,1,509,476.13c-27.49,6.12-51.65,8.91-51.65,8.91a1.29,1.29,0,0,0-1,1.4s3.36,5.53,7.3,27.7c-.79.26-1.62.55-2.43.85-4.77-19.76-8.53-27.51-9.43-29.39l-2,.52c-.62.23-1.19.9-.8,1.52,0,0,4.31,5.24,11.41,27.64a36.48,36.48,0,0,0-3.46,1.53c-2.33,1.19-3.27,2.93-2.82,4.78s3.31,2.36,4.21,2.36h.05a22.06,22.06,0,0,0,4.23-.67l.32-.08.16,0,1.85-.49c.65,4.12,1.21,8.31,1.86,13.36C472,575.81,470,581.53,470,581.53a1.07,1.07,0,0,0,1.33.88s17.11-6.7,47.23-13.43,49.91-8.26,49.91-8.26a1.29,1.29,0,0,0,1-1.41s-5.08-14.85-8.36-41.76c.17-.15.34-.3.5-.47l0,0c2.83-2.85,3.85-5.37,4-6.75a7.53,7.53,0,0,0-1-5.78c-1-1.15-2.25-1.94-5-1.69h0c-2.7-27-3.78-38.61-3.78-38.61a1.06,1.06,0,0,0-1.07-.91l-.26,0m-.84-7.53a386.19,386.19,0,0,1-44.27,16.6l-4.24,1.31c2.35-.54,4.73-1.11,7.15-1.71A408.65,408.65,0,0,0,555.52,459l-.43-2.38a1.05,1.05,0,0,0-1-.82,1.15,1.15,0,0,0-.36.06" style="fill:none"/></clipPath><radialGradient id="b" cx="218.1" cy="898.81" r="1.59" gradientTransform="matrix(105.58, 0, 0, -105.07, -22908.88, 94451.44)" gradientUnits="userSpaceOnUse"><stop offset="0" stop-color="#00b1af"/><stop offset="0.09" stop-color="#00b1af"/><stop offset="0.59" stop-color="#007bc2"/><stop offset="1" stop-color="#007bc2"/></radialGradient></defs><title>Hasbro logo</title><path d="M581.09,557.82a3.1,3.1,0,0,0-.19-.5c-.07-.14-7.19-14.63-14.27-40.49l-.36-1.19a12.19,12.19,0,0,0,2.18-7,9.27,9.27,0,0,0-1.88-6,7.67,7.67,0,0,0-2.89-2.08l-.6-3.49c-3.15-26.15-4.37-36.28-4.49-37.94s-.33-4.06-.52-5.79a22,22,0,0,0-.53-2.63,4,4,0,0,0-2-2.56,4,4,0,0,0-3.24-.23,2.77,2.77,0,0,0-.36.16c-.17.09-17.52,9.56-44.6,19.66-12.06,4.73-19.58,7.92-34.88,11.13-12.8,2.45-21.86,4-22,4l-5,.9c-.09,0-.5.16-.59.2a4.66,4.66,0,0,0-2.65,2.83,3.94,3.94,0,0,0-.19,1.28,3.83,3.83,0,0,0,.61,2c.06.09.15.21.22.3s4.15,5.28,11.07,25.1a6.5,6.5,0,0,0-2.49,6.8c.85,3.59,4.91,4.54,6.95,4.54h.19l.72-.05,1.08,2.25c.61,3.66,1.17,7.35,1.69,10.86,3.57,24,4.45,36.14,4.58,42.08.08,3.86-.61,13.33-.62,13.61a5.26,5.26,0,0,0,0,1.4,4,4,0,0,0,2,2.55,4.08,4.08,0,0,0,3.33.13,2.63,2.63,0,0,0,.4-.19c.17-.1,16.91-9.62,46.22-21,.24-.1,17.72-7.45,25.25-9.46,17.12-4.57,24.59-4.59,28-4.91.64-.06,4.19-.3,5.08-.45a10.27,10.27,0,0,0,1.77-.49l.39-.13a4.47,4.47,0,0,0,2.54-5.28" transform="translate(-442.03 -447.72)" style="fill:#fff;fill-rule:evenodd"/><path d="M458.63,526.87h0" transform="translate(-442.03 -447.72)" style="fill:#fff;fill-rule:evenodd"/><g style="clip-path:url(#a)"><rect x="6.63" y="8.03" width="127.21" height="134.44" style="fill:url(#b)"/></g><path d="M468.84,513.34s-8,2.19-11.65,4.18c-1.42.71-4.59,3.92.75,3.92a21.68,21.68,0,0,0,4.47-.75l7.19-1.9,1.2,7.93s.22,1.31.36,1.74c0,0,.27,2.25,2.09,1.94a14,14,0,0,0,3.81-.64c.29-.13,1-.3.69-1.41,0-.55-1.82-11.17-1.82-11.17l6.25-1.54,1.69,10.69s.32,2.45,2.25,2a9.67,9.67,0,0,0,2.89-.76c.22-.14.72-.31.12-1.41a73.62,73.62,0,0,1-2.45-11.39c.41-.07,7.43-1.29,7.16-1a16,16,0,0,0-3.42,5.51c-.8,1.69,0,6.89,5.09,5.46a10.62,10.62,0,0,0,5.24-3.85,4.74,4.74,0,0,0,5.75,3c.43-.12,1.08-.2.43-.74-.32-.2-1.9-1-1.82-4.19a54,54,0,0,1,.85-6.2c0-.32.13-1.47-1.13-1.19a10.14,10.14,0,0,0-3.2,1.51,2,2,0,0,0-.85,1.46c-.17.52-1.95,5.92-4.83,7.84-.5.31-1.44.95-1.49-.37-.06-.71.54-4.7,5.54-9.08a12.25,12.25,0,0,1,2.66-1.72c.49-.08,1-.7.1-1,0,0-1.59-.39-6.89.35-.52.07-4.85.63-9.47,1.6a79.18,79.18,0,0,1-.16-11.13c.07-.69.81-3.12-1.65-2.71a12.2,12.2,0,0,0-4.11,1.19c-.33.19-.78.34-.27.69a2.57,2.57,0,0,1,.66,1.9c.05.5,1,11.08,1,11.08l-6.28,1.61s-1.18-8.85-1.24-12.59c0-.62.33-3.2-2.49-2.24a16.5,16.5,0,0,0-5.56,2.46s-1.15.67,0,.95a1.75,1.75,0,0,1,1,1.45c.12.6,1.55,8.48,1.55,8.48m-8.27,5c-.77.06-.51-.55-.12-.77,3-1.87,8.51-3.22,8.51-3.22l.31,2.11a48.36,48.36,0,0,1-8.7,1.88M519.72,509s.33.11.28-.39a3.52,3.52,0,0,0-1.58-2.93,2.72,2.72,0,0,0-2.42,0c-.43.16-5.8,2.09-8.34,6.75-.19.41-1.88,4,1.34,5a31,31,0,0,0,3.86.83s4.58.42,1.86,4.19a23.6,23.6,0,0,1-4.39,4.51,4.21,4.21,0,0,1-4.52.48c-.37-.16-1.07-.36-.82.49a8.56,8.56,0,0,0,3,3.22c.39.17,1.58,1.15,5.54-1,.85-.43,5.23-3.74,7-7.46.24-.67,1.65-3.91-1.42-5-.93-.38-3.4-.91-4.06-1.08-1.21-.33-4.78-1-2.5-4.14a11.46,11.46,0,0,1,7.13-3.38m-2.36-11.19s-.58.26.17.48a3.67,3.67,0,0,1,1.65,2.23,68.25,68.25,0,0,1,2.65,11.81c.09.62.84,6.61.74,8.21.06.43,0,2.38,2.84,1.65,1.95-.51,6.49-3.59,9.6-8.25.41-.48,4.24-7-3.1-6.89a11.19,11.19,0,0,0-5.37,2.17c-.08-.38-.76-8.13-1.76-11.17-.35-.68-.61-1.76-2.92-1.5a14.74,14.74,0,0,0-4.5,1.27m11.14,12.42c3.25-1.16,2.45,3.69,1.86,4.72a7.62,7.62,0,0,1-2.88,3.81l-.76-7.53a10.55,10.55,0,0,1,1.78-1M543,508.17a3.71,3.71,0,0,0-3.84-1.91,5.35,5.35,0,0,0-2.35,1.08c-.13.13-.57.66.11.73.41.06,2.38.21,2.49,2.13,0,.51.26,2.29-1.28,8.51-.12.37-.54,1.63,1,1.55a13.41,13.41,0,0,0,4.17-.74c.4-.22,1-.33.92-1.44a50.14,50.14,0,0,0-.38-7.16,7.7,7.7,0,0,1,3.4-3.69,2.16,2.16,0,0,1,2.83.2c.17.17.38.45.89,0a3.72,3.72,0,0,0,1.39-3.1c-.11-.4-.21-1.38-2.26-1.16-.6.1-3.46.29-7,5m5,6.73s-.4,4,4.19,3.66a13.34,13.34,0,0,0,8.27-3.75c.53-.53,3.18-3.15,3.54-5.84.1-.59,1.16-5.61-4.53-5.28a12.66,12.66,0,0,0-7.6,3.82c-.49.48-3.86,3.93-3.88,7.39m5-1.76c1.22-4.67,3.51-6.3,3.87-6.62,1.56-1.05,1.85-.19,2.05.17.46,1-.17,3.05-.36,3.69a10.85,10.85,0,0,1-3.63,5.46c-1.91,1.22-2-.34-2-.8a12.3,12.3,0,0,1,.11-1.91" transform="translate(-442.03 -447.72)" style="fill:#fff"/><path d="M534.79,522a1.84,1.84,0,0,1-.09.22c-2.64,5.75-9.42,10.62-10,11a38,38,0,0,1-13.89,6.36,48.69,48.69,0,0,1-15.31,1.29c1.69,5.39,10.51,8.85,10.86,9a24.67,24.67,0,0,0,17.94.37,16.36,16.36,0,0,0,9.83-9.46A28.18,28.18,0,0,0,535.54,527a22.15,22.15,0,0,0-.56-3.23c-.11-.72.69-.6.7-.16a36.33,36.33,0,0,1,1.43,9.89c0,6.92-2,10-2.33,10.69a17.44,17.44,0,0,1-6.65,7.25c-5.87,3.86-12.89,3.48-14,3.44a31,31,0,0,1-17.72-6.35c-6.56-5.14-7.13-11.63-7.14-12s.09-.24.82-.07a41.89,41.89,0,0,0,21.76-.13,39.91,39.91,0,0,0,22.25-14.47c.52-.79.86-.11.68.17" transform="translate(-442.03 -447.72)" style="fill:#fff"/></svg>