<svg width="40" height="40" viewBox="0 0 40 40" fill="none" xmlns="http://www.w3.org/2000/svg">
<path d="M13.4875 4.375C8.46317 4.375 4.375 8.46559 4.375 13.4912V26.5112C4.375 31.5362 8.46559 35.625 13.4912 35.625H26.5112C31.5362 35.625 35.625 31.5344 35.625 26.5088V13.4875C35.625 8.46317 31.5344 4.375 26.5088 4.375H13.4875ZM29.375 9.375C30.065 9.375 30.625 9.935 30.625 10.625C30.625 11.315 30.065 11.875 29.375 11.875C28.685 11.875 28.125 11.315 28.125 10.625C28.125 9.935 28.685 9.375 29.375 9.375ZM20 11.875C24.4813 11.875 28.125 15.5188 28.125 20C28.125 24.4813 24.4806 28.125 20 28.125C15.5188 28.125 11.875 24.4806 11.875 20C11.875 15.5194 15.5188 11.875 20 11.875ZM20 14.375C16.8931 14.375 14.375 16.8931 14.375 20C14.375 23.1069 16.8931 25.625 20 25.625C23.1069 25.625 25.625 23.1069 25.625 20C25.625 16.8931 23.1069 14.375 20 14.375Z" fill="white"/>
</svg>
