<?xml version="1.0" encoding="UTF-8"?>
<svg id="Layer_2" data-name="Layer 2" xmlns="http://www.w3.org/2000/svg" viewBox="0 0 452.01 207.54">
  <defs>
    <style>
      .cls-1 {
        fill: #000;
      }

      .cls-1, .cls-2 {
        stroke-width: 0px;
      }

      .cls-2 {
        fill: #d74734;
      }
    </style>
  </defs>
  <g id="Layer_1-2" data-name="Layer 1">
    <path class="cls-2" d="M232.77.36c77.44,2.11,117.89,23.78,123.08,46.79,6.3,20.75-9.56,33.51-29.46,33.58-18.12.48-38.85-16.33-34.18-23.2,1.9-2.61,5.77-1.72,8.24.48,3.09,1.85,9.06,9.75,13.86,3.64,2.95-5.77-2.47-16.2-8.99-23.68-10.66-10.73-26.03-15.77-39.99-17.5-57.56-11.11-133.78.56-180.67,21-27.2,12.08-53.82,32.06-65.22,61.11-10.24,26.08-4.67,60.44,23.44,80.22,19.31,15.24,53.78,12.11,72.67-4.56,19-15.44,25.78-52.11,8.89-72.33-11.45-11.38-32.39-17.58-47.56-9.22-12,5.44-26.74,22.89-22.67,41.11,2.18,9.89,15.22,17.22,26.78,13.22s15.89-16.89,14.56-21.56c-.33-1.86-1.14-3.1-2.44-4.11-2.11-1.78-3.44-1.67-5.78-3.22s1.56-11.44,12-8.78c8.89,3.11,10.95,12.82,7.67,26.44-3.89,16.14-20.78,28.22-38.44,24.33-18.41-2.98-28.68-20.48-27.33-37.89,3.22-41.59,50.28-60.75,85-37.33,24.99,16.85,29.76,52.39,13.78,81.78-13.67,25.11-42.02,40.1-79.42,36.25-30.91-4.56-49.69-25.14-59.02-60.26C-5.32,115.18,6.49,41.82,124.26,10.59,148.42,3.66,180.1-1.42,232.77.36Z"/>
    <g>
      <path class="cls-1" d="M165.61,177.12v-10.56h26.56v4.32c0,3.31.67,5.63,2,6.96,1.33,1.33,3.65,2,6.96,2h38.4c3.3,0,5.62-.67,6.96-2s2-3.65,2-6.96v-4.96c0-3.31-.64-5.54-1.92-6.72-1.28-1.17-3.63-1.92-7.04-2.24l-48.32-4.48c-8.43-.75-14.54-2.91-18.32-6.48-3.79-3.57-5.68-9.41-5.68-17.52v-15.36c0-8.32,1.95-14.4,5.84-18.24,3.89-3.84,9.95-5.76,18.16-5.76h58.56c8.21,0,14.27,1.92,18.16,5.76,3.89,3.84,5.84,9.92,5.84,18.24v8.64h-26.56v-2.4c0-3.31-.67-5.62-2-6.96-1.33-1.33-3.66-2-6.96-2h-34.56c-3.31,0-5.63.67-6.96,2-1.33,1.33-2,3.64-2,6.94v2.07c0,3.3.64,5.53,1.92,6.7,1.28,1.17,3.63,1.92,7.05,2.23l48.32,4.48c8.42.75,14.53,2.91,18.32,6.48,3.79,3.58,5.68,9.42,5.68,17.54v18.25c0,8.33-1.95,14.42-5.84,18.26-3.9,3.84-9.95,5.76-18.16,5.76h-62.4c-8.21,0-14.27-1.92-18.16-5.76-3.9-3.84-5.84-9.92-5.84-18.24Z"/>
      <path class="cls-1" d="M293.29,89.12h27.84v112h-27.84v-112Z"/>
      <path class="cls-1" d="M338.41,170.08v-49.92c0-10.67,2.53-18.5,7.6-23.52,5.06-5.01,12.88-7.52,23.44-7.52h51.52c10.56,0,18.37,2.51,23.44,7.52,5.07,5.02,7.6,12.86,7.6,23.52v7.52h-27.52v-2.72c0-4.8-.96-8.19-2.88-10.16-1.92-1.97-5.33-2.96-10.24-2.96h-32.32c-4.91,0-8.32.99-10.24,2.96-1.92,1.97-2.88,5.36-2.88,10.16v40.96c0,4.8.96,8.19,2.88,10.16,1.92,1.97,5.33,2.96,10.24,2.96h33.28c4.9,0,8.32-.99,10.24-2.96,1.92-1.97,2.88-5.36,2.88-10.16v-6.4h-28.8v-20.8h55.36v31.36c0,10.67-2.54,18.51-7.6,23.52-5.07,5.01-12.88,7.52-23.44,7.52h-51.52c-10.56,0-18.38-2.5-23.44-7.52-5.07-5.01-7.6-12.85-7.6-23.52Z"/>
    </g>
  </g>
</svg>
