<?xml version="1.0" encoding="UTF-8"?>
<svg id="Layer_2" data-name="Layer 2" xmlns="http://www.w3.org/2000/svg" viewBox="0 0 478.93 235.79">
  <defs>
    <style>
      .cls-1 {
        fill: #000;
        font-family: TacticSans-Bld, 'Tactic Sans';
        font-size: 160px;
      }

      .cls-2 {
        fill: #d74734;
        stroke-width: 0px;
      }
    </style>
  </defs>
  <g id="Layer_1-2" data-name="Layer 1">
    <path class="cls-2" d="M232.77.36c77.44,2.11,117.89,23.78,123.08,46.79,6.3,20.75-9.56,33.51-29.46,33.58-18.12.48-38.85-16.33-34.18-23.2,1.9-2.61,5.77-1.72,8.24.48,3.09,1.85,9.06,9.75,13.86,3.64,2.95-5.77-2.47-16.2-8.99-23.68-10.66-10.73-26.03-15.77-39.99-17.5-57.56-11.11-133.78.56-180.67,21-27.2,12.08-53.82,32.06-65.22,61.11-10.24,26.08-4.67,60.44,23.44,80.22,19.31,15.24,53.78,12.11,72.67-4.56,19-15.44,25.78-52.11,8.89-72.33-11.45-11.38-32.39-17.58-47.56-9.22-12,5.44-26.74,22.89-22.67,41.11,2.18,9.89,15.22,17.22,26.78,13.22s15.89-16.89,14.56-21.56c-.33-1.86-1.14-3.1-2.44-4.11-2.11-1.78-3.44-1.67-5.78-3.22s1.56-11.44,12-8.78c8.89,3.11,10.95,12.82,7.67,26.44-3.89,16.14-20.78,28.22-38.44,24.33-18.41-2.98-28.68-20.48-27.33-37.89,3.22-41.59,50.28-60.75,85-37.33,24.99,16.85,29.76,52.39,13.78,81.78-13.67,25.11-42.02,40.1-79.42,36.25-30.91-4.56-49.69-25.14-59.02-60.26C-5.32,115.18,6.49,41.82,124.26,10.59,148.42,3.66,180.1-1.42,232.77.36Z"/>
    <text class="cls-1" transform="translate(158.09 201.12)"><tspan x="0" y="0">SIG</tspan></text>
  </g>
</svg>