<?xml version="1.0" encoding="utf-8"?>
<!-- Generator: Adobe Illustrator 26.5.0, SVG Export Plug-In . SVG Version: 6.00 Build 0)  -->
<svg version="1.1" id="logo" xmlns="http://www.w3.org/2000/svg" xmlns:xlink="http://www.w3.org/1999/xlink" x="0px" y="0px"
	 viewBox="0 0 150 79" style="enable-background:new 0 0 150 79;" xml:space="preserve">
<g>
	<path style="fill:#00376B;" d="M91.6,11.4L91.6,11.4L91.6,11.4L91.6,11.4z M92.2,11.5L92.2,11.5L92.2,11.5L92.2,11.5z M90.5,12.5
		v0.2c0.2,0.1,0.2,0.1,0.4,0.2c0.1,0.1,0.1,0.3,0,0.5s0,0.3,0.1,0.4c0.1,0.1,0.3,0.1,0.4,0c0.3-0.2,0.7-0.5,1.1-0.9
		c-0.1-0.5-0.4-0.7-0.6-0.8c0-0.1,0.1-0.2,0.1-0.2c-0.2-0.1-0.3-0.3-0.5-0.4c-0.3,0.1-0.6,0.2-0.8,0.5c0,0.1,0.2,0.1,0,0.3
		C90.7,12.3,90.7,12.4,90.5,12.5z M81.3,11.8c-0.4,0-0.8,0.2-1,0.2c-0.7,0.4-1.5,1-1.3,1.2c0.2,0.3,0.9,0.2,1.3,0.3
		c0.5,0.1,0.9,0.2,1.4,0.4c0,0-0.3,0.1-0.5,0.1c-0.1,0-0.1,0.1,0,0.1c0.4,0,0.8,0,1.2-0.1c0.1,0.1-0.1,0.2-0.1,0.3
		c0.1,0,0.2,0,0.2,0.1c0.1,0,0.1-0.1,0.2-0.1c0.1,0.1,0,0.2,0,0.2c0.3,0.2,0.3,0.2,0.5-0.2c-0.1-0.1,0-0.1,0-0.1
		c-0.1,0-0.2,0.1-0.4,0.1c0.1-0.2,0.3-0.2,0.2-0.3c0,0-0.3,0.1-0.5,0.1c0,0,0,0,0-0.1c0.1-0.1,0.5-0.2,0.4-0.3c0,0-0.2,0-0.5-0.1
		c0-0.1,0.2-0.3,0.3-0.4c-0.5-0.1-0.9-0.3-1.5-0.4c0.1-0.1,0.1-0.1,0.2-0.1c0,0,0,0,0-0.1c-0.2,0-0.6,0-0.8,0c0.1-0.2,0-0.4,0.7-0.5
		C81.3,12,81.3,11.8,81.3,11.8z M39.5,22.8L39.5,22.8c6.2-13,19.5-22,34.9-22s28.6,9,34.9,22c0,0,0,0,0,0.1c0,0,0,0.1-0.1,0.1h-0.1
		l0,0c-0.4-0.8-0.9-1.6-1.4-2.3c-0.3-0.2-0.6-0.4-0.8-0.8c-0.1-0.3-0.6-0.4-0.8-0.6c-0.2-0.2-0.5-0.5-0.7-0.8
		c-0.3-0.6-0.8-0.9-1.4-1.3s-1.1-1-1.7-1.4c-0.1,0-0.1,0.1-0.1,0.1c0.1,0.4,0.4,0.8,0.9,1.1c0.4,0.3,0.6,0.8,1.2,1.1
		c0.5,0.3,0.9,0.7,1.3,1.1l0,0l0,0l-0.1,0.1c-0.1-0.1-0.3-0.2-0.4-0.3l0,0c0.1,0.1,0.1,0.3,0.2,0.4c0.3,0.2,0.4,0.5,0.3,0.8v0.1v0.1
		l0,0v0.1c0,0.2,0,0.3,0.1,0.5c0,0.1,0,0.2,0.1,0.3c-0.3-0.2-0.6-0.4-0.9-0.6c-0.1,0-0.1-0.2-0.1-0.3l0,0l0,0
		c0.1-0.2,0.4-0.1,0.7-0.1c-0.3-1-1.2-1.4-1.9-2c-0.3-0.3-0.7-0.6-1-0.9c-0.2-0.2-0.5-0.5-0.9-0.6c-0.1,0.1-0.1,0.2-0.2,0.3
		c-0.1,0.1,0,0.4-0.1,0.4c-0.3-0.1-0.7-0.3-1-0.1c-0.1,0.1,0,0.4,0.2,0.5c0.4,0.3,0.1,0.6-0.1,0.8c-0.2,0.2-0.2,0.5-0.2,0.8
		c0,0.1,0,0.3,0,0.3c0.4,0.3,0.2,0.7,0.3,1c0,0.3,0,0.7-0.3,0.8c-0.9,0.1-1.2,0.9-1.4,0.7c-0.3-0.2-0.3-0.3-0.5-0.4
		c-0.2-0.2-0.4-0.3-0.7-0.1c-0.1,0.1-0.4,0.1-0.6,0.1c-0.1-0.2-0.1-0.4-0.2-0.5c-0.1-0.2-0.1-0.4-0.4-0.4c-0.1,0-0.2,0-0.2-0.3
		c0.1-0.9-0.3-1.5-0.9-2.2c0-0.1-0.2-0.1-0.3-0.2c-0.1-0.2,0.2-0.1,0.3-0.2c0.1-0.1,0-0.3,0.5-0.2c0.8,0,1.6-0.1,2.4-0.2
		c-0.5-0.7-0.6-1.2-0.7-1.4c-0.1-0.2-0.7-0.5-1.1-0.7c-0.1-0.1-0.3-0.1-0.4-0.1c-0.3,0-0.6,0-0.8-0.3c0.3-0.4,0.7-0.1,1.1-0.3
		c-0.1-0.1-0.4-0.3-0.4-0.4c0.2-0.1,0.5,0.1,0.7,0.1c0.1-0.2,0.2-0.3,0.3-0.5c0-0.1-0.2-0.3-0.2-0.3c0.4-0.4,0.5-0.3,0.2-0.8
		c0.1-0.1,0.2,0.2,0.3,0.3c0-0.1,0.3-0.3-0.2-0.6c0,0,0.1-0.1,0.2-0.1s0-0.1,0.1-0.1c0.1-0.1,0.3,0,0.4-0.1
		c-0.4-0.3-0.7-0.6-1.1-0.9c-0.3-0.2-0.4-0.4-0.2-0.6c0.2,0.1,0.5,0.2,0.7,0.4c0.1,0.1,0,0.3,0.3,0.4c0.1,0,0.4-0.1,0.4-0.1
		c0-0.1-0.2-0.2-0.2-0.3c-0.1-0.2-0.7-0.6-0.9-0.6c-0.2,0-0.6-0.3-0.8-0.4c0.1,0.1-0.1,0.1-0.1,0.2c-0.1,0.6-0.8,0.4-1,0
		c0-0.1-0.2,0-0.3-0.1c-0.4-0.4-0.4-0.3-0.8-0.6c0,0,0-0.1,0-0.2c0-0.3-0.5-0.5-0.5-0.6s0.4-0.1,0.4-0.6c-2-1-4.1-1.9-6.2-2.6
		c-0.3,0-0.6,0.1-0.9,0.2c-0.4,0.2-1,0.2-1.5,0.1c-0.2,0-0.3,0.1-0.4,0.3c-0.1,0.2-0.3,0.2-0.5,0.3l0.1,0.2
		c-0.1,0.2-0.3,0.4-0.4,0.7c-1-0.6-1.4-0.8-1.9-0.9c-0.5-0.1-0.9-0.3-1.3-0.7c-0.4-0.4-0.9-0.7-1.2-1.2c-0.1-0.1-0.1-0.3-0.1-0.5
		c0-0.1,0.2-0.2,0.3-0.2c0.1,0,0.2,0,0.3,0c0.1,0,0.3-0.3,0.4-0.3c-1.2-0.2-2.3-0.3-3.5-0.4c0.3,0.1,0.5,0.2,0.6,0.5
		c-0.2,0-0.3,0-0.4,0V4c0.8,0.3,1.9,0.8,2.2,1c0,0.1-0.3,0.1-0.9,0.3c-0.2,0-0.4-0.3-1.3-0.6l-0.2,0.1c0,0.1,0.1,0.2,0.2,0.3
		c0.3,0.2,0.6,0.4,1,0.6c-0.2,0.2-0.6,0-0.4,0.4c-0.4-0.2-0.8-0.5-1.2-0.7l0,0c0.2,0.2,0.4,0.3,0.6,0.5c0,0,0,0.1-0.1,0.1
		c-0.7-0.1-1.3-0.4-2-0.6c-0.1,0-0.1-0.1-0.2-0.2c-0.5-0.6-1.2-0.7-1.9-0.8c-0.1,0-0.3-0.1-0.5-0.1C72.7,4,73,4.1,73.3,4.2
		s0.6,0.1,0.9,0.1c0-0.1,0-0.2-0.1-0.3c0.3,0,0.6-0.1,0.9-0.1c-0.1-0.2,0-0.4-0.4-0.2c-0.1,0-0.2,0-0.4-0.1c0.1-0.1,0.2-0.1,0.2-0.1
		c-0.1,0-0.2,0-0.3-0.1l0,0c-0.1-0.1-0.2-0.1-0.3-0.2c-1.2,0-2.5,0.1-3.7,0.2c0.5,0.6,1,0.6,1.3,1c-0.4-0.1-0.8-0.2-1.2-0.2
		c-0.2,0-0.5,0.1-0.7,0.1c-0.1,0-0.2-0.4-0.3-0.3c0.2-0.2,0.5-0.3,0.8-0.3c-0.8,0.1-1.6,0.2-2.4,0.3c-2.3,0.4-3,1.1-3.3,1.4
		c0,0,0.4,0.2,0.5,0.3c-0.1,0.2-0.2,0.3-0.3,0.4c0.4,0.1,1.3,0.4,1.6,0.6c0.5,0.7,1.4,0.7,2.1,0.9C68,7.8,68,8.1,67.9,8.3
		c0,0,0,0.1,0,0.2C68,8.7,68,8.8,68.1,9c0,0,0.1,0.1,0.2,0.1c1.1,0,1-0.3,1.2-1.2c0.5-0.1,1.8,0,1.9-0.6c0-0.3-0.4-0.6-0.6-0.7
		c0,0,0-0.1,0.1-0.1c0.2,0,0.7-0.2,0.8-0.3c-0.1-0.1,0-0.1-0.1-0.3c0.2,0,0.3,0,0.3-0.2c0,0,0-0.1,0-0.2V5.4c0,0,0.1,0,0.1-0.1
		c0.5,0.1,1.1,0.1,1.6,0.3c0.2,0.1,0.5,0.2,0.7,0.4c0.3,0.4,0.7,0.4,1,0.5c-0.3,0.3-0.1,0.7,0.2,0.9C76.2,8,77,7.6,77.6,7.2
		c0.2,0.3,0.9,0.9,1.1,1.2c0,0-0.1,0.2,0.2,0.7c0.3,0.5,1.2,0.7,1.8,1c-0.2,0.2-0.1,0.3,0.8,0.7c0,0.1,0,0.3-0.1,0.4
		c-0.2,0.1-0.4,0.2-0.5,0.2c-0.2,0.1-0.5,0-0.6,0c-0.3,0-0.5-0.1-0.8,0c-0.5,0.2-1,0.1-1.5,0c-0.8-0.2-1.6-0.4-2.4-0.6
		c-0.3-0.1-0.7-0.1-1,0.1c-0.1,0.1-0.3,0-0.5,0.1c-0.4,0.1-1.5,0.4-1.8,0.6c0.9-0.2,1.9-0.5,3.1-0.4c0.2,0,0.4,0,0.7,0.2
		c0.1,0,0.2,0.1,0.1,0.2c0,0.1-0.1,0.1-0.2,0.1c-0.3,0-0.5,0-0.8,0v0.1c0.2,0,0.5,0.1,0.8,0.1c-0.2,0.1-0.3,0.2-0.5,0.2
		c0,0.2,0.2,0.4,0.3,0.5c0.1,0,0.1-0.1,0.2-0.2c0.2,0.5,0.8,0.3,1.1,0.6c-0.1,0-0.1,0-0.2,0c0.1,0,0.2,0.1,0.3,0.1
		c0.3-0.2,0.6-0.3,0.9-0.5c0.1,0,0.2,0,0.1,0.1c-0.2,0.1,0,0.2-0.1,0.2c0.1,0.1,0.2,0.1,0.3,0.2v0.1c-0.4-0.1-0.4,0.1-0.8,0
		c0,0,0.1,0.1-0.1,0.1c-0.9,0-1.7-0.1-2.5,0.1c-0.2,0.1-0.4,0.1-0.5-0.1c0-0.1-0.1-0.2-0.1-0.2c0-0.1,0.1-0.2,0.2-0.2
		c0.3-0.1,0.6-0.1,0.9-0.2c0-0.2-0.6-0.1-1.2-0.1c-0.2,0.2-1,0.1-1.5,0.1c-0.6-0.1-1.3,0.1-1.6,0.6c0,0.1,0,0.2,0.1,0.2
		c0.1,0.1,0.4,0.1,0.3,0.2c-1.3,0-1.6-0.3-2.3-0.2c0,0,0.1,0,0.1,0.1c0.1,0,0.2,0,0.3,0.1c0.1,0,0.3,0,0.4,0.1l0,0
		c-0.2,0-0.5,0-0.6,0c-0.2-0.1-0.3,0-0.5,0c-0.1,0.2-0.4,0.2-0.5,0.3s-0.2,0.5-0.4,0.4c0-0.2-0.2-0.2-0.3-0.3c0,0-0.1,0-0.1,0.1
		c0.2,0.7-0.5,0.6-0.7,1c-0.1,0.1-0.1,0-0.1-0.1C67,15.1,67,15,67,15c-0.1-0.1,0-0.4,0-0.6c0-0.1-0.1,0-0.2,0.1
		c-0.1,0.3-0.2,0.5-0.1,0.9c0.2,0.3,0,0.7-0.4,0.8c-0.1,0-0.3,0-0.3,0.2l-0.2,0.1c-0.5,0-0.8,0.1-1,0.3c-0.7-0.1-1.2,0.5-1.8,0.6
		c-0.3,0.1-0.7,0.3-0.9,0.6c-0.4,0.7-0.1,1.6-0.2,2.3c-0.1,0.3-0.4,0.7-0.5,0.9h-0.1c-0.1,0-0.4,0.1-0.5,0c0.1-0.2-0.2-0.6-0.3-1
		c-0.1-0.3-0.1-0.8,0.1-1.1c0.1-0.2,0.1-0.2-0.1-0.4l-0.1-0.1c-0.1-0.3-0.2-0.4-0.6-0.3c-0.2,0.1-0.3,0-0.4-0.2
		c-0.1-0.1-0.3-0.2-0.5-0.3c-0.2-0.1-0.5,0.1-0.7-0.2c-0.1-0.1-0.7,0.1-0.9,0.1c0,0,0.1,0.2-0.1,0.3c0,0-0.1,0-0.1,0.1
		c0,0,0.1,0.1,0,0.2S57,18.4,57,18.4l-0.1-0.1c-0.1-0.1-0.2-0.1-0.2,0c-0.1,0-0.1,0-0.2,0.1c-0.1,0-0.2,0-0.2,0
		c-0.2-0.1-0.3-0.2-0.4-0.4l-0.1,0.1c-0.4-0.2-0.8-0.3-1.3-0.1c0,0-0.1,0-0.2-0.1c-0.2,0.3-0.5,0.4-0.8,0.4c-0.1,0-0.3,0.1-0.4,0.2
		c-0.1,0-0.2,0.2-0.2,0.3c-0.1,0.1-0.2,0-0.2,0.1c-0.2,0.2-0.4,0.5-0.4,0.8c0,0.2-0.1,0.4-0.3,0.5c-0.1,0-0.2,0.1-0.2,0.2
		c-0.2,0.5-0.4,0.8-0.6,1.2C51,21.9,51,22.2,51,22.4v0.1c-1.3,0-2.6,0.1-3.9,0.1c0-0.1,0-0.3,0.1-0.3c0.1-0.2,0.2-0.5,0.2-0.8
		c0-0.8-0.3-1-0.3-1.7c0.4-0.5,0-1.1,0-1.6L47,18.1c0.4-0.5,0.5-1.3,0.3-1.4c-0.9,1.1-0.4,2.5-0.9,3.7c0,0.2-0.1,0.3,0.1,0.5
		c0.2,0.2-0.1,0.8-0.2,0.7c0.1-0.3-0.3-0.6-0.5-0.8c-0.1-0.1,0-0.2,0-0.3c0.3-0.3,0.5-0.7,0.2-1.1c-0.1-0.1-0.1-0.3-0.1-0.5
		c0.4-0.2,0.6-0.4,0.5-0.8s0-0.7,0.1-1c0.2-0.4,0.3-0.8,0.5-1.2c0.1-0.3,0.2-0.5,0-0.7c0,0-0.1-0.1,0-0.1c0.2-0.6,0.5-1.1,0.8-1.6
		c0.1-0.2,0.2-0.4,0.3-0.6c-3.4,2.9-6.2,6.3-8.3,10L39.7,23C39.5,23,39.5,22.9,39.5,22.8z M98,11.3c-0.1,0-0.1,0.1-0.2,0.1
		c0,0.1,0.1,0.2,0.1,0.3c-0.2,0-0.3-0.1-0.5-0.1v0.1c0.2,0.1,0.4,0.2,0.6,0.3c0.1-0.3,0.2-0.3,0.4-0.1c0,0.1,0.3,0,0.3,0
		c0.2-0.4-0.3-0.6-0.6-0.8c-0.1-0.1-0.2,0-0.4,0C97.9,11.1,97.9,11.2,98,11.3z M72.1,65.1c0,0,0.1,0,0.3-0.1
		c0.4-0.3,0.7-0.6,1.2-0.8c0.2-0.1,0.4-0.2,0.3-0.5c0-0.3,0.1-0.7,0.6-0.8c0.6-0.2,1.1-0.5,1.8-0.4c0.1-0.2,0.6-0.4,0.9-0.4
		c0.4,0,0.8,0.2,1.2,0.1c0.4-0.2,0.9-0.4,1.1-0.8c0.3-0.2,0.7-0.3,0.9-0.5c0.5-0.6,0.9-0.9,1.3-1.6c0.4-0.6,0.2-1.4,1.2-1.6
		c0.2-0.1,0.4-0.3,0.6-0.4c0.6-0.5,1.4-0.8,2-1.2c0.4-0.3,1.1-0.5,1.4-1c0.3-0.6,0.3-0.6,0.4-1.2c0,0,0,0,0-0.1
		c-4.1-0.1-8.1-0.1-12.2-0.1c-4.9,0-9.9,0.1-14.8,0.2c0.1,0.3,0.2,0.5,0.4,0.9c0.3,0.7,0.6,1.1,1.3,1.7c0.1,0.1,0.1,0.2,0.1,0.2
		c0,0.4,0.1,0.9,0.1,1.3c0,0.2-0.2,0.4-0.2,0.6c0,0.2,0,0.3,0,0.6c0,0.4,0,0.8-0.1,1.2c0,0.2-0.1,0.5-0.1,0.7
		c-0.1,0.4-0.3,0.7-0.2,1.1v0.1c-0.3,0.2-0.1,0.5,0,0.7c0.2,0.8-0.2,1.5-0.4,2.2c-0.1,0.2-0.3,0-0.1,0.5c0.2,0.3,0.4,0.7,0.2,1.1
		c0,0.1,0,0.3,0.1,0.5s0,0.1,0,0.2c-0.1,0.3,0,0.4,0.3,0.4v-0.5c0,0,0.1-0.1,0.2,0c0.1,0.5,0,0.3,0.1,1.1c-0.1-0.1-0.2-0.3-0.3-0.5
		c0-0.1-0.2,0-0.2,0c0,0.4,0.1,0.5,0.1,0.5c-0.1,0.3-0.1,0.2-0.2,0.5c0,0.2,0.3,0,0.4,0.1c0.1,0,0,0.2,0.1,0.3c-0.1,0-0.2,0-0.2,0
		c0,0.1,0.1,0.1,0.1,0.2c0.4,0.9,0.9,1.3,0.9,1.3c1,0.8,1.3,0.9,2.2,1.2c0.8,0.2,0.7,0,0.7,0s-0.1-0.1-0.4-0.2
		c-0.3-0.2-0.1-0.2-0.4-0.4L64,71.3c0.2,0,0.4,0.1,0.4,0.1c-0.1-0.1-0.3-0.3-0.3-0.5c0.1,0,0.2-0.1,0.3-0.1c0.1-0.1,0-0.1,0-0.3
		c0.1-0.1,0.4-0.2,0.5-0.3c0,0,0-0.1,0-0.3c-0.3-0.2-0.8-0.1-0.7-0.5c0.1-0.1,0.4-0.1,0.6-0.2c0-0.1,0.1-0.2,0.1-0.3
		c-0.1-0.4,0.3-0.3,0.7-0.4c-0.1-0.1-0.2-0.2-0.2-0.2c-0.5-0.1-0.5-0.1-0.5-0.6c0.3,0.2,0.7,0.2,1,0.2c0.1,0,0.2,0,0.1-0.2
		c-0.1-0.3,0.2-0.5,0.5-0.4c0.4,0,0.8,0.1,1.2,0.1c0.3,0,0.9-0.3,0.9-0.5c0-0.1-0.1-0.1-0.2-0.1c-0.1-0.1-0.1-0.2,0-0.3
		c0.1-0.1,0.1-0.2,0.1-0.2c-0.1-0.1-0.4-0.3-0.5-0.4l-0.1-0.1l0.1-0.1l0.2,0.2c0.1,0,0.3,0,0.4,0.2c0.3,0.3,0.7,0.2,1,0.3
		c0,0,0.1,0,0.2,0c0.6-0.3,1.2-0.6,1.8-0.9c0.2-0.1-0.3-0.1-0.4-0.1c0.7-0.4,0.5-0.5,0.6-0.5c0.2,0,0.5-0.1,0.5,0
		C71.9,65.1,72.1,65.1,72.1,65.1z M77.6,12.1C77.6,12,77.6,12,77.6,12.1c-0.4-0.5-0.9-0.7-1.4-0.7C76.5,11.6,77,11.9,77.6,12.1z
		 M73.4,4c0.3,0,1,0.3,0.9-0.2C74,3.8,73.7,3.6,73.4,4z M91.6,10c-0.1,0.2-0.2,0.4-0.3,0.5c0.1,0.1,0.3,0.1,0.4,0.2
		c0.1,0.1,0.1,0.2,0.2,0.3H92c0,0.1-0.1,0.1-0.2,0.3c0.2-0.1,0.2,0,0.3,0c0,0.1,0.1,0.2,0.1,0.2c0.1-0.1,0.2-0.1,0.4-0.2
		c-0.1,0.7,0.4,0.4,0.7,0.4c0.3,0.2,0.4,0.3,0.6,0.6c0,0,0,0.1-0.1,0.1s-0.3,0-0.4,0c0,0.1,0.1,0.2,0.1,0.2c0.4,0,0.2,0.4-0.1,0.5
		c0.4,0.1,0.6,0.1,0.9,0.2c-0.2,0.2-0.3-0.1-0.6,0.7c0.7-0.4,0.6,0,0.8-0.1c0.5-0.2,1.6-0.2,1.7-0.4c0,0,0,0,0-0.1
		c-0.1,0-0.2-0.1-0.3-0.1c0.1-0.8-0.4-1-0.7-0.7c-0.5-0.8-1.4-1-2.1-1.5c0,0,0-0.2,0-0.3c0-0.3-0.2-0.5-0.5-0.4
		c-0.4,0.1-0.5,0-0.3-0.4C92,10,91.7,10,91.6,10z M109.5,55.2C109.4,55.2,109.4,55.2,109.5,55.2c-6.4,12.1-19.7,20.3-35.1,20.3l0,0
		c-15.4,0-28.7-8.3-35-20.2l-0.1-0.1c-0.1,0-0.1,0.1-0.1,0.1s0,0,0,0.1c6.1,13.4,19.6,22.8,35.2,22.8l0,0c15.7,0,29.2-9.4,35.2-22.8
		c0,0,0,0,0-0.1C109.6,55.3,109.6,55.2,109.5,55.2z M74.3,3.8L74.3,3.8L74.3,3.8L74.3,3.8z M142.1,27.9c0,4.8,0,9.6,0,14.3
		c2.5,0.2,5,0.5,7.5,0.8c0,1.3,0,2.5,0,3.8c-3.9-0.4-7.9-0.8-11.8-1.2c0-6.1,0-12.1,0-18.2C139.2,27.7,140.6,27.8,142.1,27.9z
		 M31.3,36.1c-2.6-3.2-5.1-6.4-7.7-9.5c0,0,0,0-0.1-0.1c-1.4,0.1-2.8,0.2-4.2,0.3c0,6,0,12.1,0,18.1c1.4-0.1,2.9-0.2,4.3-0.3
		c0-3.7,0-7.3,0-11c2.8,3.4,5.6,6.9,8.4,10.3c0,0,0,0,0.1,0.1c1.2-0.1,2.4-0.1,3.6-0.2c0-6,0-12.1,0-18.1c-1.5,0.1-2.9,0.2-4.3,0.3
		C31.3,29.4,31.3,32.8,31.3,36.1z M70.2,39c3.3,0,6.6,0,9.9,0c0,1.3,0,2.6,0,3.8c-4.7,0-9.5,0-14.2,0c0-6,0-12.1,0-18.1
		c4.7-0.1,9.4-0.1,14.1,0c0,1.3,0,2.5,0,3.8c-3.3,0-6.5,0-9.8,0c0,1.1,0,2.1,0,3.2c2.2,0,4.4,0,6.7,0c0,1.3,0,2.6,0,3.8
		c-2.2,0-4.4,0-6.7,0C70.2,36.6,70.2,37.8,70.2,39z M39.3,25.6c1.5-0.1,2.9-0.1,4.4-0.2c0,6,0,12.1,0,18.1c-1.5,0.1-2.9,0.1-4.4,0.2
		C39.3,37.7,39.3,31.6,39.3,25.6z M98.7,30.7c0-3.5-2-5.8-5.4-5.9c-3.3-0.1-6.6-0.2-9.9-0.2c0,6,0,12.1,0,18.1c1.4,0,2.9,0,4.3,0.1
		c0-2.2,0-4.3,0-6.5c1,0,2,0,3,0.1c1.3,2.2,2.6,4.4,3.9,6.6c1.6,0,3.3,0.1,4.9,0.2c-1.5-2.4-2.9-4.8-4.4-7.2
		C96.8,35.5,98.7,34.1,98.7,30.7z M87.6,28.6c1.3,0,2.7,0.1,4,0.1c2,0.1,2.4,1.2,2.4,2.1s-0.4,2-2.4,2c-1.3,0-2.7-0.1-4-0.1
		C87.6,31.3,87.6,29.9,87.6,28.6z M115.8,38.5c0,3.8-2.8,5.8-7.7,5.6c-2.9-0.1-5.9-1.8-6.7-2.3c0,0-0.1,0-0.1-0.1c0-1.4,0-2.9,0-4.3
		c0.1,0.1,0.2,0.1,0.3,0.2c2.6,1.6,4.8,2.6,6.6,2.8c2.1,0.3,3.1-0.4,3.1-1.6c0-0.5-0.4-1-1.4-1.5c-0.5-0.3-1.2-0.5-1.9-0.8
		c-3.1-1.2-6.9-2.4-6.9-6.6c0-3.7,3.3-5.2,6.6-5c2.5,0.1,5.5,1.4,6.9,2.2c0,0,0.1,0,0.1,0.1c0,1.4,0,2.9,0,4.3
		c-0.1-0.1-0.2-0.1-0.3-0.2c-0.9-0.5-3.9-2.3-6.7-2.5c-1.4-0.1-2,0.4-2,1.1c0,0.5,0.5,1,1.4,1.5l0,0c0.6,0.3,1.3,0.6,2,0.9
		C111.9,33.4,115.8,34.8,115.8,38.5z M8.1,42.7c2.3-0.2,3.3-1.6,3.3-4.2c0-3.6,0-7.3,0-10.9c1.5-0.1,2.9-0.3,4.4-0.4
		c0,3.7,0,7.3,0,11c0,5-2.6,7.9-7.7,8.4c-5.1,0.5-7.7-1.9-7.7-6.9c0-3.7,0-7.3,0-11c1.5-0.2,2.9-0.3,4.4-0.5c0,3.6,0,7.3,0,10.9
		C4.9,41.7,5.8,42.9,8.1,42.7z M45.5,25.3c1.6-0.1,3.2-0.1,4.9-0.2c1.5,3.7,2.9,7.5,4.4,11.2c1.5-3.8,2.9-7.7,4.4-11.5
		c1.6,0,3.2-0.1,4.9-0.1C61.5,30.8,59,36.9,56.4,43c-0.5,0-1.1,0-1.6,0s-1.1,0-1.6,0.1C50.6,37.2,48,31.2,45.5,25.3z M129.9,41.6
		c-2.5-0.2-5.1-0.4-7.7-0.6c-0.5,1.1-0.9,2.2-1.4,3.3c-1.5-0.1-3.1-0.2-4.6-0.3c2.6-5.9,5.3-11.8,7.9-17.6c0.6,0,1.3,0.1,1.9,0.1
		s1.3,0.1,1.9,0.1c2.6,6.3,5.3,12.5,7.9,18.8c-1.5-0.1-3.1-0.3-4.6-0.4C130.8,43.9,130.3,42.8,129.9,41.6z M128.3,37.7
		c-0.8-1.9-1.5-3.9-2.3-5.8c-0.8,1.8-1.5,3.6-2.3,5.5C125.3,37.4,126.8,37.5,128.3,37.7z M101.8,17.8c0,0.2,0.2,0.4,0.5,0.6
		c0-0.2-0.3-0.5-0.4-0.9C101.9,17.7,101.8,17.7,101.8,17.8z M102.9,19.9c0.1-0.2,0.2-0.1,0.2-0.3c0-0.3-0.3-0.8-0.7-1.1
		c-0.1,0.1-0.2,0.2-0.2,0.3C102.4,19.1,102.7,19.3,102.9,19.9C102.8,19.8,102.9,19.8,102.9,19.9z"/>
	<g>
		<path style="fill:#00376B;" d="M10.2,49.1c0.7-0.1,1.4-0.2,2.1-0.2c1.2-0.1,2,0.5,2,1.6l0,0c0,1.2-0.9,1.9-2.1,2
			c-0.3,0-0.6,0.1-0.9,0.1c0,0.5,0,1,0,1.5c-0.4,0-0.8,0.1-1.1,0.1C10.2,52.6,10.2,50.9,10.2,49.1z M12.3,51.5
			c0.6-0.1,0.9-0.4,0.9-0.9l0,0c0-0.5-0.4-0.7-0.9-0.7C12,50,11.7,50,11.4,50c0,0.5,0,1,0,1.6C11.7,51.6,12,51.6,12.3,51.5z"/>
		<path style="fill:#00376B;" d="M16.3,48.5c0.8-0.1,1.6-0.2,2.3-0.2c0.7-0.1,1.2,0.1,1.5,0.4c0.3,0.3,0.4,0.7,0.4,1.1l0,0
			c0,0.8-0.4,1.4-1.1,1.7c0.4,0.6,0.8,1.1,1.3,1.7c-0.4,0-0.9,0.1-1.3,0.1c-0.4-0.5-0.7-1-1.1-1.5l0,0c-0.3,0-0.6,0.1-0.9,0.1
			c0,0.5,0,1.1,0,1.6c-0.4,0-0.8,0.1-1.1,0.1C16.3,51.9,16.3,50.2,16.3,48.5z M18.6,50.8c0.6-0.1,0.9-0.4,0.9-0.8l0,0
			c0-0.5-0.3-0.7-0.9-0.7c-0.4,0-0.7,0.1-1.1,0.1c0,0.5,0,1,0,1.5C17.9,50.9,18.2,50.8,18.6,50.8z"/>
		<path style="fill:#00376B;" d="M22.6,50.5L22.6,50.5c0-1.5,1.2-2.8,2.7-2.9c1.6-0.1,2.7,1,2.7,2.4l0,0c0,1.5-1.2,2.8-2.7,2.9
			C23.8,53,22.6,52,22.6,50.5z M26.9,50.1L26.9,50.1c0-0.9-0.6-1.6-1.6-1.5c-0.9,0.1-1.5,0.9-1.5,1.7l0,0c0,0.9,0.6,1.6,1.6,1.5
			C26.3,51.8,26.9,51,26.9,50.1z"/>
		<path style="fill:#00376B;" d="M30.3,47.3c0.7-0.1,1.3-0.1,2-0.1c1.6-0.1,2.7,0.9,2.7,2.4l0,0c0,1.4-1.1,2.6-2.7,2.8
			c-0.7,0-1.3,0.1-2,0.1C30.3,50.7,30.3,49,30.3,47.3z M32.3,51.3c0.9-0.1,1.6-0.7,1.6-1.6l0,0c0-0.9-0.6-1.5-1.6-1.4
			c-0.3,0-0.6,0-0.9,0.1c0,1,0,2.1,0,3.1C31.7,51.3,32,51.3,32.3,51.3z"/>
		<path style="fill:#00376B;" d="M37.2,49.7c0-1,0-2,0-2.9c0.4,0,0.8,0,1.1-0.1c0,1,0,1.9,0,2.9c0,0.8,0.4,1.2,1.1,1.2
			c0.7,0,1.1-0.5,1.1-1.3c0-1,0-2,0-2.9c0.4,0,0.8,0,1.1-0.1c0,1,0,1.9,0,2.9c0,1.6-0.9,2.4-2.3,2.5C38,52,37.2,51.2,37.2,49.7z"/>
		<path style="fill:#00376B;" d="M43.8,49L43.8,49c0-1.5,1.1-2.7,2.7-2.8c1,0,1.6,0.2,2,0.7c-0.2,0.3-0.5,0.6-0.7,0.9
			c-0.4-0.3-0.8-0.5-1.3-0.5c-0.9,0-1.5,0.8-1.5,1.7l0,0c0,0.9,0.6,1.6,1.5,1.5c0.6,0,0.9-0.3,1.4-0.7c0.2,0.2,0.5,0.5,0.7,0.7
			c-0.5,0.6-1.1,1-2.1,1C44.9,51.6,43.8,50.5,43.8,49z"/>
		<path style="fill:#00376B;" d="M51.9,47.1c-0.5,0-1,0-1.6,0.1c0-0.3,0-0.7,0-1c1.4-0.1,2.8-0.1,4.3-0.2c0,0.3,0,0.7,0,1
			c-0.5,0-1,0-1.6,0.1c0,1.4,0,2.7,0,4.1c-0.4,0-0.8,0-1.1,0C51.9,49.8,51.9,48.4,51.9,47.1z"/>
		<path style="fill:#00376B;" d="M56.2,50.3c0.2-0.3,0.4-0.5,0.7-0.8c0.5,0.4,0.9,0.6,1.5,0.6c0.5,0,0.7-0.2,0.7-0.5l0,0
			c0-0.3-0.2-0.4-1-0.6c-1-0.2-1.7-0.5-1.7-1.5l0,0c0-0.9,0.8-1.6,1.8-1.6c0.8,0,1.4,0.2,1.9,0.6c-0.2,0.3-0.4,0.6-0.6,0.9
			c-0.5-0.3-0.9-0.5-1.3-0.5c-0.4,0-0.7,0.2-0.7,0.5l0,0c0,0.3,0.2,0.4,1.1,0.6c1,0.2,1.6,0.6,1.6,1.5l0,0c0,1-0.8,1.6-1.9,1.6
			C57.6,51,56.8,50.8,56.2,50.3z"/>
		<path style="fill:#00376B;" d="M68.8,50.2c-0.4,0.4-0.9,0.6-1.5,0.6c-1,0-1.7-0.5-1.7-1.5l0,0c0-0.7,0.4-1.1,1-1.4
			c-0.3-0.3-0.4-0.7-0.4-1l0,0c0-0.7,0.6-1.4,1.6-1.4c0.9,0,1.5,0.6,1.5,1.3l0,0c0,0.7-0.4,1.1-1.1,1.4c0.2,0.2,0.5,0.5,0.7,0.7
			c0.2-0.3,0.3-0.6,0.5-0.9c0.3,0.1,0.6,0.3,0.8,0.4c-0.2,0.4-0.4,0.7-0.7,1.1c0.3,0.2,0.5,0.5,0.8,0.7c-0.3,0.2-0.6,0.4-0.8,0.6
			C69.2,50.6,69,50.4,68.8,50.2z M68.1,49.6c-0.3-0.3-0.7-0.7-1-1c-0.3,0.2-0.5,0.4-0.5,0.7l0,0c0,0.4,0.3,0.6,0.7,0.6
			C67.7,49.9,67.9,49.8,68.1,49.6z M68.2,46.9L68.2,46.9c0-0.3-0.2-0.5-0.5-0.5s-0.5,0.2-0.5,0.5l0,0c0,0.2,0.1,0.4,0.3,0.6
			C68,47.4,68.2,47.2,68.2,46.9z"/>
		<path style="fill:#00376B;" d="M75.7,45.6c1.3,0,2.6,0,3.9,0c0,0.3,0,0.7,0,1c-0.9,0-1.8,0-2.8,0c0,0.3,0,0.7,0,1
			c0.8,0,1.6,0,2.4,0c0,0.3,0,0.7,0,1c-0.8,0-1.6,0-2.4,0c0,0.4,0,0.7,0,1.1c0.9,0,1.9,0,2.8,0c0,0.3,0,0.7,0,1c-1.3,0-2.6,0-3.9,0
			C75.7,49,75.7,47.3,75.7,45.6z"/>
		<path style="fill:#00376B;" d="M83.2,48.1c-0.6-0.9-1.1-1.7-1.7-2.5c0.4,0,0.9,0,1.3,0c0.4,0.6,0.7,1.1,1.1,1.7
			c0.4-0.6,0.7-1.1,1.1-1.7c0.4,0,0.9,0,1.3,0c-0.6,0.8-1.1,1.7-1.7,2.5c0.6,0.9,1.2,1.8,1.8,2.7c-0.4,0-0.9,0-1.3,0
			c-0.4-0.6-0.8-1.2-1.2-1.8c-0.4,0.6-0.8,1.2-1.2,1.7c-0.4,0-0.9,0-1.3,0C82,49.9,82.6,49,83.2,48.1z"/>
		<path style="fill:#00376B;" d="M88.4,45.7c0.7,0,1.4,0,2.1,0c1.2,0,2,0.8,2,1.8l0,0c0,1.2-0.9,1.8-2.1,1.8c-0.3,0-0.6,0-0.9,0
			c0,0.5,0,1,0,1.5c-0.4,0-0.8,0-1.1,0C88.4,49.1,88.4,47.4,88.4,45.7z M90.4,48.4c0.6,0,0.9-0.3,0.9-0.8l0,0c0-0.5-0.4-0.8-0.9-0.8
			c-0.3,0-0.6,0-0.9,0c0,0.5,0,1,0,1.6C89.8,48.3,90.1,48.3,90.4,48.4z"/>
		<path style="fill:#00376B;" d="M94.5,45.9c1.3,0,2.6,0.1,3.9,0.1c0,0.3,0,0.7,0,1c-0.9,0-1.8-0.1-2.8-0.1c0,0.3,0,0.7,0,1
			c0.8,0,1.6,0.1,2.4,0.1c0,0.3,0,0.7,0,1c-0.8,0-1.6-0.1-2.4-0.1c0,0.4,0,0.7,0,1.1c0.9,0,1.9,0.1,2.8,0.1c0,0.3,0,0.7,0,1
			C97.1,51,95.8,51,94.5,51C94.5,49.3,94.5,47.6,94.5,45.9z"/>
		<path style="fill:#00376B;" d="M100.7,46.1c0.8,0,1.6,0.1,2.4,0.1c0.7,0,1.2,0.2,1.5,0.6c0.3,0.3,0.4,0.7,0.4,1.2l0,0
			c0,0.8-0.4,1.3-1.1,1.5c0.4,0.6,0.8,1.3,1.3,1.9c-0.4,0-0.9,0-1.3-0.1c-0.4-0.6-0.7-1.1-1.1-1.7l0,0c-0.3,0-0.6,0-0.9,0
			c0,0.5,0,1.1,0,1.6c-0.4,0-0.8,0-1.1,0C100.7,49.5,100.7,47.8,100.7,46.1z M103,48.7c0.6,0,0.9-0.3,0.9-0.7l0,0
			c0-0.5-0.3-0.8-0.9-0.8c-0.4,0-0.8,0-1.1-0.1c0,0.5,0,1,0,1.5C102.2,48.7,102.6,48.7,103,48.7z"/>
		<path style="fill:#00376B;" d="M107.3,46.4c0.4,0,0.8,0,1.1,0.1c0,1.7,0,3.4,0,5.1c-0.4,0-0.8,0-1.1-0.1
			C107.3,49.9,107.3,48.1,107.3,46.4z"/>
		<path style="fill:#00376B;" d="M110.9,46.6c1.3,0.1,2.6,0.2,3.9,0.2c0,0.3,0,0.7,0,1c-0.9-0.1-1.8-0.1-2.8-0.2c0,0.3,0,0.7,0,1
			c0.8,0.1,1.6,0.1,2.4,0.2c0,0.3,0,0.7,0,1c-0.8-0.1-1.6-0.1-2.4-0.2c0,0.4,0,0.7,0,1.1c0.9,0.1,1.9,0.1,2.8,0.2c0,0.3,0,0.7,0,1
			c-1.3-0.1-2.6-0.2-3.9-0.2C110.9,50.1,110.9,48.3,110.9,46.6z"/>
		<path style="fill:#00376B;" d="M117,47c0.3,0,0.7,0,1,0.1c0.8,1.1,1.6,2.2,2.4,3.3c0-1.1,0-2.1,0-3.2c0.4,0,0.7,0.1,1.1,0.1
			c0,1.7,0,3.4,0,5.1c-0.3,0-0.6,0-1-0.1c-0.8-1.2-1.7-2.3-2.5-3.5c0,1.1,0,2.2,0,3.3c-0.4,0-0.7-0.1-1.1-0.1
			C117,50.5,117,48.7,117,47z"/>
		<path style="fill:#00376B;" d="M123.8,50.1L123.8,50.1c0-1.5,1.1-2.6,2.7-2.4c1,0.1,1.5,0.5,2,1c-0.2,0.3-0.5,0.5-0.7,0.8
			c-0.4-0.4-0.8-0.7-1.3-0.7c-0.9-0.1-1.5,0.6-1.5,1.5l0,0c0,0.9,0.6,1.7,1.5,1.7c0.6,0.1,0.9-0.2,1.4-0.5c0.2,0.3,0.5,0.5,0.7,0.8
			c-0.5,0.5-1.1,0.8-2.1,0.7C124.9,52.9,123.8,51.6,123.8,50.1z"/>
		<path style="fill:#00376B;" d="M130.7,48.1c1.3,0.1,2.6,0.2,3.9,0.4c0,0.3,0,0.7,0,1c-0.9-0.1-1.8-0.2-2.8-0.3c0,0.3,0,0.7,0,1
			c0.8,0.1,1.6,0.2,2.4,0.2c0,0.3,0,0.7,0,1c-0.8-0.1-1.6-0.2-2.4-0.2c0,0.4,0,0.7,0,1.1c0.9,0.1,1.9,0.2,2.8,0.3c0,0.3,0,0.7,0,1
			c-1.3-0.1-2.6-0.3-3.9-0.4C130.7,51.6,130.7,49.9,130.7,48.1z"/>
		<path style="fill:#00376B;" d="M136.5,53.1c0.2-0.2,0.4-0.5,0.7-0.7c0.5,0.4,0.9,0.7,1.5,0.8c0.5,0,0.7-0.1,0.7-0.4l0,0
			c0-0.3-0.2-0.5-1-0.8c-1-0.4-1.7-0.7-1.7-1.8l0,0c0-0.9,0.7-1.5,1.8-1.4c0.7,0.1,1.4,0.4,1.9,0.9c-0.2,0.3-0.4,0.5-0.6,0.8
			c-0.5-0.4-0.9-0.6-1.3-0.7c-0.4,0-0.7,0.1-0.7,0.4l0,0c0,0.3,0.2,0.5,1.1,0.8c1,0.4,1.6,0.8,1.6,1.7l0,0c0,1-0.8,1.5-1.9,1.4
			C137.9,54.1,137.1,53.7,136.5,53.1z"/>
	</g>
</g>
</svg>
