<svg width="40" height="40" viewBox="0 0 40 40" fill="none" xmlns="http://www.w3.org/2000/svg">
<path d="M14.2615 5.2832C6.76085 5.28383 0.625 10.3971 0.625 16.7896C0.625 20.4546 2.58478 23.6079 5.73853 25.7385L3.75 30.625L9.40308 27.5281C10.8518 28.0393 12.5565 28.2947 14.2615 28.2947C14.6321 28.2947 14.9982 28.2776 15.3613 28.252C17.0001 32.4638 21.614 35.5103 27.0459 35.5103C28.459 35.5103 29.842 35.3154 31.1658 34.9316L34.9573 37.0557C35.1485 37.1625 35.3588 37.2156 35.5688 37.2156C35.8451 37.2156 36.1208 37.1234 36.3464 36.9434C36.7439 36.6271 36.9107 36.1021 36.7688 35.6152L35.8093 32.3279C38.0868 30.3598 39.375 27.6908 39.375 24.8865C39.375 19.1783 34.1216 14.5203 27.5647 14.2834C26.2072 9.11282 20.749 5.2832 14.2615 5.2832ZM9.375 10.625C10.4062 10.625 11.25 11.4688 11.25 12.5C11.25 13.5312 10.4062 14.375 9.375 14.375C8.34375 14.375 7.5 13.5312 7.5 12.5C7.5 11.4688 8.34375 10.625 9.375 10.625ZM19.375 10.625C20.4062 10.625 21.25 11.4688 21.25 12.5C21.25 13.5312 20.4062 14.375 19.375 14.375C18.3438 14.375 17.5 13.5312 17.5 12.5C17.5 11.4688 18.3438 10.625 19.375 10.625ZM27.0447 16.7615C32.4647 16.7615 36.875 20.4065 36.875 24.8865C36.875 27.1959 35.7228 29.3204 33.6316 30.8704C33.211 31.1822 33.0282 31.7228 33.175 32.2253L33.5132 33.3826L31.9177 32.489C31.729 32.3834 31.5192 32.3303 31.3074 32.3303C31.1742 32.3303 31.0394 32.3507 30.9106 32.3938C29.6988 32.7975 28.3622 33.0115 27.0447 33.0115C21.6247 33.0115 17.2156 29.3665 17.2156 24.8865C17.2156 20.4065 21.6247 16.7615 27.0447 16.7615ZM23.125 21.875C22.7935 21.875 22.4755 22.0067 22.2411 22.2411C22.0067 22.4755 21.875 22.7935 21.875 23.125C21.875 23.4565 22.0067 23.7745 22.2411 24.0089C22.4755 24.2433 22.7935 24.375 23.125 24.375C23.4565 24.375 23.7745 24.2433 24.0089 24.0089C24.2433 23.7745 24.375 23.4565 24.375 23.125C24.375 22.7935 24.2433 22.4755 24.0089 22.2411C23.7745 22.0067 23.4565 21.875 23.125 21.875ZM31.2964 21.875C30.6051 21.875 30 22.4581 30 23.125C30 23.7919 30.6051 24.375 31.2964 24.375C31.9876 24.375 32.5928 23.7919 32.5928 23.125C32.5928 22.4581 31.9876 21.875 31.2964 21.875Z" fill="white"/>
</svg>
