<?xml version="1.0" encoding="utf-8"?>
<!-- Generator: Adobe Illustrator 19.2.1, SVG Export Plug-In . SVG Version: 6.00 Build 0)  -->
<svg version="1.1" id="layer" xmlns="http://www.w3.org/2000/svg" xmlns:xlink="http://www.w3.org/1999/xlink" x="0px" y="0px"
	 viewBox="0 0 652 652" style="enable-background:new 0 0 652 652;" xml:space="preserve">
<style type="text/css">
	.st0{fill:#0061AF;}
</style>
<path class="st0" d="M620.2,290.4L620.2,290.4c-1.1-17.7-6.4-30.4-17.2-41.2c-11.4-11.4-25.4-17.2-41.5-17.2h-0.9
	c-3.9,0-7.7,0.3-11.3,1c-3.7-0.7-7.5-1-11.3-1h-0.9c-16.1,0-30.1,5.8-41.5,17.2c-10.7,10.7-16.2,23.8-17.2,41.1
	c-0.1,1.5-0.4,6.8-0.4,12.4c0,5.6,0.3,11.1,0.5,12.7c1.3,18.1,6.5,30.3,17.2,41.1c11.4,11.4,25.4,17.2,41.5,17.2h0.9
	c3.9,0,7.7-0.3,11.3-1c3.7,0.7,7.5,1,11.3,1h0.9c16.1,0,30.1-5.8,41.5-17.2c10.9-10.9,16.4-24,17.2-41.2c0-0.1,0.4-8.3,0.4-12.6
	C620.7,298.4,620.2,290.4,620.2,290.4 M561.9,314.8L561.9,314.8l-0.7,0l0,0.1c-0.3,6.9-2.5,12.2-6.9,16.5c-1,1-2.2,2-3.3,2.8
	c-0.6,0.4-1.2,0.8-1.7,1.1c-1.8-1-3.5-2.4-5.1-3.9c-2.9-2.9-4.8-6.4-5.9-10.6c-0.5-1.9-0.8-3.9-0.9-5.9l0-0.4
	c0-0.1-0.5-6.1-0.5-11.8c0-5.5,0.5-11.5,0.5-11.6c0.5-6.4,2-10.8,4.8-14.6c0.7-0.9,1.4-1.7,2-2.4c1.6-1.6,3.3-2.9,5.1-3.9
	c0.2,0.1,0.4,0.2,0.5,0.3l0.2,0.2c1.6,1,3,2.1,4.3,3.5c4.5,4.4,6.6,9.6,6.9,16.8c0.1,1.4,0.5,8.8,0.5,11.7c0,2.9-0.4,10.4-0.5,11.9
	v0L561.9,314.8z M522.9,245.7c-1.3,1.1-2.6,2.3-3.8,3.5c-10.6,10.6-15.9,23.3-17.2,41.1c-0.1,0.8-0.6,7.6-0.6,12.6
	c0,4.5,0.4,10.4,0.5,12.2l0,0.6c0.2,1.8,0.4,3.6,0.7,5.6c1.3,7.2,4.5,13.3,9.7,18.5c0.5,0.5,1.1,1,1.6,1.5l0.2,0.2
	c3.3,2.9,7,5.1,11.1,6.6c3.8,1.3,7.8,2,11.9,2h0.9c7.9,0,15.1-2.4,21.2-7.2c0.7-0.5,1.3-1.1,2-1.7l0.4-0.4c0.3-0.3,0.7-0.6,1-0.9
	c0.1-0.1,0.1-0.1,0.3-0.3c6.4-6.4,9.7-14.3,10.1-24.2l0-0.2c0.1-1.5,0.5-9.1,0.5-12.3c0-3.5-0.5-12.2-0.5-12.3
	c-0.4-9.2-3.3-16.7-8.8-22.9c5.3,0.5,9.9,2.7,13.8,6.7c4.5,4.4,6.6,9.6,6.9,16.9c0,0.7,0.5,6.8,0.5,11.6c0,5.2-0.6,14.3-0.7,15.4
	c-0.6,7.2-2.3,13.3-5.1,18.8c-1.8,3.5-4,6.7-6.8,9.8c-0.5,0.5-1,1-1.5,1.5c-6.5,6.5-13.8,10.7-22.1,12.6c-3.5,0.8-7.3,1.2-11.2,1.2
	h-0.9c-3.8,0-7.4-0.4-10.9-1.2c-8.4-1.9-15.7-6-22.3-12.6c-8.7-8.6-12.6-18.3-13.8-33.3l0-0.4c0-0.1-0.1-1.2-0.2-2.9
	c-0.1-2.2-0.2-5.5-0.2-8.9c0-5.9,0.4-11.6,0.4-11.7c0.9-14.5,5.1-24.9,13.8-33.6C509.6,251.7,515.8,247.8,522.9,245.7 M575.7,360
	c1.3-1.1,2.6-2.3,3.8-3.5c9.9-9.9,15.3-22,16.7-37c0.2-1.6,0.3-3,0.3-4.3c0.1-1.7,0.5-7.5,0.5-12.5c0-5.6-0.5-12.3-0.5-12.3
	c-0.4-10-3.8-18-10.3-24.5c-4.8-4.8-10.3-7.9-16.6-9.3c-2.7-0.6-5.3-0.9-8-0.9h-0.9c-4,0-7.9,0.6-11.6,1.9c-2.6,0.9-5.1,2.1-7.4,3.6
	c-2.1,1.4-4,2.9-5.7,4.7c-0.1,0.1-0.1,0.1-0.3,0.3c-5.2,5.3-8.2,11.6-9.5,19.7c-0.2,1.5-0.4,2.9-0.5,4.2c0,0.1-0.5,6.3-0.5,12.5
	c0,5.2,0.4,10.7,0.5,12.3l0,0.2l0.7-0.1l-0.7,0.2c0.5,9,3.4,16.6,8.7,22.7c-5.3-0.5-9.9-2.7-13.8-6.6c-3.4-3.4-5.5-7.2-6.4-11.8
	c-0.3-1.2-0.4-2.5-0.5-4h0l-0.1-1.2c0-0.1-0.5-7.2-0.5-11.8c0-1.8,0.1-4.1,0.2-6.9c0.1-2.4,0.3-4.3,0.3-4.7
	c0.7-9.2,2.5-16.4,5.7-22.6c1.8-3.5,4-6.6,6.8-9.6c0.5-0.5,0.9-1,1.4-1.5c6.5-6.5,13.8-10.7,22.1-12.6c3.5-0.8,7.3-1.2,11.2-1.2h0.9
	c3.8,0,7.4,0.4,10.9,1.2c8.4,1.9,15.7,6,22.3,12.6c8.8,8.8,12.9,18.8,13.8,33.6c0,0.1,0.4,7.8,0.4,11.7c0,3.9-0.4,11.9-0.4,12v0
	c-0.7,14.1-5,24.8-13.8,33.5C589,354,582.7,357.9,575.7,360"/>
<polygon class="st0" points="35.2,373.1 24.5,373.1 24.5,370.2 49.1,370.2 49.1,373.1 38.4,373.1 38.4,403.3 35.2,403.3 "/>
<path class="st0" d="M49.7,379.7h3.1v4.6h0.1c1.8-2.9,4.7-5.1,9.4-5.1h0.5l-0.3,2.9c0,0-0.9,0-0.9,0c-3.8,0-6.9,2.2-8.7,5.9v15.3
	h-3.1V379.7z"/>
<path class="st0" d="M66.6,397.8c0-4.6,4-8.1,16-9.9v-1.2c0-3.3-1.7-4.8-4.8-4.8c-3.7,0-6.3,1.6-8.8,3.7l-1.7-1.9
	c2.8-2.6,6.1-4.4,10.7-4.4c5.3,0,7.6,2.8,7.6,7.5v10.7c0,2.9,0.2,4.6,0.7,5.8h-3.2c-0.3-1-0.5-2-0.5-3.4c-2.7,2.5-5.8,3.8-9.3,3.8
	C69.1,403.7,66.6,401.5,66.6,397.8 M82.6,397.4v-7.3c-10.1,1.7-12.9,4.2-12.9,7.3c0,2.5,1.7,3.8,4.3,3.8
	C77.3,401.1,80.2,399.8,82.6,397.4"/>
<path class="st0" d="M92.8,391.5c0-8.2,4.3-12.3,10-12.3c3,0,5.8,1.6,7.6,3.7v-12.7h3.1v27.3c0,2.9,0.2,4.6,0.7,5.8h-3.3
	c-0.3-0.8-0.5-2.2-0.5-3.4c-1.9,2.1-4.3,3.8-7.9,3.8C97.1,403.7,92.8,399.8,92.8,391.5 M110.3,397.2v-11.4c-2.3-2.5-4.6-3.9-7.3-3.9
	c-4.2,0-7.2,3-7.2,9.7c0,6.5,3.2,9.5,7.2,9.5C105.9,401.1,108.1,399.6,110.3,397.2"/>
<path class="st0" d="M120.8,391.5c0-8.4,5.4-12.2,10.3-12.2c5.5,0,9.6,4.2,9.6,12.3v0.6h-16.9c0,5.8,3.4,9.1,7.4,9.1
	c3.5,0,5.5-1.5,7.3-4.3l1.9,1.5c-2.1,3.3-5,5.4-9.4,5.4C125.6,403.8,120.8,399.5,120.8,391.5 M137.8,389.6c-0.3-4.5-2.5-7.8-6.7-7.8
	c-3.4,0-6.6,2.5-7.2,7.8H137.8z"/>
<path class="st0" d="M157.4,379.7h3.2l3.3,11.7c0.9,3,1.4,5,2.2,8h0.1c0.8-3.4,1.3-5,2.2-8l3.2-11.7h2.8l3.3,11.9
	c0.8,2.9,1.3,4.7,2.1,7.8h0.1c0.8-3.2,1.3-4.8,2.1-7.7l3.4-12h3l-7.2,23.6h-2.9l-5.3-19.4h-0.1l-5.4,19.4h-2.8L157.4,379.7z"/>
<path class="st0" d="M195,371h3.3v3.3H195V371z M195.1,379.7h3.1v23.6h-3.1V379.7z"/>
<path class="st0" d="M208.7,397.8v-15.4h-4.1v-2.6h4.1v-8.5h3.1v8.5h6.1v2.6h-6.1v14.8c0,2.5,0.8,3.8,3.7,3.8c0.9,0,1.8-0.1,2.5-0.3
	v2.6c-0.7,0.1-2,0.3-3,0.3C210.4,403.6,208.7,401.9,208.7,397.8"/>
<path class="st0" d="M225,370.2h3.1v13.2c2.3-2.2,5.3-4.2,9-4.2c4.7,0,7,2.6,7,7v17H241v-16.5c0-3.3-1.5-4.9-4.7-4.9
	c-3,0-5.6,1.6-8.2,4.1v17.3H225V370.2z"/>
<path class="st0" d="M264.2,379.7h3.1v3.4c1.9-2,4.3-3.8,7.9-3.8c5.4,0,9.7,4,9.7,12.2s-4.3,12.2-10,12.2c-3,0-5.5-1.5-7.6-3.6v12.2
	h-3.1V379.7z M281.8,391.5c0-6.5-3.2-9.6-7.2-9.6c-2.9,0-5.1,1.5-7.3,3.9v11.4c2.3,2.5,4.6,3.8,7.3,3.8
	C278.8,401.1,281.8,398.2,281.8,391.5"/>
<path class="st0" d="M292.1,396.8v-17h3.1v16.5c0,3.3,1.4,4.9,4.7,4.9c3,0,5.5-1.6,8.2-4.1v-17.3h3.1v23.6H308v-3.7
	c-2.3,2.2-5.3,4.2-8.9,4.2C294.4,403.8,292.1,401.1,292.1,396.8"/>
<path class="st0" d="M319.8,379.7h3.1v4.6h0.1c1.8-2.9,4.7-5.1,9.4-5.1h0.5l-0.3,2.9c0,0-0.9,0-0.9,0c-3.8,0-6.9,2.2-8.7,5.9v15.3
	h-3.1V379.7z"/>
<path class="st0" d="M339.1,379.7h3.1v3.4c1.9-2,4.3-3.8,7.9-3.8c5.4,0,9.7,4,9.7,12.2s-4.3,12.2-10,12.2c-3,0-5.5-1.5-7.6-3.6v12.2
	h-3.1V379.7z M356.6,391.5c0-6.5-3.2-9.6-7.2-9.6c-2.9,0-5.1,1.5-7.3,3.9v11.4c2.3,2.5,4.6,3.8,7.3,3.8
	C353.6,401.1,356.6,398.2,356.6,391.5"/>
<path class="st0" d="M365.8,391.5c0-7.9,4.9-12.3,10.7-12.3c5.8,0,10.6,4.4,10.6,12.3c0,7.8-4.9,12.3-10.6,12.3
	C370.7,403.8,365.8,399.4,365.8,391.5 M384.1,391.5c0-5.1-2.6-9.6-7.6-9.6c-4.8,0-7.6,4-7.6,9.6c0,5.2,2.5,9.7,7.6,9.7
	C381.2,401.1,384.1,397.2,384.1,391.5"/>
<path class="st0" d="M392.4,399.5l2-1.8c1.8,2.1,4.1,3.4,7.3,3.4c4,0,6.1-1.5,6.1-4.1c0-2.6-1.9-3.6-6.5-4.7
	c-5.4-1.3-8.2-2.8-8.2-6.9c0-3.4,2.9-6.2,8-6.2c4,0,6.6,1.3,8.7,3.4l-1.7,2.1c-1.8-1.8-4-2.9-6.9-2.9c-3.7,0-5.1,1.7-5.1,3.5
	c0,2.3,1.6,3.2,5.7,4.2c5.9,1.4,9,2.9,9,7.5c0,4.3-3.9,6.7-9.2,6.7C397.5,403.7,394.2,401.9,392.4,399.5"/>
<path class="st0" d="M416.5,391.5c0-8.4,5.4-12.2,10.3-12.2c5.5,0,9.6,4.2,9.6,12.3v0.6h-16.9c0,5.8,3.4,9.1,7.4,9.1
	c3.5,0,5.5-1.5,7.3-4.3l1.9,1.5c-2.1,3.3-5,5.4-9.4,5.4C421.4,403.8,416.5,399.5,416.5,391.5 M433.5,389.6c-0.3-4.5-2.5-7.8-6.7-7.8
	c-3.4,0-6.6,2.5-7.2,7.8H433.5z"/>
<path class="st0" d="M119,341.3H99.4v-46.2c0-19.5,11-30.1,31.9-30.1c10.4,0,17.7,3.3,22.1,9.5c4.5-6.3,11.9-9.5,21.9-9.5
	c21.9,0,31.6,10.1,31.6,30.1v46.2h-19.5v-46.2c0-7.6-1.8-11.8-12.1-11.8c-10.7,0-12.7,4.2-12.7,11.8v46.2h-18.9v-46.2
	c0-7.6-1.8-11.8-12.4-11.8c-10.4,0-12.4,4.2-12.4,11.8V341.3z"/>
<path class="st0" d="M217.9,269.7l13.4-3v-6.1c0-22.4,12.2-28.5,28.8-28.5c5.8,0,11.6,0.7,15.9,2.1v18.2c-3.7-1.2-8.5-1.9-14.5-1.9
	c-6.6,0-10.9,2.1-10.9,8.5v7.7h23.8v18.3h-23.8v56.2h-19.4v-56.2h-13.4V269.7z"/>
<path class="st0" d="M280,310V298c0-21.3,12.5-33.1,35.8-33.1c24.4,0,35.5,11,35.5,33.1V310c0,21.3-12.2,33.1-35.5,33.1
	C291.4,343.1,280,332,280,310 M331.8,298c0-9.5-2.5-14.8-15.9-14.8c-13.4,0-16.2,5.2-16.2,14.8V310c0,9.5,2.8,14.8,16.2,14.8
	c13.4,0,15.9-5.2,15.9-14.8V298z"/>
<path class="st0" d="M384.3,341.3h-19.5v-49.2c0-17.6,10.6-27.1,31-27.1c4,0,6.4,0.4,9.2,1.2v18.3c-2.1-0.6-5.2-1.2-9.2-1.2
	c-9.7,0-11.5,3.6-11.5,10.3V341.3z"/>
<path class="st0" d="M426.9,232.8c6.4,0,11.6,5.4,11.6,11.6s-5.2,11.6-11.6,11.6c-6.4,0-11.6-5.2-11.6-11.6S420.5,232.8,426.9,232.8
	 M417.2,266.8h19.4v74.5h-19.4V266.8z"/>
<path class="st0" d="M49.3,265c-7.7,0-14.8,0.7-20.1,2.7v16.7c4.5-1.6,12.5-2.8,21.3-2.8c9.2,0,15.5,1.3,15.5,9.1v5.7H50.9
	c-17.7,0-30.3,5.8-30.3,23.3c0,15.3,6.2,22.7,29,22.7c11,0,16.4-8.8,16.4-8.8v7.8h19.4v-29v-11.9v-9.7C85.4,271.1,71.2,265,49.3,265
	 M52.7,326.8c-6.7,0-12.7-0.6-12.7-7.7c0-5.5,3.4-8.2,10.6-8.2H66v4.4C66,321.4,59.4,326.8,52.7,326.8"/>
</svg>
