<?xml version="1.0" encoding="utf-8"?>
<!-- Generator: Adobe Illustrator 19.2.1, SVG Export Plug-In . SVG Version: 6.00 Build 0)  -->
<svg version="1.1" id="layer" xmlns="http://www.w3.org/2000/svg" xmlns:xlink="http://www.w3.org/1999/xlink" x="0px" y="0px"
	 viewBox="0 0 652 652" style="enable-background:new 0 0 652 652;" xml:space="preserve">
<g>
	<g>
		<path d="M548.5,216c-0.6,0.7-1,1.1-1.3,1.6c-26.3,33.9-43.7,71.6-50,114.2c-1.7,11.6-2.7,23.2-2,34.9c2,30,30.4,53,60.2,48.7
			c26.7-3.8,46.3-26,46.5-52.9c0.1-14.4-1.4-28.6-4.2-42.7c-6.8-33.4-20.5-63.8-40-91.6C554.7,224.1,551.6,220.1,548.5,216
			 M626.5,367c-0.5,3.6-0.9,7.3-1.7,10.9c-6.5,31.4-31.3,55.5-62.7,61.2c-1.2,0.2-1.4,0.7-1.4,1.8c0,8.7,0,17.4,0,26.1v2.1h-24.5
			v-1.9c0-8.7,0-17.4,0-26.1c0-1.2-0.3-1.8-1.6-2c-32.6-5.6-58.7-32.7-63.3-65.5c-1.4-10-0.9-20-0.1-30
			c2.4-31.5,10.8-61.3,24.4-89.7c11.1-23,24.9-44.2,42.2-63c3-3.3,6.3-6.3,9.4-9.4c0.4-0.4,0.7-0.9,1.1-1.3h0.3
			c0.4,0.4,0.7,0.9,1.1,1.3c3.2,3.2,6.6,6.3,9.6,9.7c21.2,23.2,37.2,49.6,49,78.7c9.4,23.2,15.3,47.4,17.3,72.4
			c0.3,3.8,0.6,7.7,0.9,11.5V367z"/>
		<path d="M26.5,341.7h28v125.8c-0.5,0-0.9,0.1-1.2,0.1c-8.6,0-17.2,0-25.8,0c-0.3,0-0.7-0.1-1-0.1V341.7z"/>
	</g>
	<polygon points="224.9,327.6 197.2,327.6 197.2,273.4 143.1,273.4 143.1,327.6 115.3,327.6 115.3,201.9 143.1,201.9 143.1,248.6 
		197,248.6 197,201.9 224.9,201.9 	"/>
	<g>
		<path d="M335.5,283.9c0-11.6-9.7-21.3-21.4-21.3c-11.7,0-21.5,9.8-21.4,21.4c0,11.6,9.8,21.2,21.5,21.2
			C325.8,305.2,335.5,295.6,335.5,283.9 M266.2,358c5.2-7.8,10.1-15,14.8-22c4.4,2.6,8.5,5.4,13,7.5c7.6,3.7,15.8,4.2,24,2.4
			c8.6-1.9,14.1-7.9,15.1-16.6c0.5-3.8,0.1-7.8,0.1-11.8c-0.2,0.1-0.4,0.2-0.5,0.4c-5.1,6.6-12.2,9.6-20.2,10.6
			c-23.6,2.7-43.6-13.4-46.2-37.1c-1.5-13.4,0.9-25.9,9-36.9c15.8-21.4,42.6-17.6,55.2-6.9c1.7,1.4,3.4,2.8,4.8,4v-10.2h24.8v1.8
			c0,25.6,0,51.2,0,76.9c0,6.4-0.6,12.7-2.2,18.9c-4.2,15.7-14.2,25.6-30.1,29.4c-9.9,2.4-20,2.4-30,1.2c-7-0.8-13.9-2-20.3-5.1
			C273.7,362.6,270.1,360.3,266.2,358"/>
		<path d="M414.2,305.2c11.7,0,21.4-9.6,21.4-21.2c0-11.6-9.8-21.4-21.5-21.4c-11.6,0-21.4,9.8-21.3,21.4
			C392.9,295.6,402.6,305.2,414.2,305.2 M460.4,241.3v2c0,25.5,0,51,0,76.5c0,7.1-0.6,14.2-2.8,21.1c-4.8,15.3-15.2,24.4-30.6,27.7
			c-15.1,3.2-30,2.1-44.7-2.3c-5.7-1.7-10.8-4.7-15.6-8.6c4.9-7.3,9.8-14.6,14.8-22c0.5,0.4,1,0.8,1.5,1.1
			c6.1,4.6,12.6,8.3,20.3,9.5c5.1,0.8,10.1,0.8,15.1-0.4c8.5-2.1,14.1-8.2,15-16.9c0.4-3.7,0.1-7.6,0.1-11.6
			c-0.3,0.2-0.4,0.3-0.6,0.5c-5.1,6.6-12.2,9.6-20.2,10.5c-23,2.6-42.5-12.5-45.9-35.4c-2.1-14.2,0.4-27.4,9.1-39
			c15.9-21,42.8-17.1,55.3-6.1c1.5,1.4,3.2,2.5,4.5,3.5v-10.1H460.4z"/>
		<path d="M213.8,402.5c-6.6,0-11.7,1.8-15.5,5.6c-6.9,7-8.1,20.8-2.5,29.4c5.9,9,20.5,11.7,30.1,5.6c6.2-4,8.6-10,9.2-17.1
			C236.2,412.1,227.5,402.6,213.8,402.5 M259.7,467.5h-24.5v-11.4c-0.5,0.4-0.8,0.6-1,0.8c-8.3,9.8-18.8,14-31.5,12.5
			c-12.2-1.4-22.2-6.8-29.3-17c-4.7-6.7-7-14.2-7.7-22.3c-0.9-11,1-21.4,6.4-31.1c8.3-14.9,23-22.1,39.9-19.5
			c5.9,0.9,11.5,2.4,16.2,6.3c1.6,1.3,3,2.9,4.7,4.5v-57h26.8V467.5z"/>
		<path d="M335.4,414.5c0.5-6.4-3.6-12.6-9.6-15c-7.2-2.9-16.5-0.7-21.6,5.2c-2.4,2.8-3.7,6-3.9,9.8H335.4z M362.2,432.7h-62
			c1.6,7.2,5.3,12.8,12.2,15.2c11.1,3.9,20,0.3,27-9c6.3,4.6,12.5,9.1,18.7,13.7c-3.6,4.6-7.9,8.2-12.9,11
			c-19.2,10.7-43.1,6.6-57-5.5c-10.6-9.3-15.3-21.2-14.9-35.2C274,401,288.8,384,310.8,380c7.1-1.3,14.2-1.5,21.2,0.1
			c12,2.8,20.5,9.9,25.7,21.1C362.3,411.2,362.6,421.8,362.2,432.7"/>
		<path d="M154.9,467.5h-26.7c0-0.8,0-1.5,0-2.3c-0.1-15.1-0.1-30.2-0.2-45.3c0-2.1-0.2-4.3-0.7-6.4c-1.9-8.5-7.1-12-15.7-10.9
			c-7.1,0.9-11.6,5.2-12.7,12.7c-0.5,3.3-0.7,6.7-0.7,10c-0.1,13.3,0,26.6,0,40v2.1H71.6v-86.2h25.6v11.5c0.4-0.3,0.6-0.3,0.7-0.5
			c5.4-8.7,13.6-12.7,23.5-13.2c6.4-0.4,12.8,0.3,18.6,3.4c7.6,4,11.7,10.6,13.2,18.7c1.1,5.8,1.7,11.8,1.8,17.8
			c0.2,15.7,0.1,31.3,0.1,47C155,466.4,154.9,466.9,154.9,467.5"/>
		<path d="M464.6,467.6h-1.9c-9.3,0-18.7,0-28,0c-1.2,0-1.9-0.4-2.6-1.4c-5.6-8.6-11.2-17.1-16.8-25.7c-0.3-0.5-0.6-0.9-1.1-1.6
			c-0.4,0.5-0.7,0.8-1,1.2c-6.1,8.6-12.2,17.3-18.3,25.9c-0.8,1.2-1.7,1.6-3.1,1.6c-9.1-0.1-18.1,0-27.2,0h-2.2
			c2.5-3.4,4.7-6.4,7-9.5c8.7-11.8,17.4-23.5,26.2-35.2c0.8-1.1,1-1.8,0.1-3.1c-8.9-12.2-17.7-24.5-26.6-36.8
			c-0.4-0.5-0.7-1-1.3-1.9h2c9.3,0,18.7,0,28,0c1.2,0,1.9,0.4,2.6,1.4c4.4,6.8,8.8,13.5,13.2,20.3c0.3,0.5,0.7,1,1.2,1.7
			c1.8-2.9,3.6-5.7,5.4-8.4c2.9-4.6,5.8-9.3,8.8-13.8c0.4-0.5,1.2-1.1,1.8-1.1c9.1-0.1,18.2,0,27.3,0c0.3,0,0.6,0.1,1.2,0.1
			c-0.4,0.6-0.7,1.1-1,1.5c-8.7,12.4-17.4,24.9-26.2,37.3c-0.7,1-0.7,1.5,0,2.5c10.5,14.5,21,29,31.5,43.6
			C463.9,466.5,464.1,466.9,464.6,467.6"/>
	</g>
	<rect x="235.4" y="241.3" width="26.6" height="86.2"/>
	<g>
		<path d="M248.5,229.5c-8.8-0.2-15.4-7.1-15.3-15.9c0.1-8.5,7.3-15.2,16-15c8.6,0.2,15.3,7.3,15.1,16.1
			C264.1,222.9,256.9,229.7,248.5,229.5"/>
		<path d="M535.9,296.1c-5.7,0-11.4,0.1-17.1,0c-3.8-0.1-6.1-3.6-4.7-6.9c0.8-2,2.4-3.1,4.5-3.1c11.4,0,22.9,0,34.3,0
			c2.9,0,5,2.3,5,5c0,2.7-2.1,4.9-5,5C547.3,296.1,541.6,296.1,535.9,296.1"/>
		<path d="M535.8,392.4c-5.6,0-11.3,0.1-16.9,0c-3.8,0-6.2-3.4-4.8-6.8c0.8-2.1,2.5-3.2,4.6-3.2c11.4,0,22.8-0.1,34.2,0
			c3,0,5.2,2.3,5.1,5.1c-0.1,2.7-2.2,4.9-5.1,4.9C547.2,392.5,541.5,392.4,535.8,392.4"/>
		<path d="M535.9,344.2c-5.7,0-11.4,0.1-17.1,0c-3.7,0-6-3.4-4.7-6.7c0.8-2.1,2.4-3.2,4.6-3.2c11.4,0,22.9-0.1,34.3,0
			c2.9,0,5,2.3,5,5c0,2.7-2.2,4.9-5.1,4.9C547.3,344.3,541.6,344.2,535.9,344.2"/>
		<path d="M543.6,272c-3,0-6,0-9,0c-3.1,0-5.3-2.1-5.3-5c0-2.9,2.2-5,5.3-5c6,0,12,0,18.1,0c3.1,0,5.3,2.1,5.3,5c0,2.8-2.2,5-5.3,5
			C549.7,272,546.7,272,543.6,272"/>
		<path d="M543.7,320.2c-3,0-5.9,0-8.9,0c-3.3,0-5.5-2.1-5.5-5c0-2.9,2.2-5,5.5-5c5.9,0,11.8,0,17.7,0c3.3,0,5.5,2.1,5.5,5
			c0,2.9-2.2,5-5.5,5c-0.1,0-0.1,0-0.2,0C549.5,320.2,546.6,320.2,543.7,320.2"/>
		<path d="M543.6,358.4c3,0,6,0,9,0c3.1,0,5.4,2.1,5.4,5c0,2.9-2.2,5-5.3,5c-6,0-12,0-18.1,0c-3.1,0-5.3-2.1-5.3-5
			c0-2.9,2.2-4.9,5.3-5C537.6,358.3,540.6,358.4,543.6,358.4"/>
	</g>
</g>
</svg>
