<?xml version="1.0" encoding="utf-8"?>
<!-- Generator: Adobe Illustrator 19.0.0, SVG Export Plug-In . SVG Version: 6.00 Build 0)  -->
<svg version="1.1" id="layer" xmlns="http://www.w3.org/2000/svg" xmlns:xlink="http://www.w3.org/1999/xlink" x="0px" y="0px"
	 viewBox="-153 -46 652 652" style="enable-background:new -153 -46 652 652;" xml:space="preserve">
<style type="text/css">
	.st0{fill:#EB1C23;}
	.st1{fill:#F6921E;}
	.st2{fill:#00ACED;}
	.st3{fill:#61B946;}
	.st4{fill:#494949;}
</style>
<path id="XMLID_70_" class="st0" d="M-29.3,173.4c28.5,0.5,52.9,10.6,72.9,30.9c13.1,13.3,21.8,29.3,26.2,47.5
	c1.2,5.1,2,10.3,2.4,15.6c0.4,4.9,0.4,9.8,0.1,14.6c-0.7,10-2.7,19.7-6,29.2c-4.6,13.2-11.6,25-21.3,35.1
	C34.1,357.8,21.2,366,6.3,371c-6.6,2.2-13.3,3.9-20.2,5c-7.2,1.1-14.3,1.4-21.6,0.9c-11.7-0.7-22.9-3.3-33.7-7.9
	c-5.2-2.2-10.2-4.9-15-8c-0.6-0.4-1.1-0.8-1.2-1.6c-0.2-1.5,1-2.6,2.5-2.2c2.1,0.6,4.2,1.3,6.4,1.8c4.8,1.2,9.7,1.9,14.7,2.2
	c4.3,0.3,8.6,0.3,12.9-0.1c8.8-0.7,17.4-2.6,25.6-5.9c23.5-9.2,39.5-25.6,48-49.4c2.4-6.6,4-13.5,4.8-20.5
	c2.8-27-5.1-50.6-23.8-70.2c-12-12.6-26.7-20.6-43.8-24.3c-6.6-1.5-13.4-2.1-20.1-1.9c-9.7,0.3-19.1,2.1-28.1,5.5l-0.9,0.3
	c-0.6,0.1-1.2-0.2-1.5-0.7l0.3-1.6l0.7-0.5c11-7.8,23.1-13.2,36.3-16.1C-43.9,174.2-36.9,173.4-29.3,173.4"/>
<path id="XMLID_69_" class="st1" d="M18.7,273.3c0,13.1-2.3,23.7-7,33.7c-1.8,3.9-4,7.7-6.5,11.2L4.6,319c-0.6,0.6-1.5,0.8-2.3,0.5
	c-0.8-0.3-1.3-1.1-1.2-2l0.3-1.4c1.5-5.9,1.9-12,1.5-18.1c-0.5-7.6-2.3-14.9-5.6-21.8c-1.8-3.8-4.2-7.3-6.8-10.5
	c-5-6.1-10.8-11.3-17.5-15.4c-4-2.4-8.4-4-13-5.3c-6.8-1.9-13.7-2.6-20.7-2c-12.4,0.9-23.5,5.3-33.2,13.2
	c-9.2,7.5-15.6,17-19.2,28.3c-1.3,4.1-2.1,8.4-2.5,12.7c-0.6,7.8,0.2,15.4,2.5,22.8l0.2,0.7c0.1,0.6-0.2,1.1-0.7,1.4l-1.5-0.2
	l-0.7-0.8c-7-9-11.7-19.1-14-30.3c-0.7-3.2-1.1-6.4-1.4-9.7c-0.3-3.4-0.3-6.8-0.1-10.2c0.5-8.9,2.5-17.4,6.1-25.5
	c4.2-9.6,10.1-17.9,17.7-25c9.9-9.2,21.4-15.3,34.6-18.3c4.2-1,8.5-1.5,12.8-1.7c13.1-0.6,25.6,1.9,37.4,7.5
	c15.4,7.3,26.7,18.9,33.9,34.3c3,6.4,4.9,13.1,6.1,20C18.4,266.6,18.7,270.9,18.7,273.3"/>
<path id="XMLID_68_" class="st2" d="M-8.2,302.2c0,11.3-3.6,21.4-10.7,30.1c-7,8.6-16,14.2-26.8,16.8c-4.6,1.1-9.3,1.4-14,1.1
	c-10.2-0.8-19.4-4.4-27.3-11c-7-5.9-12-13.1-15-21.8c-1.2-3.5-1.9-7.1-2.2-10.9c-0.2-2.4-0.3-4.9-0.1-7.3c0.3-5.5,1.6-10.8,3.8-15.9
	c2.1-4.8,4.8-9.1,8.3-13l0.8-0.8c0.6-0.5,1.3-0.5,1.9-0.2c0.6,0.3,1,0.8,1,1.6c0,0.7-0.2,1.4-0.2,2.2c-0.3,6,0.7,11.7,3.5,17
	c4.9,9.2,12.5,15,22.8,17.2c2.7,0.6,5.5,0.8,8.3,0.6c6.9-0.5,13.1-2.9,18.4-7.3c4.9-4,8.3-9,10.3-14.9c1.2-3.5,1.7-7.1,1.6-10.8
	l0-1.2c0-1.2,0.7-2.2,1.8-2.6c1.1-0.4,2.2-0.1,3,0.8c1.1,1.3,2.1,2.7,3,4.1c3.1,4.7,5.3,9.9,6.6,15.4
	C-8.6,294.8-8.1,298.5-8.2,302.2"/>
<path id="XMLID_67_" class="st3" d="M-56.2,254.1c11.5-0.1,21.3,9.5,21.2,21.3c-0.1,11.6-9.5,21.1-21.2,21.2
	c-11.7,0-21.3-9.5-21.3-21.3C-77.5,263.3-67.6,253.9-56.2,254.1"/>
<path id="XMLID_2_" class="st4" d="M351.7,312.3l0.8-0.9c4.4-4.9,11.2-5.4,15.8-3.2c2,1,3.4,2.4,4.5,4.3l0.5-0.4
	c2.7-3.3,6.2-4.9,10.4-5.2c2.4-0.2,4.8,0.2,7,1.3c3.7,1.8,5.5,4.9,6.2,8.8c0.4,1.9,0.4,3.9,0.4,5.9v21.3v0.6l-0.4,0.4h-0.4h-9
	c-0.9,0-0.9,0-0.9-0.9c0-7,0-14.1,0-21.1c0-0.9,0-1.9-0.2-2.8c-0.6-3.2-2.9-4.8-6.1-4.4c-3.3,0.5-5.2,2.5-5.4,5.8
	c-0.1,0.9-0.1,1.7-0.1,2.6c0,6.5,0,13,0,19.5v0.6l-0.7,0.7h-0.2c-3.1,0-6.1,0-9.2,0c-0.7,0-0.7,0-0.8-0.7l0-0.7c0-7,0-14,0-21
	c0-0.7-0.1-1.5-0.1-2.2c-0.3-2.8-2.1-4.4-4.9-4.6c-2.7-0.1-6,1.1-6.6,5.4c-0.1,0.8-0.2,1.6-0.2,2.4v20.2v0.8l-0.4,0.4l-0.4,0h-9.1
	c-0.9,0-0.9,0-0.9-0.9v-35.2c0-0.9-0.1-0.9,0.9-0.9c2.8,0,5.6,0,8.4,0c0.8,0,0.9-0.1,0.9,0.9C351.6,310.2,351.7,311.2,351.7,312.3
	 M229.6,354.2c1.7,1.9,3.6,3.2,5.8,4.2c3.7,1.7,7.6,2.3,11.6,2.4c3.6,0,7.2-0.4,10.6-1.7c4.7-1.9,8-5.1,9.4-10.1
	c0.7-2.5,0.8-5.1,0.8-7.6v-31.7v-0.7l-0.5-0.5l-1.6,0c-2.5,0-4.9,0-7.4,0c-0.8,0-0.8,0-0.8,0.7c0,0.8,0,1.7-0.1,2.5l-0.2,1l-0.3-0.2
	c-4.1-4.7-9.3-6.2-15.3-5c-5.6,1.1-9.5,4.4-11.9,9.5c-2.4,5-2.6,10.2-1.3,15.4c0.9,3.6,2.6,6.6,5.5,9c3.6,2.9,7.8,4,12.4,3.5
	c3.9-0.4,7.3-2,10.1-4.8l0.3,0c0,1.6,0.1,3.3-0.1,5c-0.4,3.4-2.4,5.6-5.7,6.6c-1.4,0.5-2.9,0.6-4.4,0.6c-4.1,0-7.8-1.2-10.8-4l-1,0
	C233.2,350.1,231.4,352.1,229.6,354.2 M257.1,325.7c0,2.6-0.5,4.8-1.7,6.8c-3.2,5-9.7,5-12.9,2.3c-1.2-1-2.1-2.2-2.6-3.7
	c-1.3-3.5-1.3-7,0.2-10.4c1.5-3.4,4.1-5.3,7.8-5.4c3.8-0.1,6.5,1.8,8.2,5.2C256.8,322.2,257.1,324.1,257.1,325.7 M122.7,341.9
	l0.7,0.5c1.3,1.3,2.7,2.2,4.4,2.9c3.6,1.4,7.2,1.5,10.9,0.7c5.7-1.3,9.7-4.8,12-10.1c2.4-5.3,2.5-10.8,0.9-16.3
	c-2.1-7.1-6.8-11.5-14.2-12.5c-5.6-0.7-10.5,1-14.5,5.1l-0.7,0.6c0-1.2-0.1-2.4-0.1-3.7c0-0.9-0.1-0.8-0.9-0.8c-2.8,0-5.5,0-8.3,0
	c-1.1,0-1-0.1-1,1v0.5v45.6c0,1.1,0,2.3,0,3.4c0,0.7,0,0.7,0.8,0.7c3.1,0,6.1,0,9.1,0c1,0,0.9,0,0.9-0.9v-14.1V341.9 M141.5,327.8
	c0,1.4-0.4,3.6-1.7,5.7c-1.7,2.7-4.1,4.2-7.4,4.3c-5.2,0.2-8.4-3-9.5-6.8c-0.9-3.1-0.9-6.2,0.3-9.2c1.3-3.2,3.5-5.4,7.1-6
	c3.9-0.6,7.7,0.9,9.7,4.8C141.1,322.6,141.5,324.7,141.5,327.8 M196.5,256v-16.4c0-0.9,0-1-1-1c-3,0-6,0-8.9,0c-0.9,0-0.9,0-0.9,0.9
	v0.8v36.6v12.8c0,1.1-0.1,1,1,1h8.7c1.2,0,1.1,0.1,1.1-1.1v-18c0-1.2,0-2.4,0.2-3.6c0.4-2.7,1.7-4.8,4.4-5.9
	c1.8-0.7,3.6-0.8,5.4-0.4c2.3,0.5,3.7,2,4.2,4.2c0.3,1.1,0.3,2.2,0.3,3.3v20.5c0,1.1,0,1,1,1c3,0,6,0,9,0c0.8,0,0.8,0,0.8-0.8v-0.3
	c0-7.1,0-14.2,0-21.3c0-1.8-0.1-3.6-0.4-5.4c-0.9-5.2-3.9-8.6-9-10.1c-3.1-0.9-6.2-0.7-9.2,0.2c-2.6,0.7-4.7,2.1-6.8,4.2V256z
	 M204.2,346.5c1.8,0,3.8-0.2,5.7-0.6c6.5-1.6,11-5.4,13.4-11.6c1.5-3.8,1.8-7.8,0.9-11.9c-1.6-7.2-5.8-12.2-13-14.4
	c-4.9-1.5-9.9-1.4-14.8,0.1c-5,1.6-8.8,4.7-11,9.5c-2.7,5.7-2.8,11.6-0.4,17.4c2.1,5,5.7,8.4,10.8,10.2
	C198.3,346.1,201.1,346.5,204.2,346.5 M194.4,326.8c0-2.7,0.6-5.1,2-7.3c1.4-2.1,3.4-3.4,5.9-3.7c1.4-0.2,2.8-0.2,4.1,0.1
	c2.6,0.6,4.6,2.1,5.8,4.5c1.2,2.3,1.5,4.7,1.4,7.3c-0.1,1.9-0.5,3.7-1.4,5.4c-1.6,3-4.2,4.6-7.6,4.8c-6.2,0.3-9-4-9.8-8
	C194.5,328.8,194.4,327.7,194.4,326.8 M407.9,291.8c1.9,0,3.7-0.1,5.4-0.5c6.6-1.4,11.4-5.1,13.9-11.4c2-4.9,2-9.9,0.3-14.9
	c-2.1-5.9-6.1-9.8-12.1-11.6c-5.1-1.5-10.2-1.5-15.2,0.1c-5.3,1.7-9,5.2-11.2,10.3c-2.2,5.3-2.3,10.6-0.2,16
	c2,5.1,5.6,8.7,10.7,10.6C402.2,291.5,405.1,291.9,407.9,291.8 M417.6,271.9c0,2.6-0.4,4.9-1.7,6.9c-1.6,2.6-3.9,4-7,4.2
	c-1.3,0.1-2.6,0-3.8-0.3c-2.6-0.8-4.4-2.5-5.5-4.9c-1.8-4-1.7-8,0.2-12c1.5-3.2,4.2-4.7,7.7-4.9c2.6-0.1,4.9,0.5,6.8,2.3
	c1.6,1.5,2.5,3.4,2.9,5.5C417.5,269.9,417.6,271,417.6,271.9 M427.3,253.7l0.2,1c3.8,8.9,7.7,17.9,11.5,26.8
	c1.2,2.7,2.3,5.4,3.5,8.1l0.2,1c-0.7,1.4-1.2,3-2.2,4.3c-0.9,1.2-2,1.9-3.5,2.2c-1.5,0.3-3,0.1-4.5-0.4c-0.8-0.3-0.8-0.3-1.2,0.5
	c-0.7,1.7-1.4,3.4-2.1,5.1c-0.8,1.8-0.8,1.9,1.1,2.6c2.6,1.1,5.3,1.3,8,1.1c4.4-0.4,8-2.4,10.6-6c1.3-1.8,2.3-3.7,3.1-5.7
	c5.4-13.2,10.9-26.4,16.3-39.5l0.3-1H468c-3.1,0-6.2,0-9.4,0c-1.1,0-0.8-0.2-1.2,0.9c-2.9,7.4-5.8,14.8-8.7,22.2l-0.6,1.2l-0.4-1
	c-1.5-3.8-3-7.5-4.4-11.3c-1.5-3.8-3-7.5-4.4-11.3l-0.9-0.7C434.5,253.7,430.9,253.7,427.3,253.7 M140.8,279.1l-0.4,0.4
	c-3.5,3.2-7.5,4.5-12.2,4c-3.9-0.4-6.8-3.1-7.5-6.8c-0.2-1.2-0.2-1.2,1-1.2h24.6h0.8l0.5-0.5c0-0.6,0-1.2,0-1.8
	c-0.1-2.9-0.3-5.8-1.2-8.6c-1.9-5.9-5.6-9.9-11.6-11.5c-3.2-0.9-6.5-0.9-9.8-0.3c-5.7,1-10.2,4-12.9,9.1c-2.9,5.5-3.3,11.3-1.6,17.2
	c1.8,6,5.8,10,11.8,11.8c3.6,1.1,7.3,1.2,11,0.7c4.8-0.6,8.9-2.6,12.3-6.1l0.8-1C144.6,282.7,142.7,280.9,140.8,279.1 M120.6,268
	c0.6-3.4,2.1-6.1,5.4-7.3c2-0.7,4.1-0.7,6.1,0c2.6,0.9,3.9,2.9,4.7,5.4l0,0.1c0.5,1.8,0.5,1.8-1.5,1.8h-13.5L120.6,268 M307.6,287
	c0.1,1,0.1,2,0.2,3c0.1,0.7,0,0.7,0.8,0.7c2.7,0,5.4,0,8.1,0h0.2l0.6-0.5v-0.5c0-6.6,0-13.2,0-19.8c0-2-0.1-4.1-0.5-6.1
	c-1.1-5.3-4.1-8.9-9.3-10.5c-4.7-1.5-9.4-1.4-14.1-0.1c-3.4,0.9-6.3,2.6-8.9,5c-0.6,0.5-0.6,0.6-0.1,1.2c1.3,1.6,2.6,3.2,3.9,4.8
	c0.7,0.9,0.7,0.9,1.6,0.2c3.5-2.7,7.3-4.3,11.9-3.5c2.7,0.4,4.4,1.9,4.9,4.4c0.1,0.6,0.1,1.2,0.2,1.8l-0.7,0.6c-1.2,0-2.4,0-3.5,0
	c-2.1,0-4.2,0-6.3,0.1c-2.1,0.2-4.3,0.6-6.2,1.4c-5.1,2.3-7.8,6-7.7,11.3c0.1,4.7,2.7,8.4,7,10.1c2.3,0.9,4.8,1.2,7.2,1
	c3.8-0.2,7.2-1.5,10-4.1L307.6,287 M302.8,274.4c1.2,0,2.5,0,3.7,0l0.6,0.5c0,1.1,0,2.2-0.2,3.2c-0.7,3.1-3,5.2-6.2,5.8
	c-1.5,0.3-3.1,0.3-4.6-0.2c-1.8-0.6-2.9-1.9-3-3.7c-0.2-2,0.5-3.6,2.4-4.6c1.2-0.6,2.4-0.9,3.7-0.9c1.2-0.1,2.4,0,3.6,0V274.4
	 M307.3,319.6l1.3-1c3.1-2.3,6.5-3.6,10.5-3.3c3.7,0.3,5.8,2.1,6,5.7c0.1,1.2,0.1,1.1-1.1,1.2c-3.4,0.1-6.7-0.2-10.1,0.2
	c-2.5,0.3-4.8,0.9-7,2.1c-3.7,2.1-6,5.1-6.2,9.5c-0.2,5,2,9,6.7,11c2.8,1.2,5.8,1.5,8.9,1.1c3.3-0.4,6.2-1.7,8.6-3.9l0.7-0.5
	c0.2,0.9,0.1,1.9,0.2,2.9c0.1,0.8,0.1,0.8,0.8,0.8c1.8,0,3.7,0,5.5,0c0.8,0,1.7,0,2.5,0c0.9,0,0.9,0,0.9-0.8v-0.2
	c0-6.1,0-12.1,0-18.2c0-2.3,0-4.7-0.4-6.9c-0.9-5.8-4.2-9.7-9.9-11.3c-4.6-1.3-9.3-1.2-13.9,0.1c-3.3,0.9-6.2,2.5-8.7,5
	c-0.5,0.5-0.5,0.6,0,1.2c1.4,1.7,2.8,3.4,4.1,5.1L307.3,319.6 M321.2,329.1c1.1,0,2.1,0,3.2,0l0.7,0.6c0,0.9,0,1.9-0.2,2.8
	c-0.4,2.1-1.4,3.8-3.3,4.9c-2.3,1.4-4.8,1.6-7.4,1c-2-0.5-3.1-1.9-3.3-3.8c-0.2-2.1,0.7-3.7,2.6-4.5c1.6-0.8,3.3-0.9,5-1
	C319.5,329,320.4,329.1,321.2,329.1 M384.5,281.8l-0.1,0l-0.9,0.3c-2.3,0.7-4.7,1-7.1,0.3c-2-0.6-3.2-1.9-3.6-3.9
	c-0.2-1.1-0.3-2.1-0.3-3.2c0-4,0-8,0-12l0-0.6l0.4-0.4h0.7c3.6,0,7.3,0,10.9,0c0.8,0,0.8,0,0.8-0.8c0-2.3,0-4.6,0-7
	c0-0.9,0-0.9-0.9-0.9h-9.7c-0.6,0-1.2,0-1.8,0l-0.6-0.6v-0.6c0-3.1,0-6.1,0-9.2c0-0.9,0-0.9-0.8-0.9c-1.3,0-2.7,0-4.1,0h-5.9v5.5
	v5.7h-7.8l-0.1,0.5c0,2.5,0,5,0,7.5c0,0.5,0.1,0.8,0.7,0.7l0.5,0c1.8,0,3.7,0,5.5,0c1.4,0,1.2-0.2,1.2,1.2c0,0.8,0,1.5,0,2.3
	c0,3.8,0,7.7,0,11.5c0,1.3,0.1,2.6,0.3,3.8c0.8,5.2,3.8,8.6,8.9,9.9c3.5,0.9,7,0.9,10.5,0.3c1.8-0.3,3.5-0.8,5.2-1.5
	c0.9-0.4,0.9-0.4,0.6-1.3c-0.7-2-1.5-4-2.2-6L384.5,281.8 M156.4,271.7c0,2.1,0,4.2,0,6.2c0,2,0.2,4,0.8,5.8c1.3,4,4.2,6.3,8.2,7.4
	c3.6,0.9,7.2,0.9,10.8,0.3c1.8-0.3,3.4-0.8,5.1-1.5c0.8-0.4,0.8-0.4,0.5-1.2c-0.4-1.1-0.8-2.1-1.2-3.2c-0.4-1.1-0.8-2.1-1.2-3.2
	l-0.8-0.4l-0.5,0.2c-2.1,0.6-4.2,0.9-6.4,0.5c-2.2-0.5-3.7-1.7-4.3-4c-0.2-0.8-0.3-1.6-0.3-2.5c0-4.4,0-8.7,0-13.1v-0.2l0.5-0.5h0.7
	c3.6,0,7.1,0,10.7,0c1,0,1,0,1-0.9c0-2.3,0-4.6,0-6.9c0-1,0-0.9-0.9-0.9c-3.7,0-7.4,0-11.1,0c-1,0-0.9,0-0.9-0.9c0-3.1,0-6.3,0-9.5
	c0-0.9,0.1-0.9-0.8-0.9c-3.1,0-6.1,0-9.1,0c-0.8,0-0.8,0-0.8,0.9c0,3.2,0,6.4,0,9.6c0,0.8,0,0.8-0.8,0.8c-2.1,0-4.2,0-6.3,0
	c-0.8,0-0.8,0-0.8,0.8c0,2.4,0,4.7,0,7.1c0,0.8,0,0.8,0.9,0.8c2,0,4,0,5.9,0c1.3,0,1.1-0.2,1.1,1.2
	C156.4,266.3,156.4,269,156.4,271.7 M273.9,278.4l-0.5,0.5c-2.8,3-6.3,4.5-10.4,4.2c-3.5-0.3-6.1-1.9-7.6-5.1
	c-1.9-4-1.8-8.1,0.3-12.1c1.4-2.6,3.6-4.2,6.5-4.7c3-0.5,5.7,0.2,8.3,1.7c1.2,0.7,2.2,1.6,3.2,2.5c2.1-1.9,4.2-3.8,6.3-5.7
	c-2.1-2.7-4.7-4.6-7.7-5.8c-5.6-2.2-11.2-2.2-16.9-0.3c-5.5,1.9-9.2,5.7-11.2,11.2c-1.3,3.7-1.6,7.5-0.9,11.4
	c1.3,7.1,5.3,12.1,12.2,14.4c3.7,1.3,7.6,1.4,11.5,0.9c3.6-0.5,7-1.8,9.9-4.1c1.3-1,2.4-2.1,3.3-3.5
	C278.1,282.1,276.1,280.3,273.9,278.4 M157.8,209.8c-2.1-0.6-4-1.2-5.9-1.8c-0.7-0.2-0.7-0.2-0.9,0.5l-0.2,0.6
	c-1.2,2.7-3,4.8-5.8,5.9c-5,1.9-10.7-0.3-13.3-5.2c-1.4-2.6-1.8-5.4-1.4-8.4c0.7-6.3,5.1-10.1,9.9-10.5c3.4-0.3,6.3,0.6,8.6,3.2
	c0.9,1.1,1.6,2.4,2,3.7c0.2,0.7,0.2,0.7,0.9,0.5c1.7-0.5,3.4-1.1,5.1-1.6c0.8-0.3,0.8-0.3,0.5-1.1c-1.2-4-3.7-7-7.4-9
	c-3.6-1.9-7.4-2.5-11.4-1.9c-6.7,1-11.5,4.5-14.2,10.7c-1.7,3.8-1.9,7.7-1.2,11.7c0.9,4.9,3.3,8.8,7.4,11.6c2.6,1.8,5.4,2.7,8.5,3.1
	c4.1,0.4,8.1-0.2,11.7-2.4C154.3,217.3,156.6,214.1,157.8,209.8 M323.4,289.7c0,1.2,0,1,1,1c3,0,6,0,8.9,0c0.8,0,0.8,0,0.8-0.8v-0.6
	v-40.2c0-3.2,0-6.4,0-9.6c0-1.2-0.1-0.9-1-0.9h-8.6c-1.3,0-1.2-0.2-1.2,1.2v24.8V289.7z M167.2,314.4l-0.2,0v-1
	c0-1.4-0.1-2.7-0.1-4.1c0-0.9,0-0.9-0.9-0.9c-2.8,0-5.7,0-8.5,0c-0.8,0-0.9,0-0.9,0.9v35.2c0,0.9,0,0.9,0.9,0.9c3,0,6,0,8.9,0h0.2
	c0.5,0.1,0.8-0.1,0.7-0.7l0-0.6c0-4.6,0-9.3,0-13.9c0-1.4,0-2.8,0.3-4.2c0.9-4.2,3.4-7,7.6-8.1c1.8-0.5,3.7-0.4,5.6-0.4
	c0.7,0,0.7,0,0.7-0.7c0-2.9,0-5.9,0-8.8c0-0.8,0-0.8-0.9-0.9c-3.4-0.1-6.4,1-9.2,2.8C169.9,311,168.4,312.5,167.2,314.4 M284,314.3
	c-0.1-1.7-0.1-3.4-0.2-5.2c0-0.7,0-0.7-0.8-0.7c-2.9,0-5.8,0-8.6,0c-0.8,0-0.8,0-0.8,0.9v35.3c0,0.8,0,0.8,0.9,0.8h7.5
	c0.6,0,1.2,0,1.8,0c0.6,0,0.8-0.2,0.7-0.7l0-0.6c0-4.6,0-9.2,0-13.8c0-1.5,0.1-3,0.4-4.4c0.9-4,3.3-6.7,7.2-7.9
	c1.9-0.6,3.9-0.5,5.9-0.5c0.8,0,0.8,0,0.8-0.7c0-2.9,0-5.8,0-8.7c0-0.9,0-0.9-0.9-0.9c-3.7-0.1-6.9,1.1-9.8,3.3
	C286.5,311.4,285.2,312.8,284,314.3 M173.9,185.5H159c-0.8,0-0.8,0-0.8,0.8c0,1.7,0,3.3,0,5c0,0.8,0,0.8,0.9,0.8c3.3,0,6.5,0,9.8,0
	c1.2,0,1.1-0.2,1.1,1.1c0,7.7,0,15.3,0,23c0,1.5,0,2.9,0,4.4l0.7,0.7c2.1,0,4.2,0,6.3,0c0.8,0,0.8,0,0.8-0.8v-0.7V193
	c0-0.9-0.1-0.9,0.9-0.9c2.9,0,5.9,0,8.8,0c0.6,0,1.5,0.3,1.9-0.1c0.5-0.5,0.1-1.3,0.2-2c0-1.2,0-2.5,0-3.7c0-0.5-0.1-0.8-0.7-0.7
	l-0.6,0H173.9 M238.5,272.2v-17.6c0-1,0.1-0.9-1-0.9h-9c-0.9,0-0.8,0-0.8,0.9v12.2v23.1c0,0.9,0,0.9,0.9,0.9c2.6,0,5.2,0,7.8,0h1.6
	l0.6-0.5v-0.7V272.2 M118.3,203.3v-17c0-0.8,0-0.8-0.8-0.8c-2,0-4,0-5.9,0c-1.3,0-1.2-0.1-1.2,1.2V220l0,0.6l0.6,0.6
	c2.2,0,4.5,0,6.8,0l0.5-0.6V220V203.3 M201.3,203.4v-17c0-0.8,0-0.8-0.9-0.8c-2,0-3.9,0-5.9,0c-1.2,0-1.1-0.1-1.1,1.1v33.5v0.6
	l0.6,0.5c0.7,0,1.3,0,2,0c1.6,0,3.1,0,4.7,0l0.7-0.6l0-0.7V203.4 M233.1,249.4c3.2,0.1,5.9-2.1,6.1-5.5c0.1-2.7-1.4-4.9-3.8-5.8
	c-2.6-1-5.6-0.1-7.2,2c-1.4,1.9-1.5,4.1-0.5,6.2C228.8,248.4,230.7,249.3,233.1,249.4"/>
</svg>
