<svg xmlns="http://www.w3.org/2000/svg" class="" viewBox="0 0 758 122"><g><path d="m171.753 2.43359c-4.936 0-9.152 4.14899-9.152 9.12781 0 5.0825 4.01 9.2315 9.152 9.2315 5.141 0 9.049-4.2528 9.049-9.2315 0-4.97882-4.114-9.12781-9.049-9.12781z"></path><path d="m178.539 94.5411v-62.2348h-13.567v-.0927h-13.574v13.6917h13.568v48.6358z"></path><path d="m202.597 32.2027h-13.677v62.3385h13.574v-30.5988c0-13.4842 6.889-20.4337 15.939-20.4337 7.918 0 12.853 5.8086 12.853 15.7661v35.1627h13.574v-37.4446c0-15.8699-9.255-26.0349-23.548-26.0349-8.021 0-14.911 3.4229-18.715 9.7501z"></path><path d="m251.135 75.5774h14.088c1.131 6.8459 6.684 9.2315 12.751 9.2315s9.975-2.2819 9.975-6.6383c0-4.3565-2.674-6.6384-9.152-8.1943l-10.078-2.6968c-10.694-2.9043-15.836-9.7501-15.836-18.7742 0-10.4762 9.152-17.4257 22.931-17.4257 13.78 0 22.623 7.4682 23.549 18.6704h-13.574c-1.337-5.3937-5.347-7.6756-10.077-7.6756-5.348 0-9.049 2.3857-9.049 6.3272s2.982 6.1198 8.226 7.4682l10.386 2.6968c11.208 2.9043 16.35 9.3352 16.35 18.7742 0 12.032-10.386 18.4629-24.165 18.4629-13.78 0-25.811-7.5719-26.428-20.1225z"></path><path clip-rule="evenodd" d="m309.548 32.2027v88.2693h13.574v-34.3325c3.496 4.9788 11.003 9.5427 19.846 9.5427 16.864 0 29.718-14.5215 29.718-32.3621s-12.854-32.3621-29.718-32.3621c-8.843 0-16.35 4.5639-19.846 9.5427v-8.298zm30.952 11.306c10.9 0 18.407 8.7129 18.407 19.9151 0 11.2023-7.404 19.9151-18.407 19.9151s-18.509-8.7128-18.509-19.9151c0-11.2022 7.609-19.9151 18.509-19.9151z" fill-rule="evenodd"></path><path clip-rule="evenodd" d="m377.931 63.2679c.024-18.437 12.563-32.3099 31.672-32.3099 19.126 0 32.186 14.5215 30.849 35.6813h-49.05c.411 9.4389 7.712 16.9071 18.612 16.9071 6.89 0 12.751-2.6969 15.528-8.7129h14.19c-3.599 11.6172-14.396 20.7449-30.232 20.7449-18.39 0-31.545-13.6664-31.569-32.3105zm13.779-6.275h34.14c-2.056-10.0613-9.152-14.5215-16.658-14.5215-8.535 0-15.631 4.9788-17.482 14.5215z" fill-rule="evenodd"></path><path d="m377.931 63.2679v.0522-.1037z"></path><path d="m477.987 30.958c-18.679 0-32.237 14.3622-32.289 32.2583v-.1037.2075-.1038c.052 17.8961 13.61 32.2584 32.289 32.2584 16.35 0 28.175-10.165 31.363-23.9604h-14.293c-2.468 6.8459-8.535 11.6172-17.07 11.6172-11.003 0-18.51-8.298-18.51-19.9151 0-11.6172 7.507-19.9152 18.51-19.9152 8.535 0 14.602 4.7714 17.07 11.6172h14.293c-3.291-13.7954-15.116-23.9604-31.363-23.9604z"></path><path d="m524.258 74.4102v-29.9764h-12.854v-12.2395h12.854v-17.322h13.574v17.322h17.584v12.2395h-17.584v27.6945c0 7.7793 3.29 10.5799 10.386 10.5799 2.571 0 5.347-.4149 7.301-1.2447v12.1358c-2.879.8298-5.759 1.3484-10.078 1.3484-11.825 0-21.08-6.5346-21.08-20.6412z"></path><path clip-rule="evenodd" d="m590.69 30.958c-18.201 0-32.289 14.314-32.289 32.3621s14.088 32.3621 32.289 32.3621 32.289-14.314 32.289-32.3621-14.088-32.3621-32.289-32.3621zm0 12.6544c10.9 0 18.51 8.6091 18.51 19.7077 0 10.9948-7.507 19.6039-18.51 19.6039s-18.612-8.5054-18.612-19.6039c0-11.0986 7.712-19.7077 18.612-19.7077z" fill-rule="evenodd"></path><path d="m629.656 32.1888h13.574v11.0985c2.365-7.0533 9.255-11.7209 16.247-11.7209 1.851 0 3.702.1037 5.347.5186v14.1066c-2.365-.8298-4.319-1.141-6.787-1.141-7.712 0-14.807 6.6384-14.807 18.9816v30.3913h-13.574z"></path><path d="m678.296 2.43359c-4.936 0-9.152 4.14899-9.152 9.12781 0 5.0825 4.011 9.2315 9.152 9.2315 5.142 0 9.049-4.2528 9.049-9.2315 0-4.97882-4.113-9.12781-9.049-9.12781z"></path><path d="m685.083 32.3063h-13.574v62.2348h13.574z"></path><path clip-rule="evenodd" d="m693.004 63.3201c0-18.0481 14.088-32.3621 32.289-32.3621s32.289 14.314 32.289 32.3621-14.088 32.3621-32.289 32.3621-32.289-14.314-32.289-32.3621zm50.799 0c0-11.0986-7.61-19.7077-18.51-19.7077s-18.612 8.6091-18.612 19.7077c0 11.0985 7.609 19.6039 18.612 19.6039s18.51-8.6091 18.51-19.6039z" fill-rule="evenodd"></path><ellipse cx="56.5904" cy="60.7108" rx="15.4347" ry="15.4347" transform="matrix(0 -1 1 0 -4.1204 117.3012)"></ellipse><ellipse cx="56.5904" cy="15.4347" rx="15.4347" ry="15.4347" transform="matrix(0 -1 1 0 41.1557 72.0251)"></ellipse><ellipse cx="56.5904" cy="105.985" rx="15.4347" ry="15.4347" transform="matrix(0 -1 1 0 -49.3946 162.5754)"></ellipse><ellipse cx="15.4346" cy="84.3761" rx="15.4347" ry="15.4347" transform="matrix(0 -1 1 0 -68.9415 99.8107)"></ellipse><ellipse cx="97.7498" cy="84.3753" rx="15.4347" ry="15.4347" transform="matrix(0 -1 1 0 13.3745 182.1251)"></ellipse><ellipse cx="15.4345" cy="37.0428" rx="15.4347" ry="15.4347" transform="matrix(0 -1 1 0 -21.6083 52.4773)"></ellipse><ellipse cx="97.7498" cy="37.0436" rx="15.4347" ry="15.4347" transform="matrix(0 -1 1 0 60.7062 134.7934)"></ellipse></g></svg>