<?xml version="1.0" encoding="utf-8"?>
<!-- Generator: Adobe Illustrator 25.0.1, SVG Export Plug-In . SVG Version: 6.00 Build 0)  -->
<svg version="1.0" id="Layer_1" xmlns="http://www.w3.org/2000/svg" xmlns:xlink="http://www.w3.org/1999/xlink" x="0px" y="0px"
	 viewBox="0 0 1322 898" style="enable-background:new 0 0 1322 898;" xml:space="preserve">
<style type="text/css">
	.st0{fill:#FFFFFF;stroke:#1E3933;stroke-width:3;stroke-miterlimit:10;}
	.st1{fill:#054939;}
	.st2{fill:#FFFFFF;}
	.st3{fill:#FFFFFF;stroke:#00448A;stroke-width:3;stroke-miterlimit:10;}
	.st4{fill:#00448A;}
</style>
<g>
	<circle class="st0" cx="403.3" cy="445.8" r="234.7"/>
	<circle class="st1" cx="403.3" cy="445.8" r="160.7"/>
	<g>
		<path class="st2" d="M508.6,406c-2-5.3-6.1-10-11.1-13.4c-14.5-9.2-36.6-9.9-51.5-1.5c-8.1,4.2-13.5,12.4-15.2,20.8
			c-3,13.9-2.2,30.4,8.5,40.8c12.5,10.9,30.6,13.4,46.8,8.9c0.8-0.1,3.2-0.8,4.9-1.6l0.5-0.2c5-2.1,9.8-5.5,13.4-10.1
			C513,437.7,513.6,419.6,508.6,406z M482.3,437.2c-0.6,2.6-2.3,5.4-5.1,6.4c-4.5,2-10.5,1.4-14.6-0.9c-3.5-2.4-3.9-6.5-4.3-10.3
			c-0.3-7.5-0.9-15.5,1.2-22.4c1.7-4.3,6.2-5.4,10.4-5.7c4.3,0,8.6,0.7,11.3,4.2c1.7,2.5,1.6,5.8,1.9,8.8
			C482.8,423.5,483.4,430.9,482.3,437.2z"/>
		<path class="st2" d="M350.2,444c-3.7-0.2-7.8,0.1-11.4-0.3l0.1-38.4l0.2-0.3l11-0.1c0.1-6.2,0.2-12.9-0.1-18.6l-42-0.1l-6.9,0.1
			c-0.1,5.8-0.1,12.6,0,18.5c3.8,0.1,7.4,0,11,0.3v37.2l-0.1,1.5l-11,0.2c-0.2,6.1-0.2,12,0,18.1h49.1V444z"/>
		<path class="st2" d="M473.9,470.3c-4.7,6.7-10.6,13.1-17,18.2c-0.2,0.3-0.9,0.2-1.1-0.1c-2.8-1.7-5.8-3.2-8.5-4.9
			c3.6-4.3,7-8.5,9.7-13.3h-3.5c-2.8,4.1-5.7,8.3-9.4,11.9c-4.9-2-9.4-3.7-14.4-5l-0.6-0.4c0.8-2.2,2.2-4.3,2.7-6.5h-3l-3,5.9
			c-6.6-1.4-13.8-2.2-20.5-2.6c-0.3-1,0.1-2.4-0.3-3.3h-2.9c-0.2,1.3,0.3,2.3-0.3,3.4c-6.9,0.3-13.6,1.1-20.1,2.4l-3-5.8
			c-1.1,0-2.3-0.2-3.1,0.1l2.8,6.5l-0.3,0.3c-5,1.4-9.9,3.2-14.7,5.2l-0.4-0.2c-3.1-3.4-6.1-7.1-8.6-10.8c-0.6-1.9-2.8-0.8-4-1
			c2.7,4.8,6.2,9.1,9.8,13.5c-3,1.8-6,3.7-9.1,5.1c-6.7-5-12.9-11.6-17.6-18.5c-1.3-0.2-2.2-0.1-3.6,0c8,12.5,20.5,23.4,33.5,29.9
			c0,0,0-0.1,0.1-0.1c0.1,0,0.3,0.2,0.1,0.3c8.8,4.3,18.2,7.3,28.1,8.7c34.2,4.5,66.9-10.1,85.8-38.8
			C476.5,470.2,475,470.2,473.9,470.3z M427.4,480.2l0.3-0.2c4.8,1.1,9.4,2.6,13.6,4.7c-3.6,4-8.1,7.6-12.4,10.5
			c-2.6,1.5-5.1,3.2-7.8,4.5l-4.8-2.1l0.3-0.8C420.8,491.5,424.3,486,427.4,480.2z M405.5,476.9c6.4,0.1,12.7,0.8,18.6,2.2l0.1,0.3
			c-3.1,5.9-7,11.6-11.3,17c-1.9,0.2-3.7-0.5-5.6-0.6l-1.9-0.2C405.3,489,405.1,483.3,405.5,476.9z M384,478.9c5.8-1.1,11.8-2,18-2
			l0.1,18.5c-2.3,0.5-4.9,0.5-7.1,1.1c-4.6-5.4-8.4-11.2-11.6-17.2L384,478.9z M366,484.8c4.4-2.1,8.9-3.6,13.6-4.8l0.5,0.1
			c3.2,6,7.2,11.7,11.2,17.4c-1.6,0.9-3.5,1.4-5,2.3c-7.4-3.6-14.4-8.7-20.3-14.7V484.8z M380.4,503.5c-9.4-2.4-18.1-6.6-26.1-12.3
			v-0.3c2.7-1.6,5.4-3.4,8.2-4.6c6.4,6.3,12.9,11,20.1,15.4C382.1,502.4,381.2,503.1,380.4,503.5z M421.8,504.9
			c-11.8,2.5-25,2.6-36.8-0.2c-0.2-0.5,0.6-0.7,0.9-1c10.4-6.7,26.5-6.7,36.7,0.5C422.9,504.9,422,504.7,421.8,504.9z M432.5,501.9
			l-5.2,1.6c-0.9-0.4-1.7-1.1-2.5-1.8l0.2-0.3c7.1-4.2,13.6-9.2,19.7-15.2c3,1.2,5.9,2.9,8.6,4.7
			C447.1,495.8,439.8,499.1,432.5,501.9z"/>
		<path class="st2" d="M333.2,377.8c2.7-3.7,5.7-7.3,9-10.8c2.9-2.7,5.6-5.4,8.7-7.3c2.9,1.9,6.1,3.4,8.9,5.2
			c-3.5,4.2-7,8.5-9.6,13.1c0.8,0.3,2.2,0.2,3.3,0c2.8-4,5.8-8.1,9.4-11.7c4.8,1.8,9.5,3.6,14.4,4.9l0.4,0.4l-2.8,6.3
			c1.2,0.2,2,0.1,3.2,0c1-1.9,1.8-3.9,2.9-5.8c6.5,1.4,13.3,2.2,20.2,2.4c0.9,0.8,0.2,2.4,0.6,3.4h3c0.3-1.1-0.1-2.3,0.3-3.3
			c6.5-0.3,13.3-1,19.5-2.5l0.5,0.1l3,5.7c1,0,2.3,0.2,3.1-0.2l-2.8-6.3l0.2-0.2c5.1-1.3,9.9-3.3,14.8-5.2c3.5,3.6,6.7,7.9,9.6,12
			c1.2,0,2.4,0.1,3.3-0.2c-1.3-2.4-3-4.8-4.8-6.9c-1.5-2.1-3-3.9-4.9-5.9v-0.6l7.8-4.5l1.1-0.4c6.8,5.1,12.8,11.4,17.6,18.3
			c1.3,0,2.5,0.5,3.6-0.1c-14.9-22.3-39.6-36.7-66.2-38.8l-0.1,0.2l-0.2-0.2c-3-0.3-6.7-0.4-9.9-0.1c-1.2-0.1-2.7,0-4.1,0.1
			c-26.7,2.1-51.4,15.8-66.7,39.1C330.7,377.8,332.1,378.2,333.2,377.8z M379.4,368.2l-0.4,0.1c-4.6-1.2-9-2.6-13.3-4.5l0.2-0.7
			c6.1-5.8,12.6-10.6,19.7-14.3c1.7,0.7,3.3,1.2,5,2l-0.3,0.9C386.1,356.9,382.8,362.6,379.4,368.2z M401.6,371.1
			c-3.1,0.4-5.9-0.1-9-0.3c-3-0.4-6.8-0.8-9.8-1.8c3.2-6,7-11.8,11.6-17.2l7.1,1C401.8,358.5,401.6,365.1,401.6,371.1z M405,371.2
			c-0.2-5.8-0.1-12.3,0-18.3c2.2-0.3,4.7-0.7,6.9-1c4.3,5.5,8.6,11.1,11.5,17.1C417.4,370.5,411.3,371.2,405,371.2z M440.6,363.6
			c-4.4,1.9-8.8,3.6-13.6,4.6c-3.5-5.8-7.2-11.6-11.5-17.2c1.6-0.9,3.5-1.5,5.1-2.4c7.3,3.6,14.3,8.8,20.2,14.6L440.6,363.6z
			 M426.3,344.8c9.4,2.4,18.2,6.6,26.2,12.3l-0.2,0.4l-7.7,4.3H444c-5.9-5.9-12.8-11-19.8-15.1C424.4,345.9,425.6,345.4,426.3,344.8
			z M421.9,343.7v0.2c-9.7,7-25.4,7.7-35.7,1.2c-0.6-0.4-1.7-0.7-1.8-1.4C396.2,341,410.2,340.8,421.9,343.7z M353.9,357.3
			c7-5.1,14.8-9,23.1-11.6c0.3-0.3,0.6-0.7,1-0.7v0.2c0.9,0.2,1.6-0.8,2.3-0.1c0.7,0.6,1.5,1,2,1.5c-6.9,4.3-13.7,9.3-19.9,15.4
			c-3-1.1-5.8-2.7-8.5-4.6V357.3z"/>
		<path class="st2" d="M401.7,444.9c-10.5,2.9-21.8,0.7-29.4-7.2c-0.9-1.1-1.4-2.4-2.3-3.5l-15,0.1c-0.2,8.9-0.3,19,0,27.8l16.7-0.1
			l0.2-5.3c1.9,0.9,3.8,2,5.7,2.9c11.6,4.8,26.5,5.9,38,0c8.4-4.6,12.8-13.5,11.6-23c-1.2-9.3-10.1-17.7-19.2-20l-27-7.8l-2-1
			c-0.9-0.8-1.5-1.7-1.2-2.9c2.1-3.6,7-2.5,10.7-2.4c7.8,1.1,15.8,3.7,20.4,10.8c4.9,0,10.6,0.1,15.9-0.1c0.2-9-0.1-16.8-0.2-25.9
			c-5-0.1-11.1-0.1-16.2,0.1c-0.2,1.3,0.2,3.2-0.3,4.5l-5.1-2.7c-12.3-5.1-29.4-5.7-40.6,2.3c-7.2,5.2-9.5,14.7-7.6,23
			c1.4,7.9,9,13.7,16.3,16.4c9.9,3.5,20.3,6,30.3,9.4c1,0.4,2.3,1.4,2.1,2.6C403.5,443.9,402.5,444.5,401.7,444.9z"/>
	</g>
	<g>
		<path class="st2" d="M324.7,551.9c0,5.3-2.9,8.2-9.1,8.2c-5.8,0-8.9-2.9-8.9-7.9v-0.8h5.6v1.1c0,2.2,1.2,3.1,3.1,3.1
			c2.1,0,3.3-0.9,3.3-3.9v-5.7h-0.1c-1,1.8-2.8,2.7-5.4,2.7c-4.4,0-6.6-2.6-6.6-7.2v-5.7c0-5,3.2-7.9,9-7.9c5.8,0,9,2.9,9,7.9V551.9
			z M318.7,541.2v-5.6c0-2.2-1.2-3-3.1-3c-1.9,0-3.1,0.8-3.1,3v5.6c0,2.2,1.2,3.1,3.1,3.1C317.5,544.3,318.7,543.5,318.7,541.2z"/>
		<path class="st2" d="M328.1,535.9c0-5,3.2-7.9,9-7.9c5.8,0,9,2.9,9,7.9v16.3c0,5-3.2,7.9-9,7.9c-5.8,0-9-2.9-9-7.9V535.9z
			 M334.1,552.5c0,2.2,1.2,3.1,3.1,3.1s3.1-0.9,3.1-3.1v-16.9c0-2.2-1.2-3.1-3.1-3.1s-3.1,0.9-3.1,3.1V552.5z"/>
		<path class="st2" d="M349.5,535.9c0-5,3.2-7.9,9-7.9c5.8,0,9,2.9,9,7.9v16.3c0,5-3.2,7.9-9,7.9c-5.8,0-9-2.9-9-7.9V535.9z
			 M355.4,552.5c0,2.2,1.2,3.1,3.1,3.1s3.1-0.9,3.1-3.1v-16.9c0-2.2-1.2-3.1-3.1-3.1s-3.1,0.9-3.1,3.1V552.5z"/>
		<path class="st2" d="M375.1,532.3c4.6,0,5.6-1.8,6.5-3.9h4v31.4h-5.9v-23.9h-4.6V532.3z"/>
		<path class="st2" d="M398.5,537.9v4.8h-5.7v-4.8H398.5z M398.5,555v4.8h-5.7V555H398.5z"/>
		<path class="st2" d="M411.5,532.5c-1.9,0-3.1,0.9-3.1,3.1v3.4h-5.6v-3c0-5,3-7.9,8.9-7.9c5.8,0,8.9,2.9,8.9,7.9
			c0,4.2-1.8,7.5-7.3,12.4c-3.5,3.1-4.5,4.6-4.5,6.3c0,0.2,0,0.4,0.1,0.7H420v4.5h-17.2v-3.9c0-3.5,1.5-6.1,5.9-10
			c4.5-4,5.8-6.5,5.8-9.8C414.6,533.2,413.4,532.5,411.5,532.5z"/>
		<path class="st2" d="M423.7,535.9c0-5,3.2-7.9,9-7.9c5.8,0,9,2.9,9,7.9v16.3c0,5-3.2,7.9-9,7.9c-5.8,0-9-2.9-9-7.9V535.9z
			 M429.7,552.5c0,2.2,1.2,3.1,3.1,3.1s3.1-0.9,3.1-3.1v-16.9c0-2.2-1.2-3.1-3.1-3.1s-3.1,0.9-3.1,3.1V552.5z"/>
		<path class="st2" d="M449.3,532.3c4.6,0,5.6-1.8,6.5-3.9h4v31.4h-5.9v-23.9h-4.6V532.3z"/>
		<path class="st2" d="M472.3,549.6v2.9c0,2.2,1.2,3,3.1,3c1.9,0,3.1-0.8,3.1-3v-6.9c0-2.2-1.2-3.1-3.1-3.1c-1.9,0-3.1,0.9-3.1,3.1
			v0.9h-5.6l1.1-18.2h15.7v4.5h-10.4l-0.5,7.5h0.1c1.1-1.5,2.8-2.3,5.1-2.3c4.4,0,6.6,2.6,6.6,7.2v7c0,5-3,7.9-8.9,7.9
			c-5.8,0-8.9-2.9-8.9-7.9v-2.6H472.3z"/>
	</g>
	<g>
		<path class="st1" d="M283.6,306.2l4.3,4.3c5.2,5.2,5,11.3-1.1,17.3s-12.2,6.1-17.3,0.9l-16.8-17c-5.2-5.2-5-11.3,1.1-17.3
			c6.1-6,12.2-6.1,17.3-0.9l3.1,3.2l-5.8,5.8L265,299c-2.3-2.3-4.4-2-6.4,0c-2,1.9-2.3,4.1,0,6.4L276,323c2.3,2.3,4.4,1.9,6.3,0
			c2-1.9,2.4-4,0.1-6.3l-4.6-4.7L283.6,306.2z"/>
		<path class="st1" d="M299.5,283.2l10.1-6.3l3.5,5.6l-10.1,6.3l7.1,11.4l12.8-7.9l3.5,5.6l-20.2,12.5l-24.2-39l20.2-12.5l3.5,5.6
			l-12.8,7.9L299.5,283.2z"/>
		<path class="st1" d="M355.2,286.4c-0.8-1-1.4-1.5-2.6-5.1l-2.3-6.8c-1.4-4-3.5-5-7.3-3.7l-2.8,1l6,17.7l-8.2,2.8l-14.7-43.5
			l12.4-4.2c8.5-2.9,13.3-0.8,15.6,5.9l1.2,3.4c1.5,4.5,0.8,7.9-2.4,10.6l0,0.1c4.6,0,7,2.8,8.6,7.3l2.3,6.7c0.7,2.1,1.3,3.6,2.7,5
			L355.2,286.4z M333.7,252.2l4.5,13.4l3.2-1.1c3.1-1,4.6-2.8,3.4-6.3l-1.4-4.3c-1-3.1-2.8-4-5.7-3.1L333.7,252.2z"/>
		<path class="st1" d="M368.9,235.9l26.7-2.6l0.6,6.5l-9,0.9l3.9,39.2l-8.7,0.9l-3.9-39.2l-9,0.9L368.9,235.9z"/>
		<path class="st1" d="M417.1,234l8.7,0.7l-3.9,45.7l-8.7-0.7L417.1,234z"/>
		<path class="st1" d="M452.5,260.3l10.8,3l-1.7,6.3l-10.8-3l-5,18.3l-8.4-2.3l12.1-44.3l22.2,6.1l-1.7,6.3l-13.8-3.8L452.5,260.3z"
			/>
		<path class="st1" d="M491.9,252.8l7.8,3.8l-20,41.3l-7.8-3.8L491.9,252.8z"/>
		<path class="st1" d="M516.1,289.3l9.6,7.1l-3.9,5.3l-9.6-7.1l-8,10.8l12.1,9l-3.9,5.3l-19-14.1l27.4-36.9l19,14.1l-3.9,5.3
			l-12.1-9L516.1,289.3z"/>
		<path class="st1" d="M556.9,298.8l8.9,10.5c5.6,6.6,5.3,12.5-0.3,17.2l-17.7,15c-5.6,4.8-11.4,4.1-17-2.6l-8.9-10.5L556.9,298.8z
			 M557.6,309.6l-25,21.2l3.2,3.7c1.8,2.1,3.8,2.6,6.3,0.5l18.2-15.4c2.5-2.1,2.3-4.2,0.5-6.3L557.6,309.6z"/>
	</g>
	<g>
		<path class="st1" d="M268.9,597.8L264,602c-5.9,5-12.2,4.4-18.1-2.4c-5.9-6.8-5.6-13.2,0.3-18.3l19-16.4c5.9-5,12.2-4.4,18.1,2.4
			s5.6,13.2-0.3,18.3l-3.6,3.1l-5.6-6.6l3.9-3.4c2.6-2.3,2.4-4.5,0.5-6.7c-1.9-2.2-4.1-2.7-6.7-0.5l-19.8,17
			c-2.6,2.3-2.4,4.4-0.5,6.7c1.9,2.2,4,2.8,6.7,0.5l5.2-4.5L268.9,597.8z"/>
		<path class="st1" d="M297.4,598.3c4.3-6.4,10.8-7.4,18.3-2.4c7.5,5,9.1,11.4,4.8,17.8l-13.9,20.9c-4.3,6.4-10.8,7.4-18.3,2.4
			c-7.5-5-9.1-11.4-4.8-17.8L297.4,598.3z M290.9,624.7c-1.9,2.9-1.1,5,1.3,6.6c2.4,1.6,4.7,1.5,6.6-1.3l14.4-21.7
			c1.9-2.9,1.1-5-1.3-6.6c-2.4-1.6-4.7-1.5-6.6,1.3L290.9,624.7z"/>
		<path class="st1" d="M351.6,650.2l0.2,0l15.1-31.4l12.3,3.4l-12.9,46.5l-8.3-2.3l9.3-33.4l-0.2,0l-15.2,31.7l-8.3-2.3l2.7-34.7
			l-0.2,0l-9.1,32.9l-7.7-2.1l12.9-46.5l12.3,3.4L351.6,650.2z"/>
		<path class="st1" d="M424.6,634.1l0.2,6.3c0.3,7.7-4,12.1-13.2,12.4l-4.3,0.2l0.7,18.1l-9.1,0.3l-1.8-48.3l13.5-0.5
			C419.7,622.4,424.3,626.4,424.6,634.1z M406.4,629.8l0.6,16.3l4.3-0.2c2.9-0.1,4.4-1.3,4.3-4.7l-0.3-7.2c-0.1-3.4-1.7-4.5-4.7-4.4
			L406.4,629.8z"/>
		<path class="st1" d="M481,656.8l-8.8,2.8l-4.1-7.9l-10.7,3.4l1.1,8.8l-8,2.5l-5.6-48.9l12.8-4L481,656.8z M456.5,648.4l8.4-2.7
			l-11.5-22l-0.2,0L456.5,648.4z"/>
		<path class="st1" d="M494.7,610.1l-0.1,0.1l19.6,29l-6.8,4.6l-27.1-40l9.5-6.4l23.8,18.8l0.1-0.1l-16.2-24l6.8-4.6l27.1,40
			l-7.8,5.3L494.7,610.1z"/>
		<path class="st1" d="M547.7,589.5l-32.2-11.7l6.1-7.4l21.3,8.8l0.1-0.1l-12.5-19.4l5.6-6.7l17.4,29.5l12.3,10.2l-5.8,7
			L547.7,589.5z"/>
	</g>
</g>
<g>
	<circle class="st3" cx="938.5" cy="449" r="234.7"/>
	<circle class="st4" cx="938.5" cy="449" r="160.7"/>
	<g>
		<path class="st2" d="M1043.7,409.2c-2-5.3-6.1-10-11.1-13.4c-14.5-9.2-36.6-9.9-51.5-1.5c-8.1,4.2-13.5,12.4-15.2,20.8
			c-3,13.9-2.2,30.4,8.5,40.8c12.5,10.9,30.6,13.4,46.8,8.9c0.8-0.1,3.2-0.8,4.9-1.6l0.5-0.2c5-2.1,9.8-5.5,13.4-10.1
			C1048.2,440.8,1048.7,422.8,1043.7,409.2z M1017.4,440.4c-0.6,2.6-2.3,5.4-5.1,6.4c-4.5,2-10.5,1.4-14.6-0.9
			c-3.5-2.4-3.9-6.5-4.3-10.3c-0.3-7.5-0.9-15.5,1.2-22.4c1.7-4.3,6.2-5.4,10.4-5.7c4.3,0,8.6,0.7,11.3,4.2c1.7,2.5,1.6,5.8,1.9,8.8
			C1018,426.6,1018.5,434.1,1017.4,440.4z"/>
		<path class="st2" d="M885.4,447.2c-3.7-0.2-7.8,0.1-11.4-0.3l0.1-38.4l0.2-0.3l11-0.1c0.1-6.2,0.2-12.9-0.1-18.6l-42-0.1l-6.9,0.1
			c-0.1,5.8-0.1,12.6,0,18.5c3.8,0.1,7.4,0,11,0.3v37.2l-0.1,1.5l-11,0.2c-0.2,6.1-0.2,12,0,18.1h49.1V447.2z"/>
		<path class="st2" d="M1009.1,473.5c-4.7,6.7-10.6,13.1-17,18.2c-0.2,0.3-0.9,0.2-1.1-0.1c-2.8-1.7-5.8-3.2-8.5-4.9
			c3.6-4.3,7-8.5,9.7-13.3h-3.5c-2.8,4.1-5.7,8.3-9.4,11.9c-4.9-2-9.4-3.7-14.4-5l-0.6-0.4c0.8-2.2,2.2-4.3,2.7-6.5h-3l-3,5.9
			c-6.6-1.4-13.8-2.2-20.5-2.6c-0.3-1,0.1-2.4-0.3-3.3h-2.9c-0.2,1.3,0.3,2.3-0.3,3.4c-6.9,0.3-13.6,1.1-20.1,2.4l-3-5.8
			c-1.1,0-2.3-0.2-3.1,0.1l2.8,6.5l-0.3,0.3c-5,1.4-9.9,3.2-14.7,5.2l-0.4-0.2c-3.1-3.4-6.1-7.1-8.6-10.8c-0.6-1.9-2.8-0.8-4-1
			c2.7,4.8,6.2,9.1,9.8,13.5c-3,1.8-6,3.7-9.1,5.1c-6.7-5-12.9-11.6-17.6-18.5c-1.3-0.2-2.2-0.1-3.6,0c8,12.5,20.5,23.4,33.5,29.9
			c0,0,0-0.1,0.1-0.1c0.1,0,0.3,0.2,0.1,0.3c8.8,4.3,18.2,7.3,28.1,8.7c34.2,4.5,66.9-10.1,85.8-38.8
			C1011.7,473.4,1010.2,473.4,1009.1,473.5z M962.6,483.3l0.3-0.2c4.8,1.1,9.4,2.6,13.6,4.7c-3.6,4-8.1,7.6-12.4,10.5
			c-2.6,1.5-5.1,3.2-7.8,4.5l-4.8-2.1l0.3-0.8C955.9,494.6,959.5,489.1,962.6,483.3z M940.7,480c6.4,0.1,12.7,0.8,18.6,2.2l0.1,0.3
			c-3.1,5.9-7,11.6-11.3,17c-1.9,0.2-3.7-0.5-5.6-0.6l-1.9-0.2C940.4,492.2,940.3,486.5,940.7,480z M919.2,482c5.8-1.1,11.8-2,18-2
			l0.1,18.5c-2.3,0.5-4.9,0.5-7.1,1.1c-4.6-5.4-8.4-11.2-11.6-17.2L919.2,482z M901.2,487.9c4.4-2.1,8.9-3.6,13.6-4.8l0.5,0.1
			c3.2,6,7.2,11.7,11.2,17.4c-1.6,0.9-3.5,1.4-5,2.3c-7.4-3.6-14.4-8.7-20.3-14.7V487.9z M915.6,506.7c-9.4-2.4-18.1-6.6-26.1-12.3
			V494c2.7-1.6,5.4-3.4,8.2-4.6c6.4,6.3,12.9,11,20.1,15.4C917.3,505.6,916.4,506.2,915.6,506.7z M956.9,508.1
			c-11.8,2.5-25,2.6-36.8-0.2c-0.2-0.5,0.6-0.7,0.9-1c10.4-6.7,26.5-6.7,36.7,0.5C958,508.1,957.2,507.9,956.9,508.1z M967.6,505
			l-5.2,1.6c-0.9-0.4-1.7-1.1-2.5-1.8l0.2-0.3c7.1-4.2,13.6-9.2,19.7-15.2c3,1.2,5.9,2.9,8.6,4.7C982.2,499,975,502.3,967.6,505z"/>
		<path class="st2" d="M868.4,380.9c2.7-3.7,5.7-7.3,9-10.8c2.9-2.7,5.6-5.4,8.7-7.3c2.9,1.9,6.1,3.4,8.9,5.2
			c-3.5,4.2-7,8.5-9.6,13.1c0.8,0.3,2.2,0.2,3.3,0c2.8-4,5.8-8.1,9.4-11.7c4.8,1.8,9.5,3.6,14.4,4.9l0.4,0.4l-2.8,6.3
			c1.2,0.2,2,0.1,3.2,0c1-1.9,1.8-3.9,2.9-5.8c6.5,1.4,13.3,2.2,20.2,2.4c0.9,0.8,0.2,2.4,0.6,3.4h3c0.3-1.1-0.1-2.3,0.3-3.3
			c6.5-0.3,13.3-1,19.5-2.5l0.5,0.1l3,5.7c1,0,2.3,0.2,3.1-0.2l-2.8-6.3l0.2-0.2c5.1-1.3,9.9-3.3,14.8-5.2c3.5,3.6,6.7,7.9,9.6,12
			c1.2,0,2.4,0.1,3.3-0.2c-1.3-2.4-3-4.8-4.8-6.9c-1.5-2.1-3-3.9-4.9-5.9v-0.6l7.8-4.5l1.1-0.4c6.8,5.1,12.8,11.4,17.6,18.3
			c1.3,0,2.5,0.5,3.6-0.1c-14.9-22.3-39.6-36.7-66.2-38.8l-0.1,0.2l-0.2-0.2c-3-0.3-6.7-0.4-9.9-0.1c-1.2-0.1-2.7,0-4.1,0.1
			c-26.7,2.1-51.4,15.8-66.7,39.1C865.9,380.9,867.2,381.4,868.4,380.9z M914.6,371.3l-0.4,0.1c-4.6-1.2-9-2.6-13.3-4.5l0.2-0.7
			c6.1-5.8,12.6-10.6,19.7-14.3c1.7,0.7,3.3,1.2,5,2l-0.3,0.9C921.3,360,917.9,365.7,914.6,371.3z M936.8,374.3
			c-3.1,0.4-5.9-0.1-9-0.3c-3-0.4-6.8-0.8-9.8-1.8c3.2-6,7-11.8,11.6-17.2l7.1,1C937,361.7,936.8,368.3,936.8,374.3z M940.2,374.4
			c-0.2-5.8-0.1-12.3,0-18.3c2.2-0.3,4.7-0.7,6.9-1c4.3,5.5,8.6,11.1,11.5,17.1C952.6,373.6,946.5,374.4,940.2,374.4z M975.8,366.7
			c-4.4,1.9-8.8,3.6-13.6,4.6c-3.5-5.8-7.2-11.6-11.5-17.2c1.6-0.9,3.5-1.5,5.1-2.4c7.3,3.6,14.3,8.8,20.2,14.6L975.8,366.7z
			 M961.5,348c9.4,2.4,18.2,6.6,26.2,12.3l-0.2,0.4l-7.7,4.3h-0.6c-5.9-5.9-12.8-11-19.8-15.1C959.6,349.1,960.7,348.5,961.5,348z
			 M957,346.9v0.2c-9.7,7-25.4,7.7-35.7,1.2c-0.6-0.4-1.7-0.7-1.8-1.4C931.4,344.2,945.3,344,957,346.9z M889.1,360.5
			c7-5.1,14.8-9,23.1-11.6c0.3-0.3,0.6-0.7,1-0.7v0.2c0.9,0.2,1.6-0.8,2.3-0.1c0.7,0.6,1.5,1,2,1.5c-6.9,4.3-13.7,9.3-19.9,15.4
			c-3-1.1-5.8-2.7-8.5-4.6V360.5z"/>
		<path class="st2" d="M936.9,448.1c-10.5,2.9-21.8,0.7-29.4-7.2c-0.9-1.1-1.4-2.4-2.3-3.5l-15,0.1c-0.2,8.9-0.3,19,0,27.8l16.7-0.1
			l0.2-5.3c1.9,0.9,3.8,2,5.7,2.9c11.6,4.8,26.5,5.9,38,0c8.4-4.6,12.8-13.5,11.6-23c-1.2-9.3-10.1-17.7-19.2-20l-27-7.8l-2-1
			c-0.9-0.8-1.5-1.7-1.2-2.9c2.1-3.6,7-2.5,10.7-2.4c7.8,1.1,15.8,3.7,20.4,10.8c4.9,0,10.6,0.1,15.9-0.1c0.2-9-0.1-16.9-0.2-25.9
			c-5-0.1-11.1-0.1-16.2,0.1c-0.2,1.3,0.2,3.2-0.3,4.5l-5.1-2.7c-12.3-5.1-29.4-5.7-40.6,2.3c-7.2,5.2-9.5,14.7-7.6,23
			c1.4,7.9,9,13.7,16.3,16.4c9.9,3.5,20.3,6,30.3,9.4c1,0.4,2.3,1.4,2.1,2.6C938.7,447.1,937.7,447.6,936.9,448.1z"/>
	</g>
	<g>
		<path class="st2" d="M859.8,555.1c0,5.3-2.9,8.2-9.1,8.2c-5.8,0-8.9-2.9-8.9-7.9v-0.8h5.6v1.1c0,2.2,1.2,3.1,3.1,3.1
			c2.1,0,3.3-0.9,3.3-3.9v-5.7h-0.1c-1,1.8-2.8,2.7-5.4,2.7c-4.4,0-6.6-2.6-6.6-7.2V539c0-5,3.2-7.9,9-7.9c5.8,0,9,2.9,9,7.9V555.1z
			 M853.9,544.4v-5.6c0-2.2-1.2-3-3.1-3c-1.9,0-3.1,0.8-3.1,3v5.6c0,2.2,1.2,3.1,3.1,3.1C852.7,547.5,853.9,546.6,853.9,544.4z"/>
		<path class="st2" d="M863.3,539c0-5,3.2-7.9,9-7.9c5.8,0,9,2.9,9,7.9v16.3c0,5-3.2,7.9-9,7.9c-5.8,0-9-2.9-9-7.9V539z
			 M869.2,555.7c0,2.2,1.2,3.1,3.1,3.1s3.1-0.9,3.1-3.1v-16.9c0-2.2-1.2-3.1-3.1-3.1s-3.1,0.9-3.1,3.1V555.7z"/>
		<path class="st2" d="M884.7,539c0-5,3.2-7.9,9-7.9c5.8,0,9,2.9,9,7.9v16.3c0,5-3.2,7.9-9,7.9c-5.8,0-9-2.9-9-7.9V539z
			 M890.6,555.7c0,2.2,1.2,3.1,3.1,3.1s3.1-0.9,3.1-3.1v-16.9c0-2.2-1.2-3.1-3.1-3.1s-3.1,0.9-3.1,3.1V555.7z"/>
		<path class="st2" d="M910.2,535.5c4.6,0,5.6-1.8,6.5-3.9h4v31.4h-5.9V539h-4.6V535.5z"/>
		<path class="st2" d="M933.7,541.1v4.8h-5.7v-4.8H933.7z M933.7,558.1v4.8h-5.7v-4.8H933.7z"/>
		<path class="st2" d="M946.7,535.6c-1.9,0-3.1,0.9-3.1,3.1v3.4H938v-3c0-5,3-7.9,8.9-7.9c5.8,0,8.9,2.9,8.9,7.9
			c0,4.2-1.8,7.5-7.3,12.4c-3.5,3.1-4.5,4.6-4.5,6.3c0,0.2,0,0.4,0.1,0.7h11.2v4.5H938V559c0-3.5,1.5-6.1,5.9-10
			c4.5-4,5.8-6.5,5.8-9.8C949.8,536.4,948.6,535.6,946.7,535.6z"/>
		<path class="st2" d="M958.9,539c0-5,3.2-7.9,9-7.9c5.8,0,9,2.9,9,7.9v16.3c0,5-3.2,7.9-9,7.9c-5.8,0-9-2.9-9-7.9V539z
			 M964.8,555.7c0,2.2,1.2,3.1,3.1,3.1s3.1-0.9,3.1-3.1v-16.9c0-2.2-1.2-3.1-3.1-3.1s-3.1,0.9-3.1,3.1V555.7z"/>
		<path class="st2" d="M984.4,535.5c4.6,0,5.6-1.8,6.5-3.9h4v31.4H989V539h-4.6V535.5z"/>
		<path class="st2" d="M1007.5,552.8v2.9c0,2.2,1.2,3,3.1,3c1.9,0,3.1-0.8,3.1-3v-6.9c0-2.2-1.2-3.1-3.1-3.1c-1.9,0-3.1,0.9-3.1,3.1
			v0.9h-5.6l1.1-18.2h15.7v4.5h-10.4l-0.5,7.5h0.1c1.1-1.5,2.8-2.3,5.1-2.3c4.4,0,6.6,2.6,6.6,7.2v7c0,5-3,7.9-8.9,7.9
			c-5.8,0-8.9-2.9-8.9-7.9v-2.6H1007.5z"/>
	</g>
	<g>
		<path class="st4" d="M814.6,305.1l4.3,4.3c5.2,5.2,5,11.3-1.1,17.3s-12.2,6.1-17.3,0.9l-16.8-17c-5.2-5.2-5-11.3,1.1-17.3
			c6.1-6,12.2-6.1,17.3-0.9l3.1,3.2l-5.8,5.8l-3.5-3.5c-2.3-2.3-4.4-2-6.4,0c-2,1.9-2.3,4.1,0,6.4l17.4,17.6c2.3,2.3,4.4,1.9,6.3,0
			c2-1.9,2.4-4,0.1-6.3l-4.6-4.7L814.6,305.1z"/>
		<path class="st4" d="M831.5,281.3l10.1-6.3l3.5,5.6l-10.1,6.3l7.1,11.4l12.8-7.9l3.5,5.6l-20.2,12.5l-24.2-39l20.2-12.5l3.5,5.6
			l-12.8,7.9L831.5,281.3z"/>
		<path class="st4" d="M888.5,283.9c-0.8-1-1.4-1.5-2.6-5.1l-2.3-6.8c-1.4-4-3.5-5-7.3-3.7l-2.8,1l6,17.7l-8.2,2.8l-14.7-43.5
			L869,242c8.5-2.9,13.3-0.8,15.6,5.9l1.2,3.4c1.5,4.5,0.8,7.9-2.4,10.6l0,0.1c4.6,0,7,2.8,8.6,7.3l2.3,6.7c0.7,2.1,1.3,3.6,2.7,5
			L888.5,283.9z M866.9,249.7l4.5,13.4l3.2-1.1c3.1-1,4.6-2.8,3.4-6.3l-1.4-4.3c-1-3.1-2.8-4-5.7-3.1L866.9,249.7z"/>
		<path class="st4" d="M903.5,233.1l26.7-2.6l0.6,6.5l-9,0.9l3.9,39.2l-8.7,0.9l-3.9-39.2l-9,0.9L903.5,233.1z"/>
		<path class="st4" d="M952.8,231.2l8.7,0.7l-3.9,45.7l-8.7-0.7L952.8,231.2z"/>
		<path class="st4" d="M989.3,257.7l10.8,3l-1.7,6.3l-10.8-3l-5,18.3l-8.4-2.3l12.1-44.3l22.2,6.1l-1.7,6.3l-13.8-3.8L989.3,257.7z"
			/>
		<path class="st4" d="M1029.7,250.6l7.8,3.8l-20,41.3l-7.8-3.8L1029.7,250.6z"/>
		<path class="st4" d="M1054.9,287.6l9.6,7.1l-3.9,5.3l-9.6-7.1l-8,10.8l12.1,9l-3.9,5.3l-19-14.1l27.4-36.9l19,14.1l-3.9,5.3
			l-12.1-9L1054.9,287.6z"/>
		<path class="st4" d="M1096.7,298l8.9,10.5c5.6,6.6,5.3,12.5-0.3,17.2l-17.7,15c-5.6,4.8-11.4,4.1-17-2.6l-8.9-10.5L1096.7,298z
			 M1097.3,308.9l-25,21.2l3.2,3.7c1.8,2.1,3.8,2.6,6.3,0.5l18.2-15.4c2.5-2.1,2.3-4.2,0.5-6.3L1097.3,308.9z"/>
	</g>
	<g>
		<path class="st4" d="M805.6,599.7l-4.9,4.2c-5.9,5-12.2,4.4-18.1-2.4c-5.9-6.8-5.6-13.2,0.3-18.3l19-16.4c5.9-5,12.2-4.4,18.1,2.4
			s5.6,13.2-0.3,18.3l-3.6,3.1l-5.6-6.6l3.9-3.4c2.6-2.3,2.4-4.5,0.5-6.7c-1.9-2.2-4.1-2.7-6.7-0.5l-19.8,17
			c-2.6,2.3-2.4,4.4-0.5,6.7c1.9,2.2,4,2.8,6.7,0.5l5.2-4.5L805.6,599.7z"/>
		<path class="st4" d="M833.7,599.8c4.3-6.4,10.8-7.4,18.3-2.4c7.5,5,9.1,11.4,4.8,17.8L843,636.1c-4.3,6.4-10.8,7.4-18.3,2.4
			c-7.5-5-9.1-11.4-4.8-17.8L833.7,599.8z M827.2,626.2c-1.9,2.9-1.1,5,1.3,6.6c2.4,1.6,4.7,1.5,6.6-1.3l14.4-21.7
			c1.9-2.9,1.1-5-1.3-6.6c-2.4-1.6-4.7-1.5-6.6,1.3L827.2,626.2z"/>
		<path class="st4" d="M887.4,651.4l0.2,0l15.1-31.4l12.3,3.4L902,670l-8.3-2.3l9.3-33.4l-0.2,0L887.5,666l-8.3-2.3l2.7-34.7l-0.2,0
			l-9.1,32.9l-7.7-2.1l12.9-46.5l12.3,3.4L887.4,651.4z"/>
		<path class="st4" d="M959.7,635.3l0.2,6.3c0.3,7.7-4,12.1-13.2,12.4l-4.3,0.2l0.7,18.1l-9.1,0.3l-1.8-48.3l13.5-0.5
			C954.7,623.5,959.4,627.6,959.7,635.3z M941.5,630.9l0.6,16.3l4.3-0.2c2.9-0.1,4.4-1.3,4.3-4.7l-0.3-7.2c-0.1-3.4-1.7-4.5-4.7-4.4
			L941.5,630.9z"/>
		<path class="st4" d="M1015.6,658l-8.8,2.8l-4.1-7.9l-10.7,3.4l1.1,8.8l-8,2.5l-5.6-48.9l12.8-4L1015.6,658z M991.1,649.7l8.4-2.7
			L988,625l-0.2,0L991.1,649.7z"/>
		<path class="st4" d="M1028.7,611.6l-0.1,0.1l19.6,29l-6.8,4.6l-27.1-40l9.5-6.4l23.8,18.8l0.1-0.1l-16.2-24l6.8-4.6l27.1,40
			l-7.8,5.3L1028.7,611.6z"/>
		<path class="st4" d="M1081.3,591.4l-32.2-11.7l6.1-7.4l21.3,8.8l0.1-0.1l-12.5-19.4l5.6-6.7l17.4,29.5l12.3,10.2l-5.8,7
			L1081.3,591.4z"/>
	</g>
</g>
</svg>
