<svg xmlns="http://www.w3.org/2000/svg" width="500" height="156.75" viewBox="0 0 500 156.75"><path d="M681.75,494.38c-22.08,0-38.31-17.44-37.14-39.19,1.09-20,19.92-35.79,40.29-33.31,14.12,1.73,24.05,9.48,29.72,22.58.57,1.32.9,2-1.11,2.52a32.94,32.94,0,0,0-22.88,43.53c.81,2.16.34,2.68-1.66,3A41.3,41.3,0,0,1,681.75,494.38Z" transform="translate(-250 -421.62)" fill="#636468"/><path d="M721.52,507.48A28.45,28.45,0,1,1,750,479.34,28.37,28.37,0,0,1,721.52,507.48Z" transform="translate(-250 -421.62)" fill="#e11a58"/><path d="M688,536.67a18.47,18.47,0,1,1,18.4-18.46A18.4,18.4,0,0,1,688,536.67Z" transform="translate(-250 -421.62)" fill="#9d9ea2"/><path d="M310.42,524.73a134.38,134.38,0,0,0-16.77-5.31C288.39,518,283,517,278.29,514c-4.06-2.59-5.46-6.16-4.23-10.82,1.18-4.44,4.45-6.63,8.65-7.43,11.7-2.24,22,1.39,31.58,7.87,1.15.79,1.59,1,2.33-.41,2.18-4.25,4.48-8.45,6.86-12.6.68-1.18.44-1.67-.64-2.33A70.39,70.39,0,0,0,310.25,482c-13.09-4.82-26.25-5.61-39.24.17-15.54,6.92-19,22.09-16.13,34,2.06,8.53,8.61,12.82,16.17,15.94,7.23,3,14.9,4.59,22.32,7,3.83,1.24,7.68,2.51,10.77,5.27a8.9,8.9,0,0,1-2.39,15.1,21.42,21.42,0,0,1-8.09,1.65c-12.51.45-23.55-3.8-33.64-10.81-1.57-1.08-1.89-.7-2.6.7-2.4,4.78-4.94,9.51-7.42,14.26v.5a4.91,4.91,0,0,0,1.67,1.81,76.89,76.89,0,0,0,8.77,4.81,70.09,70.09,0,0,0,22.82,6h14.61c3.47-1.13,7.15-1.36,10.61-2.54,11.81-4,18.71-13,19.12-25.05C328,537.9,322.73,529.77,310.42,524.73Z" transform="translate(-250 -421.62)" fill="#383838"/><path d="M703.32,567.34a7.84,7.84,0,0,0-14.81,4.94c.67,3.06,2.94,4.68,5.45,6.1h4c.66-.34,1.33-.65,2-1A7.94,7.94,0,0,0,703.32,567.34ZM696,577.29a6.77,6.77,0,1,1,6.83-6.61A6.76,6.76,0,0,1,696,577.29Z" transform="translate(-250 -421.62)" fill="#383838"/><path d="M661.25,536.57c-7-18.41-14-36.8-20.93-55.24-.71-1.88-1.58-2.54-3.61-2.43a95,95,0,0,1-11.32,0c-2.39-.16-3.27.73-4.08,2.86q-15.16,40.08-30.51,80.1C588.88,566.91,587,572,585,577.31c6.08,0,11.86-.08,17.63.05,1.67,0,2.27-.58,2.79-2.06,2.42-6.88,5-13.69,7.46-20.56a2.53,2.53,0,0,1,2.85-2q15.12.12,30.22,0a2.39,2.39,0,0,1,2.7,1.86c2.49,6.94,5.14,13.83,7.64,20.76a2.52,2.52,0,0,0,2.87,2c5-.12,9.9,0,14.86,0,2.75,0,2.75,0,1.74-2.68Q668.5,555.6,661.25,536.57Zm-18.53,2.73c-8.4,0-16.79,0-25.19-.06-.14,0-.29-.14-.59-.28,4.58-12.53,9.17-25.08,13.95-38.19,1.56,4.43,3,8.33,4.33,12.25q4.23,12.09,8.46,24.2C644.05,538.26,644.76,539.31,642.72,539.3Z" transform="translate(-250 -421.62)" fill="#383838"/><path d="M599.36,495.76c1.81,0,2.49-.31,2.41-2.3-.17-4.1,0-8.22-.08-12.33,0-.66.48-1.52-.45-2-.5-.05-1-.13-1.49-.13H522.08a4.82,4.82,0,0,1-.76,0c-1.16-.16-1.38.45-1.36,1.47.08,4.93.11,9.87.16,14.81.59.93,1.51.43,2.26.44,8.89,0,17.78.08,26.67,0,1.87,0,2.35.44,2.34,2.35-.08,18.44,0,36.88,0,55.32,0,7.29,0,14.58,0,21.88,0,1.62.37,2.16,2.07,2.12,5-.12,10.06,0,15.1-.06.54,0,1.17.27,1.59-.35h0c.56-.84.26-1.78.26-2.67,0-25.34,0-50.67,0-76,0-2.14.57-2.61,2.63-2.58C581.73,495.79,590.55,495.67,599.36,495.76Z" transform="translate(-250 -421.62)" fill="#383838"/><path d="M512.93,561c-1.28-1.41-4.25-.43-6.49-.43-13.93,0-27.86.06-41.79.1h0c-.79-.76-.44-1.74-.44-2.62,0-7.68,0-15.36,0-23,1,0,2-.11,3-.11,12.05,0,24.11,0,36.17,0,.7,0,1.94.78,2.11-.82,0-4.1-.05-8.21.16-12.31.11-2.1-.65-2.42-2.53-2.41-12.24.08-24.48,0-36.73.08-1.79,0-2.23-.49-2.2-2.23.11-6.21.15-12.41,0-18.61-.06-2.24.45-2.93,2.83-2.91,14.34.12,28.68,0,43,.09,1.58,0,2.18-.31,2.12-2-.15-4.69-.1-9.38-.13-14.08-.19-1.07-1.06-.62-1.61-.62-21.15,0-42.31,0-63.47-.06-1.44,0-1.84.41-1.84,1.84q.06,47.32,0,94.66c0,1.42.35,1.86,1.81,1.85q32.37-.06,64.73,0c1.31,0,1.74-.31,1.69-1.67-.11-2.76,0-5.53,0-8.3C513.26,565.16,514,562.23,512.93,561Z" transform="translate(-250 -421.62)" fill="#383838"/><path d="M432.33,479c-5.54.09-11.07,0-16.61.05-.67,0-1.56-.4-2,.6-.35.56-.74,1.1-1.05,1.69q-13.5,25.72-27,51.44c-.31.6-.42,1.38-1.2,1.74-.19-.3-.34-.5-.46-.71q-13.68-26.34-27.31-52.71a3.4,3.4,0,0,0-3.65-2.15c-5.21.13-10.42.16-15.62,0-2.12-.07-2.4.67-2.4,2.53q.07,46.35,0,92.69c0,.75.06,1.5.1,2.26l0,.48c.51.91,1.36.42,2,.43,4.7.05,9.41-.09,14.1.07,2.22.08,2.95-.4,2.94-2.82-.12-19.64-.07-39.28-.07-58.92v-2.37a5.56,5.56,0,0,1,1.53,2c6.63,12.71,13.23,25.43,19.92,38.11,1.28,2.43,1.88,5.86,4.12,7s5.42.22,8.18.38a2.67,2.67,0,0,0,2.86-1.79q11.58-22.32,23.26-44.58c.23-.44.17-1.23,1.11-1.15q0,20.4,0,40.76c0,7.46.06,14.93.1,22.4h0c-.14,1.15.71.89,1.32.89,5.37,0,10.74,0,16.1,0,1.47,0,1.59-.65,1.59-1.83q0-47.29,0-94.59C434.34,479.27,433.82,478.94,432.33,479Z" transform="translate(-250 -421.62)" fill="#383838"/><path d="M697.74,566.3c-3.8-1-4.77-.25-4.76,3.69v.5c0,.92,0,1.84,0,2.76,0,.6-.31,1.53.77,1.5s.63-1,.73-1.54-.35-1.47.52-1.73a2.73,2.73,0,0,1,2.41.32c.72.51.65,1.3.69,2.05,0,.58.26,1,.91.9s.49-.57.49-1,.1-1.14-.16-1.47c-.77-1-.88-1.6,0-2.82S699.49,566.76,697.74,566.3Zm-1.68,4c-1.1.1-1.82-.16-1.56-1.48-.19-1.12.14-1.75,1.43-1.6,1,.11,2.14,0,2.17,1.44S697.14,570.21,696.06,570.31Z" transform="translate(-250 -421.62)" fill="#383838"/></svg>